<svg id="svg3346" xmlns="http://www.w3.org/2000/svg" viewBox="0 0 1402.46596 1402.46589"><defs><style>.cls-1{fill:#f14f00;}.cls-2{fill:#fbecd6;}.cls-3{fill:#1a1a1a;}</style></defs><path class="cls-1" d="M708.66144,1409.89438q18.76007,0,37.281-.98059c-13.96907.531-28.45013.84487-43.03284.94422C704.82606,1409.87339,706.74128,1409.89438,708.66144,1409.89438Z" transform="translate(-7.42846 -7.42849)"/><path class="cls-1" d="M1409.89442,708.6614c0-387.28036-313.95282-701.23291-701.233-701.23291-387.2803,0-701.233,313.95255-701.233,701.23291,0,212.40056,94.43858,402.73906,243.61038,531.33289.04374-.16657.084-.32086.12817-.48891,19.722-75.12156,59.91833-144.71651,114.6498-201.70581L163.44027,866.6558a39.8444,39.8444,0,0,1-4.49242-56.49458,40.6353,40.6353,0,0,1,56.95636-4.52913l210.943,178.38818A483.73214,483.73214,0,0,1,503.88,937.22446c19.09774-9.27809,36.81951-16.98826,54.0436-23.3405C433.36608,857.1674,347.14954,734.79089,347.14981,592.94185v-.00229c.00095-195.85673,164.346-354.62918,367.07481-354.62823,202.72825.00121,367.07116,158.77447,367.07076,354.63052.00027,140.40342-84.46174,261.74029-206.97142,319.19919,100.62,32.82877,187.38254,98.50384,250.30872,191.72418,21.4022,31.70583,48.84062,91.86854,56.99247,122.50887C1321.9002,1098.15234,1409.89442,913.68554,1409.89442,708.6614Z" transform="translate(-7.42846 -7.42849)"/><path class="cls-1" d="M503.40783,471.82224l.08768-.03091C503.46642,471.80193,503.43692,471.81165,503.40783,471.82224Z" transform="translate(-7.42846 -7.42849)"/><path class="cls-1" d="M875.39587,466.28275A99.64116,99.64116,0,0,1,975.03709,565.924v66.77479a99.68247,99.68247,0,0,1-69.70861,95.06342,99.41363,99.41363,0,0,0,71.21895-95.55206V565.43748a99.42472,99.42472,0,0,0-99.63993-99.64425H537.74093a99.99359,99.99359,0,0,0-33.42944,5.71187,99.52253,99.52253,0,0,1,31.91761-5.22235Z" transform="translate(-7.42846 -7.42849)"/><path class="cls-2" d="M438.09661,565.43748v66.77264a99.42479,99.42479,0,0,0,99.64432,99.64H876.9075a97.68675,97.68675,0,0,0,98.12959-99.15136V565.924a99.64116,99.64116,0,0,0-99.64122-99.64122H536.2291a99.52253,99.52253,0,0,0-31.91761,5.22235c-.27166.09611-.54541.18783-.816.28623l-.08768.03091A99.43126,99.43126,0,0,0,438.09661,565.43748Zm362.73614-13.6364c22.74063,0,41.17546,22.68914,41.17546,50.67756s-18.43483,50.67756-41.17546,50.67756-41.17553-22.68914-41.17553-50.67756S778.09212,551.80108,800.83275,551.80108Zm-202.71023,0c22.74063,0,41.1756,22.68914,41.1756,50.67756s-18.435,50.67756-41.1756,50.67756c-22.74056,0-41.17553-22.68914-41.17553-50.67756S575.382,551.80108,598.12252,551.80108Z" transform="translate(-7.42846 -7.42849)"/><path class="cls-3" d="M503.49551,471.79133c.27057-.0984.54432-.19012.816-.28623C504.03808,471.59749,503.7679,471.69664,503.49551,471.79133Z" transform="translate(-7.42846 -7.42849)"/><path class="cls-3" d="M905.32848,727.76218a100.25564,100.25564,0,0,1-28.421,4.08794H537.74093a99.42479,99.42479,0,0,1-99.64432-99.64V565.43748a99.43126,99.43126,0,0,1,65.31122-93.61524A99.67758,99.67758,0,0,0,436.58789,565.924v66.77479A99.6412,99.6412,0,0,0,536.2291,732.34H875.39587A99.5896,99.5896,0,0,0,905.32848,727.76218Z" transform="translate(-7.42846 -7.42849)"/><path class="cls-3" d="M1124.63268,1103.86522C1061.7065,1010.64488,974.944,944.96981,874.324,912.141c122.50968-57.4589,206.97169-178.79577,206.97142-319.19919.0004-195.85605-164.34251-354.62931-367.07076-354.63052-202.72885-.00095-367.07386,158.7715-367.07481,354.62823v.00229c-.00027,141.849,86.21627,264.22555,210.7738,320.94211-17.22409,6.35224-34.94586,14.06241-54.0436,23.3405a483.73214,483.73214,0,0,0-77.0328,46.79581l-210.943-178.38818a40.6353,40.6353,0,0,0-56.95636,4.52913,39.8444,39.8444,0,0,0,4.49242,56.49458l202.37654,171.14377c-54.73147,56.9893-94.92782,126.58425-114.6498,201.70581-.04414.168-.08443.32234-.12817.48891A698.42866,698.42866,0,0,0,702.90955,1409.858c14.58271-.09935,29.06377-.41319,43.03284-.94422,167.56358-8.77784,319.54233-76.3786,435.68276-182.5397C1173.4733,1195.73376,1146.03488,1135.57105,1124.63268,1103.86522ZM536.2291,732.34a99.6412,99.6412,0,0,1-99.64121-99.64121V565.924a99.67758,99.67758,0,0,1,66.81994-94.10173c.02909-.01059.05859-.02031.08768-.03091.27239-.09469.54257-.19384.816-.28623a99.99359,99.99359,0,0,1,33.42944-5.71187H876.9075a99.42472,99.42472,0,0,1,99.63993,99.64425v66.77264A101.34118,101.34118,0,0,1,875.39587,732.34Z" transform="translate(-7.42846 -7.42849)"/><ellipse class="cls-3" cx="590.69408" cy="595.05015" rx="41.17558" ry="50.67756"/><ellipse class="cls-3" cx="793.40427" cy="595.05015" rx="41.17548" ry="50.67756"/></svg>