<svg id="Capa_1" data-name="Capa 1" xmlns="http://www.w3.org/2000/svg" viewBox="0 0 450 450"><defs><style>.cls-1{fill:none;}.cls-2{fill:#fff;}</style></defs><path class="cls-1" d="M115.57543,262.16784a16.70047,16.70047,0,0,1,1.7994-.44574c1.00665-.22093,2.37474-.55171,3.06315-.7434l1.24557-.33432-8.89726-5.63587c-4.89021-3.09641-8.88-5.64984-8.85732-5.68527.0248-.0257,1.78876-.49413,3.93235-1.03569,2.14367-.54162,4.15929-1.06525,4.47991-1.17619l.58735-.18986-10.52029-6.88259L91.88044,233.1681l-4.12412.7633c-2.27014.42735-4.922.91813-5.88883,1.08979-.96671.17166-2.35723.44643-3.0853.59614l-1.33034.27177,2.461,1.45845c10.33309,6.12223,17.41747,10.34,17.45924,10.3917.01813.03653-2.18987.56187-4.91522,1.18043-2.72741.60888-4.96668,1.13088-4.98392,1.14478-.00538.02146,4.87795,2.43962,10.84991,5.3797,5.974,2.94983,10.8692,5.37549,10.8756,5.40452.00423.01935-1.99728.46891-4.44829.99677-2.45093.52792-4.47391.972-4.48692,1.00528-.01513.02365,4.78254,1.49676,10.67252,3.27789,5.89755,1.7694,12.16888,3.66979,13.96146,4.20971,1.78071.53235,3.22861.93482,3.218.88644s-2.83228-2.08717-6.272-4.53811C118.40342,264.23566,115.58177,262.19687,115.57543,262.16784Z"/><polygon class="cls-1" points="170.553 257.2 170.721 239.255 169.421 238.439 163.464 239.802 163.826 241.383 167.909 241.409 168.13 257.758 167.554 260.009 168.437 260.694 175.274 259.13 174.457 256.871 170.553 257.2"/><path class="cls-1" d="M175.91151,236.95422l3.462,21.23793,2.25883-.51675-.87908-6.7968,1.68034-1.32728,2.7475,7.31232,1.73091-.396-5.99765-20.65787Zm4.69157,11.61539-2.29475-10.03155c-.00845-.037-.00484-.05356.00688-.0676l1.02526-.49917,2.16179,10.2334Z"/><polygon class="cls-1" points="159.526 260.549 158.499 240.937 152.04 242.415 152.579 244.77 156.093 243.49 156.089 262.303 156.984 263.314 163.819 261.75 163.403 259.933 159.526 260.549"/><polygon class="cls-1" points="143.785 244.303 144.153 245.912 144.987 247.176 149.092 265.119 151.701 264.522 147.177 243.527 143.785 244.303"/><polygon class="cls-1" points="137.041 239.104 133.597 239.485 133.149 239.052 129.124 221.454 126.512 222.051 131.301 242.986 137.6 241.545 137.041 239.104"/><polygon class="cls-1" points="140.522 218.846 137.13 219.622 137.498 221.23 138.332 222.495 142.437 240.438 145.046 239.841 140.522 218.846"/><path class="cls-1" d="M117.45272,234.99966l3.5275.10678,2.32125,7.14305-3.982.91084.55778,2.43839,4.35915-.99717a2.11377,2.11377,0,0,0,1.25886-.94655,1.88791,1.88791,0,0,0,.37439-1.49839l-2.204-9.63487-3.88908-.11456-1.77118-5.87771,3.95137-1.478-.42564-1.86092-5.0507,1.15541a1.28293,1.28293,0,0,0-.85625.75955,1.71842,1.71842,0,0,0-.17125,1.15208Z"/><path class="cls-1" d="M139.7,246.97541a1.44568,1.44568,0,0,0-1.14689-1.00352l-.00014-.00014a4.09778,4.09778,0,0,0-2.06291.00028l-4.44583,1.017.27844,1.21722.71267.20075,4.43132,19.37149,2.15055-.492-2.01671-8.8161,1.28721-.29439a3.85437,3.85437,0,0,0,1.89629-.91186,2.50916,2.50916,0,0,0,.74143-1.21872,2.27286,2.27286,0,0,0,.033-.94572Zm-2.11258,9.20446a.15425.15425,0,0,1-.0873-.00764l-.00143-.00068-1.85922-8.12762a.56129.56129,0,0,1,.10426-.03271l.48963-.112a1.07184,1.07184,0,0,1,.776.04164.75584.75584,0,0,1,.35177.42421l1.36033,7.2621Z"/><path class="cls-1" d="M149.96906,236.58289a1.78788,1.78788,0,0,0,1.16086,1.2898,4.12034,4.12034,0,0,0,2.452.01594l4.35977-.99731-1.21028-5.29085-2.2116.50592-.06651,2.55288a.68116.68116,0,0,1-.11585.03557l-1.636.37426-3.84875-14.18763-.03305-.12137-.076-.02869a.95094.95094,0,0,1-.06085-.1951,1.85415,1.85415,0,0,1,.0141-.92842.6157.6157,0,0,1,.50864-.45535l1.2098-.27674a.33345.33345,0,0,1,.10882-.01131l.00184.00722,1.10826,3.42461,2.33148-.53338-.38387-3.92214-.429-1.88382-4.9647,1.13565a3.06863,3.06863,0,0,0-1.728.932,1.67313,1.67313,0,0,0-.39259,1.5031Z"/><polygon class="cls-1" points="165.621 235.135 163.477 225.765 163.659 225.544 167.337 234.742 169.352 234.281 169.843 233.348 165.258 223.878 166.2 222.722 164.697 213.234 161.892 214.715 163.91 222.064 162.651 223.741 160.487 214.279 158.992 214.621 158.129 215.202 163.216 235.685 165.621 235.135"/><path class="cls-2" d="M178.31521,238.47046c-.01172.014-.01533.0306-.00688.0676l2.29475,10.03155.89918-.36492-2.16179-10.2334Z"/><path class="cls-2" d="M137.00928,247.94083a1.07184,1.07184,0,0,0-.776-.04164l-.48963.112a.56129.56129,0,0,0-.10426.03271l1.85922,8.12762.00143.00068a.15425.15425,0,0,0,.0873.00764l1.134-.55273-1.36033-7.2621A.75584.75584,0,0,0,137.00928,247.94083Z"/><path class="cls-2" d="M446.43523,294.55341c-1.86638-18.62787-14.62492-31.0619-33.42084-32.50591a59.25978,59.25978,0,0,0-6.0675.074c-1.82515.048-3.697.67962-5.718-.41439,12.52494-5.67778,25.14058-4.73321,38.82072-1.45519-7.71077-9.27-16.10791-14.85968-27.04818-16.20249-11.41164-1.4006-21.71086,1.92266-31.27758,7.67533-3.06888,1.84539-4.11615,1.47114-5.53747-1.69417-5.86981-13.07249-13.026-25.309-23.573-35.35625a19.87183,19.87183,0,0,1-6.389-13.78121c-.09288-2.18135.0109-3.42964,3.06254-2.37284,2.81763.97578,6.78815,1.69118,7.58314-2.80624a22.92972,22.92972,0,0,0-4.24385-18.39693c-1.23569-1.63516-3.2124-3.37833-5.11973-1.3867-2.0161,2.1053-3.09035,1.15316-5.05745.04572-6.4282-3.61895-11.23446-2.57843-15.90953,2.938a3.07938,3.07938,0,0,1-2.42463,1.54146c-8.27025.91084-16.48449,2.31594-24.73341,3.439-1.86958.2546-4.41721,1.86775-5.52853-.46884-1.11589-2.346-2.46164-5.00259-.9918-7.9503a46.70339,46.70339,0,0,0,3.33547-8.18991c1.52279-5.46652,1.84464-11.17483-1.26349-16.08229-1.50466-2.37583-.69536-3.64069.23817-5.36423,1.283-2.36882,3.04284-1.20107,4.80571-.67035q10.91931,3.28684,21.88095,6.43324c1.3067.37739,3.1232,1.73451,3.91376-.13936,3.41049-8.08462,10.481-13.51237,13.08761-22.86934,3.17942-11.41321,2.41107-22.29869,1.53083-33.18506-1.15425-14.27492-12.48984-24.9144-26.51473-27.86593-10.29684-2.167-20.30951-.59171-30.26194,2.11566-15.45194,4.20337-21.88116,14.076-19.62819,29.79309,1.57076,10.95813,5.78013,20.93209,10.32961,30.9126,2.07573,4.55364,2.56563,9.74309,9.21217,9.85382,1.267.02113,1.6524,1.21988,1.19078,2.51881a2.62265,2.62265,0,0,1-3.33411,2.00165c-2.55131-.38148-4.95257-1.60279-7.6523-1.20087-9.80115,1.45928-22.7629,12.81142-24.46375,22.76481-1.3131,7.68453-5.35211,11.81574-12.48821,13.76941-11.97315,3.278-17.23483,11.90413-18.91279,23.49526-.44036,3.042.50374,3.8,3.46972,3.849,4.62628.07646,9.24316.71178,13.86414,1.10928,2.23361.19217,2.57972.96576,1.64981,3.16312a45.636,45.636,0,0,0-3.93182,16.54466c-2.53277-1.09381-4.03914-4.59017-7.33719-1.45641-8.25812,7.84679-9.27254,18.57915-2.10142,27.47286,2.58239,3.20279,5.45235,6.17538,8.10173,9.1526-8.58726,4.202-8.62018,4.21026-10.98559-5.031-5.08879-19.88067-10.2935-39.73415-15.09812-59.6831-1.18751-4.93083-2.92189-5.71662-7.83869-4.55418Q134.568,209.0487,71.31811,223.29315c-4.11111.93074-4.29755,2.39628-3.35346,5.97946,5.27572,20.02323,10.27476,40.11876,15.38795,60.18465.6527,2.56126,1.70433,5.15455-2.50382,5.61365A1.72871,1.72871,0,0,0,79.332,297.4952a2.07272,2.07272,0,0,0,2.90281,1.66937c1.074-.28689,2.17937-.456,3.25833-.72671,21.049-5.28164,42.18365-10.25731,63.09018-16.05025,6.208-1.72021,10.84242.80677,15.78326,2.80018,3.81379,1.53866,6.9718,9.26436,5.67226,13.04141-1.36762,3.97474-5.15946.979-7.6739,1.99238-1.875.75574-4.01843.8966-5.82865,1.75748-6.9748,3.31687-8.81474,10.56234-3.65957,16.214,2.18741,2.39812,1.46684,3.66481.46809,5.96276-3.97011,9.13454-8.62263,18.11712-9.24978,28.29907-.3365,5.46291,2.28507,7.33283,7.23409,5.09424,7.20357-3.25833,15.06644-3.84615,22.49775-6.11895,2.06625-.63192,3.16074-.40881,3.57983,2.38183,2.1068,14.03007,10.75369,22.62538,23.75054,27.45126,1.80246.66926,4.08882.27027,5.36778,2.21106H216.5678c.24062-.85713.92644-.93441,1.67939-1.08638,20.08476-4.05467,32.438-22.60418,28.66174-42.61992-.32588-1.72749-2.9666-4.1325-.62265-5.24532,2.99194-1.4205,6.91013-3.82264,9.91883-1.57751,4.052,3.02363,7.84209,2.51261,12.061,1.52231q35.47585-8.32725,70.96485-16.59787a35.12794,35.12794,0,0,0,18.4462-10.72705c1.00263-1.09435,1.53621-4.38471,4.63378-.89455,1.0949,1.23371,5.84126-2.7734,7.774-5.725,1.57145-2.39983,2.69074-5.09363,4.71249-9.02033.26945,4.67017.19456,7.90062.68051,11.045,2.75023,17.796,17.4807,30.7376,34.80141,30.73153a36.933,36.933,0,0,0,36.03185-30.45377c.238-1.29886-.7154-3.07685,1.24073-3.8531v-2.22374C446.34,296.43969,446.52437,295.44326,446.43523,294.55341Zm-287.443-79.93223,1.49444-.34182,2.16431,9.46124,1.2592-1.67666-2.018-7.34844,2.80481-1.48177,1.50255,9.48829-.94136,1.156,4.5843,9.46975-.49024.9334-2.01514.461-3.67824-9.19832-.18161.22079,2.14346,9.37012-2.4048.55014-5.08743-20.483Zm-12.532,3.40341a3.06863,3.06863,0,0,1,1.728-.932l4.9647-1.13565.429,1.88382.38387,3.92214-2.33148.53338-1.10826-3.42461-.00184-.00722a.33345.33345,0,0,0-.10882.01131l-1.2098.27674a.6157.6157,0,0,0-.50864.45535,1.85415,1.85415,0,0,0-.0141.92842.95094.95094,0,0,0,.06085.1951l.076.02869.03305.12137,3.84875,14.18763,1.636-.37426a.68116.68116,0,0,0,.11585-.03557l.06651-2.55288,2.2116-.50592,1.21028,5.29085-4.35977.99731a4.12034,4.12034,0,0,1-2.452-.01594,1.78788,1.78788,0,0,1-1.16086-1.2898l-3.90142-17.0552A1.67313,1.67313,0,0,1,146.46023,218.02459Zm-30.836,7.0809a1.28293,1.28293,0,0,1,.85625-.75955l5.0507-1.15541.42564,1.86092-3.95137,1.478,1.77118,5.87771,3.88908.11456,2.204,9.63487a1.88791,1.88791,0,0,1-.37439,1.49839,2.11377,2.11377,0,0,1-1.25886.94655l-4.35915.99717-.55778-2.43839,3.982-.91084-2.32125-7.14305-3.5275-.10678-1.99974-8.74209A1.71842,1.71842,0,0,1,115.62423,225.10549Zm9.273,45.23284c-1.79258-.53992-8.06391-2.44031-13.96146-4.20971-5.89-1.78113-10.68765-3.25424-10.67252-3.27789.013-.03325,2.036-.47736,4.48692-1.00528,2.451-.52786,4.45252-.97742,4.44829-.99677-.0064-.029-4.90159-2.45469-10.8756-5.40452-5.972-2.94008-10.85529-5.35824-10.84991-5.3797.01724-.0139,2.25651-.5359,4.98392-1.14478,2.72535-.61856,4.93335-1.1439,4.91522-1.18043-.04177-.05172-7.12615-4.26947-17.45924-10.3917l-2.461-1.45845,1.33034-.27177c.72807-.14971,2.11859-.42448,3.0853-.59614.96679-.17166,3.61869-.66244,5.88883-1.08979l4.12412-.7633,10.52785,6.87081,10.52029,6.88259-.58735.18986c-.32062.11094-2.33624.63457-4.47991,1.17619-2.14359.54156-3.90755,1.01-3.93235,1.03569-.0227.03543,3.96711,2.58886,8.85732,5.68527l8.89726,5.63587-1.24557.33432c-.68841.19169-2.0565.52247-3.06315.7434a16.70047,16.70047,0,0,0-1.7994.44574c.00634.029,2.828,2.06782,6.26772,4.51882,3.43973,2.45094,6.26138,4.48973,6.272,4.53811S126.67789,270.87068,124.89718,270.33833Zm1.61485-48.28714,2.61148-.59743,4.02572,17.59846.44772.43253,3.44429-.38108.55839,2.441-6.29879,1.44087Zm15.01335,33.99429a2.50916,2.50916,0,0,1-.74143,1.21872,3.85437,3.85437,0,0,1-1.89629.91186l-1.28721.29439,2.01671,8.8161-2.15055.492L133.03529,248.407l-.71267-.20075-.27844-1.21722,4.44583-1.017a4.09778,4.09778,0,0,1,2.06291-.00028l.00014.00014A1.44568,1.44568,0,0,1,139.7,246.97541l1.85848,8.12435A2.27286,2.27286,0,0,1,141.52538,256.04548Zm-3.19291-33.55086-.83465-1.26424-.36785-1.60811,3.39216-.776,4.52346,20.99506-2.60842.59669ZM149.092,265.11917l-4.10463-17.94348-.83458-1.2637-.368-1.60865,3.39217-.776,4.52359,20.99506Zm7.89225-1.80539-.89489-1.01087.00334-18.81282-3.51395,1.27971L152.04,242.415l6.45948-1.47768,1.02668,19.61218,3.87723-.61652.41576,1.81732Zm11.45286-2.61993-.88344-.68514.57679-2.25058-.22155-16.34935-4.083-.02535-.36186-1.58181,5.95745-1.36278,1.29947.81639-.16825,17.94485,3.90428-.32874.81755,2.25843Zm16.744-3.83021-2.7475-7.31232-1.68034,1.32728.87908,6.7968-2.25883.51675-3.462-21.23793,5.00286-1.14444,5.99765,20.65787ZM213.523,362.50274a11.82957,11.82957,0,0,1-.41187-23.65534,11.83425,11.83425,0,1,1,.41187,23.65534Zm76.16281-61.676c-.207,2.19436-.5836,4.37285-.99486,7.38653-9.53749-7.33433-15.93243-16.12-17.41283-27.91479-1.188-9.465,1.1056-18.36068,5.40717-26.79a7.21893,7.21893,0,0,1,3.75143-3.726c8.18759-3.61023,9.21168-8.46126,3.29321-16.05789l16.46166-3.69085c.56111,2.28745-.72235,3.82183-1.34663,5.42714-3.66093,9.41408-6.02069,18.98946-5.15864,29.21965C294.72149,276.96551,290.82484,288.754,289.68585,300.82672Zm19.26095,1.98079c-1.1826,4.08221-3.59081.08375-5.33541.77182a27.23615,27.23615,0,0,1-3.764.8831c-1.07091.25228-2.13473.5344-3.55537.89251-1.803-7.04833,6.6986-9.32658,6.9626-15.77883.256-6.257,3.02234-12.412,5.03414-19.90861,2.03074,9.75065-.4332,18.42221,2.27334,26.84688C311.12359,298.26191,309.55821,300.6969,308.9468,302.80751Zm35.95594-4.26668c-2.72958,1.15235-5.50775,2.18987-8.24756,3.31891-3.38562,1.39515-6.32039,2.762-9.91822-.54673-3.07167-2.82485-7.00955-.047-10.5085.80051-1.14764-4.30226-1.17108-5.25119-.26393-10.59144,1.7887.07428,1.544,2.38783,3.32361,2.79814,1.74781-3.33111,1.1563-7.10632,1.5-10.64207,1.84464-18.974,3.17512-38.01857,1.248-57.03365-1.2718-12.54845-3.60975-14.46744-15.7975-17.13664-.86293-.189-1.71346-.43477-2.56869-.65856-.00491.02944-.01261.05785-.01738.08736-.03986-.00007-.07966-.00068-.11952-.00075-.07108,4.091-1.96226,5.60493-6.32265,5.95-6.71625.53134-13.33423.80637-19.81627-1.01346-2.80359-.78709-3.68335.18385-4.22811,2.54865-1.28066,5.5588-2.63826,11.09994-3.92963,16.65635-.28117,1.20993-.04068,2.67534-2.0058,2.65816-2.26667-.01989-2.15927-1.60817-2.08159-3.07651a31.57007,31.57007,0,0,0-2.78546-15.56553c-1.9288-4.09169,2.412-4.26191,4.48891-5.00579,6.46643-2.31608,13.31672-2.89348,20.14364-3.13117,5.50584-.19176,11.02416-.02971,16.537-.02065.00074-.04307.008-.07721.00838-.12089.04293.01111.08566.023.12852.03428.61461-3.66509,2.247-6.95292,3.81044-10.27156a54.53614,54.53614,0,0,0,3.34712-7.59336c.70129-2.38081.69516-4.96844,1.07248-8.0487,2.6029,2.0473,2.70076,4.56509,2.99958,6.958,1.14689,9.18558,3.6105,11.2472,12.9041,10.19632,2.06325-.23333,2.57973,1.04352,3.41929,2.13638,4.06122,5.28641,8.10826,10.58482,12.06563,15.94831.722.9785,2.73735,2.08478.60766,3.55776-7.15327,4.94773-6.08032,11.97029-4.93506,19.03048,1.25661,7.74627,4.81117,14.72,7.49686,21.98051a92.87409,92.87409,0,0,1,5.77584,23.0423C353.01121,293.59453,351.93628,295.57158,344.90274,298.54083Zm66.64944,16.153c-8.2928-.11476-15.26167-7.16922-15.11625-15.30195a15.42771,15.42771,0,0,1,15.40069-15.029c8.52723.00259,15.70824,7.26422,15.41146,15.58448A15.48516,15.48516,0,0,1,411.55218,314.69379Z"/><path class="cls-2" d="M303.533,208.93591c.03986.00007.07966.00068.11952.00075.00477-.02951.01247-.05792.01738-.08736-.04286-.01125-.08559-.02317-.12852-.03428C303.54107,208.8587,303.53377,208.89284,303.533,208.93591Z"/><path class="cls-2" d="M122.83379,204.43529c25.11536-5.82443,50.22138-11.69,75.36018-17.41209,2.86642-.6525,4.05032-1.20673,3.0847-4.61831-1.91654-6.77138-9.84879-11.87053-16.8503-10.13431Q132.0432,185.26085,79.67763,198.329c-4.81567,1.20782-12.53025.73734-7.11082,9.44706.05343,3.19325-2.72978,2.05126-4.02435,2.96646-1.5985,1.13013-5.25064-.43546-4.24815,4.0142,1.05851,4.69845,3.9509,2.24261,5.92726,1.8002C87.78358,212.6256,105.302,208.501,122.83379,204.43529Z"/><path class="cls-2" d="M2.44806,179.15965A1346.48209,1346.48209,0,0,0,189.769,132.25247C126.285,143.63385,63.95767,159.665,2.44806,179.15965Z"/><path class="cls-2" d="M51.86035,136.61721C110.65169,126.6671,168.20353,111.90636,224.8296,93.419A1111.383,1111.383,0,0,0,51.86035,136.61721Z"/><path class="cls-2" d="M210.18008,150.45586a300.26552,300.26552,0,0,0-92.3822,23.13634A336.71871,336.71871,0,0,0,210.18008,150.45586Z"/></svg>