<svg id="Capa_1" data-name="Capa 1" xmlns="http://www.w3.org/2000/svg" viewBox="0 0 450 450"><defs><style>.cls-1{fill:none;}</style></defs><path class="cls-1" d="M298.845,235.46088c.62433-1.60535,1.90778-3.13971,1.34668-5.42719-5.4433,1.22046-10.817,2.42529-16.46167,3.69086,5.91846,7.59662,4.89435,12.44769-3.29321,16.05792a7.2188,7.2188,0,0,0-3.75147,3.726c-4.30157,8.42926-6.59515,17.325-5.40716,26.79,1.4804,11.79474,7.87536,20.58045,17.41284,27.9148.41125-3.01374.78784-5.1922.99487-7.38654,1.139-12.07275,5.03565-23.8612,4.00049-36.14624C292.82434,254.45032,295.18408,244.87494,298.845,235.46088Z"/><path class="cls-1" d="M308.28882,269.66748c-2.01184,7.49664-4.7782,13.65167-5.03418,19.90863-.264,6.45221-8.76557,8.73047-6.96259,15.77881,1.42066-.35809,2.48444-.6402,3.55536-.89252a27.2395,27.2395,0,0,0,3.764-.88305c1.74463-.68811,4.15283,3.31036,5.33539-.77185.61145-2.1106,2.17682-4.5456,1.61535-6.29316C307.85559,288.08972,310.31952,279.41815,308.28882,269.66748Z"/><path class="cls-1" d="M213.11115,338.84741a11.82957,11.82957,0,0,0,.41192,23.65534,11.83425,11.83425,0,1,0-.41192-23.65534Z"/><path class="cls-1" d="M286.99609,208.95654c-6.827.23767-13.67724.81507-20.14367,3.13117-2.077.74389-6.41773.91412-4.48889,5.0058a31.57014,31.57014,0,0,1,2.78546,15.56555c-.0777,1.46832-.18506,3.05658,2.0816,3.07647,1.96509.01722,1.72461-1.44824,2.0058-2.65814,1.29132-5.55639,2.64892-11.09753,3.92963-16.65637.54473-2.36481,1.4245-3.33569,4.22808-2.54864,6.48206,1.81982,13.1,1.5448,19.81629,1.01348,4.36035-.345,6.25159-1.85894,6.32263-5.95C298.0202,208.92682,292.50189,208.76477,286.99609,208.95654Z"/><path class="cls-1" d="M411.83661,284.36279a15.42778,15.42778,0,0,0-15.4007,15.02906c-.14538,8.13269,6.82349,15.18719,15.11628,15.30194a15.48518,15.48518,0,0,0,15.69592-14.74652C427.54486,291.627,420.36383,284.36542,411.83661,284.36279Z"/><path class="cls-1" d="M346.458,262.74347c-2.68567-7.26056-6.24024-14.23425-7.49683-21.98053-1.14526-7.06018-2.2182-14.08276,4.93506-19.03046,2.1297-1.473.11432-2.57928-.60767-3.5578-3.95739-5.36346-8.00439-10.66186-12.06561-15.9483-.8396-1.09284-1.35608-2.36969-3.41931-2.13635-9.29358,1.05084-11.7572-1.01075-12.90411-10.19635-.29883-2.39295-.39667-4.91071-2.99958-6.958-.37732,3.08026-.37115,5.66791-1.07245,8.04871a54.53369,54.53369,0,0,1-3.34716,7.59332c-1.56342,3.31866-3.1958,6.6065-3.81043,10.2716.85523.22376,1.70575.46955,2.56873.65857,12.18774,2.66919,14.52569,4.58814,15.79748,17.1366,1.92719,19.01508.59668,38.05969-1.248,57.03369-.34369,3.53571.2478,7.31091-1.5,10.642-1.77967-.41028-1.53492-2.72382-3.32361-2.7981-.90717,5.34021-.88373,6.28913.26391,10.59144,3.499-.84754,7.43683-3.62537,10.50849-.80054,3.59784,3.30871,6.53259,1.94189,9.91827.54675,2.73975-1.129,5.51795-2.16656,8.2475-3.31891,7.03357-2.96924,8.10852-4.94629,7.33118-12.75506A92.87548,92.87548,0,0,0,346.458,262.74347Z"/><path d="M178.31519,238.47046c-.01172.014-.01532.03058-.00684.06756l2.29474,10.03156.89917-.36493-2.16181-10.2334Z"/><path d="M137.00928,247.9408a1.072,1.072,0,0,0-.776-.04163l-.48963.11206a.55685.55685,0,0,0-.10425.03272l1.85926,8.12756.0014.00073a.15507.15507,0,0,0,.08728.00763l1.134-.55273-1.36035-7.26209A.75591.75591,0,0,0,137.00928,247.9408Z"/><path d="M446.43524,294.55341c-1.86639-18.62787-14.62494-31.06189-33.42084-32.50592a59.26842,59.26842,0,0,0-6.0675.074c-1.82513.048-3.697.67963-5.718-.41437,12.525-5.67779,25.14063-4.73321,38.82074-1.4552-7.71075-9.27-16.10791-14.85968-27.04816-16.20245-11.41168-1.40064-21.71087,1.92267-31.27758,7.67529-3.06891,1.8454-4.11615,1.47113-5.53748-1.69415-5.86981-13.07251-13.026-25.309-23.573-35.35626a19.87163,19.87163,0,0,1-6.389-13.78119c-.0929-2.18134.01092-3.42963,3.06256-2.37287,2.81762.97577,6.78814,1.69117,7.58313-2.80621a22.92977,22.92977,0,0,0-4.2439-18.397c-1.23566-1.63513-3.21234-3.3783-5.11969-1.38666-2.01611,2.10529-3.09033,1.15314-5.05743.04572-6.42823-3.619-11.2345-2.57843-15.90955,2.938a3.07935,3.07935,0,0,1-2.42462,1.54145c-8.27027.91083-16.4845,2.31592-24.7334,3.439-1.86963.25464-4.41724,1.86774-5.52856-.46881-1.11591-2.346-2.46161-5.00262-.99183-7.95032a46.70435,46.70435,0,0,0,3.33551-8.18988c1.52277-5.46655,1.84461-11.17486-1.26348-16.08233-1.5047-2.3758-.69538-3.64069.23815-5.3642,1.283-2.36884,3.04285-1.20111,4.80573-.67035q10.91931,3.28683,21.88092,6.43323c1.3067.37738,3.12323,1.7345,3.91376-.13934,3.41052-8.08466,10.481-13.51239,13.08764-22.86939,3.17939-11.41321,2.41108-22.29864,1.53083-33.18506-1.1543-14.2749-12.48987-24.91437-26.51477-27.8659-10.29682-2.167-20.30951-.59174-30.26191,2.11566-15.452,4.20337-21.88116,14.076-19.62823,29.79309,1.5708,10.95813,5.78015,20.93207,10.32965,30.9126,2.07574,4.55365,2.56561,9.7431,9.21216,9.85382,1.267.02112,1.6524,1.21991,1.19079,2.5188a2.62265,2.62265,0,0,1-3.3341,2.00164c-2.55133-.38147-4.95258-1.60278-7.65235-1.20086-9.80114,1.45929-22.76287,12.8114-24.46374,22.76483-1.31311,7.68451-5.35211,11.81573-12.48816,13.76941-11.97321,3.27795-17.23486,11.90411-18.91284,23.49524-.44031,3.042.50378,3.8,3.46972,3.849,4.62629.07647,9.24317.71179,13.86414,1.10931,2.23364.19214,2.57977.96576,1.64984,3.16315a45.63493,45.63493,0,0,0-3.93182,16.54461c-2.53278-1.09381-4.03913-4.59014-7.33722-1.45642-8.25812,7.8468-9.27252,18.57917-2.10138,27.4729,2.5824,3.20276,5.45233,6.17536,8.10168,9.15259-8.58722,4.202-8.62017,4.21027-10.98553-5.031-5.08881-19.88068-10.29352-39.73414-15.09815-59.68311-1.1875-4.93085-2.92187-5.71661-7.83868-4.5542Q134.568,209.0487,71.31812,223.29315c-4.11109.93073-4.29755,2.39624-3.35346,5.97943,5.2757,20.02326,10.27472,40.11878,15.38794,60.1847.65271,2.56121,1.70435,5.15454-2.50385,5.61364a1.72869,1.72869,0,0,0-1.51678,2.42426,2.07273,2.07273,0,0,0,2.90283,1.66937c1.074-.28686,2.17938-.45593,3.2583-.72668,21.04908-5.28168,42.18366-10.25733,63.09021-16.0503,6.208-1.72021,10.84241.80683,15.78327,2.80017,3.81378,1.5387,6.9718,9.26441,5.67224,13.04145-1.36762,3.97473-5.15943.979-7.67389,1.99237-1.87506.75573-4.01843.8966-5.82868,1.7575-6.97479,3.31684-8.81469,10.56232-3.65954,16.214,2.18744,2.39814,1.46686,3.6648.46808,5.96277-3.9701,9.13452-8.62262,18.11713-9.24976,28.29908-.33649,5.46289,2.285,7.33282,7.23407,5.09423,7.20355-3.2583,15.06647-3.84613,22.49774-6.11895,2.06629-.6319,3.16077-.40882,3.57984,2.38183,2.10681,14.03009,10.75372,22.62537,23.75055,27.4513,1.80249.66925,4.0888.27026,5.36779,2.21106h10.04279c.2406-.85718.92645-.93445,1.67938-1.08643,20.08478-4.05469,32.43805-22.60419,28.66175-42.61987-.32587-1.72754-2.96662-4.13251-.62269-5.24536,2.992-1.42048,6.91016-3.82264,9.91889-1.57752,4.052,3.02362,7.842,2.51263,12.061,1.52234q35.47587-8.32727,70.96485-16.5979a35.12782,35.12782,0,0,0,18.44623-10.727c1.00262-1.09436,1.53619-4.38471,4.63372-.89453,1.09491,1.2337,5.84131-2.77338,7.77405-5.725,1.57141-2.39984,2.69074-5.09363,4.71246-9.02038.26947,4.67022.19458,7.90063.68055,11.045,2.75018,17.796,17.48071,30.73761,34.80139,30.73151a36.933,36.933,0,0,0,36.03186-30.45374c.238-1.29889-.71539-3.07684,1.24072-3.85309v-2.22375C446.34,296.4397,446.52435,295.44324,446.43524,294.55341Zm-287.443-79.93226,1.49444-.34179,2.16431,9.46124,1.25922-1.6767-2.018-7.34845,2.80481-1.48175,1.50256,9.48828-.9414,1.156,4.58435,9.46973-.4903.93341-2.01513.461-3.67823-9.19837-.18158.22083,2.14344,9.37011-2.40479.55018-5.08746-20.483Zm-12.532,3.40345a3.06921,3.06921,0,0,1,1.728-.932l4.96466-1.13562.429,1.88379.38385,3.92218-2.33148.53339L150.526,218.8717l-.00183-.0072a.33086.33086,0,0,0-.10883.01129l-1.20977.27674a.61573.61573,0,0,0-.50867.45532,1.85468,1.85468,0,0,0-.0141.92847.95293.95293,0,0,0,.06085.19506l.076.02869.03308.1214,3.8487,14.18762,1.636-.37427a.67754.67754,0,0,0,.11585-.03558l.06653-2.55286,2.21161-.50592,1.21026,5.29084-4.35974.99731a4.12027,4.12027,0,0,1-2.452-.01593,1.78789,1.78789,0,0,1-1.16088-1.28979l-3.90143-17.05524A1.67313,1.67313,0,0,1,146.46021,218.0246Zm-30.836,7.08087a1.283,1.283,0,0,1,.85626-.75952l5.05072-1.15546.4256,1.861-3.95136,1.478,1.77118,5.87769,3.8891.11456,2.204,9.63489a1.888,1.888,0,0,1-.37439,1.49835,2.11338,2.11338,0,0,1-1.25885.94653l-4.35919.99719-.55774-2.43835,3.98193-.91089-2.32123-7.143-3.52752-.10682-1.9997-8.74206A1.71839,1.71839,0,0,1,115.62421,225.10547Zm9.27295,45.23285c-1.79255-.53992-8.06391-2.44031-13.96143-4.20972-5.89-1.78113-10.68768-3.25421-10.67255-3.27789.013-.03327,2.036-.47736,4.48694-1.00525,2.451-.52789,4.45252-.97742,4.44831-.99683-.00641-.029-4.90162-2.45465-10.87562-5.40448-5.972-2.94006-10.85528-5.35821-10.84991-5.3797.01721-.01391,2.25653-.53589,4.98389-1.14477,2.7254-.61859,4.93341-1.14392,4.91528-1.18042-.04181-.05176-7.12616-4.26947-17.45929-10.39173l-2.46094-1.45843,1.33033-.27179c.72808-.14972,2.11859-.4245,3.08532-.59613.9668-.17169,3.61872-.66248,5.88886-1.08978l4.12408-.76331,10.52783,6.87079,10.52033,6.88263-.58734.18982c-.32062.111-2.33625.63458-4.47992,1.17621-2.14362.54156-3.90753,1.01-3.93237,1.0357-.02271.0354,3.9671,2.58887,8.85736,5.68524l8.89721,5.63587-1.24554.33435c-.68842.19165-2.05652.52246-3.06317.74341a16.6867,16.6867,0,0,0-1.79938.44574c.00635.029,2.828,2.06781,6.2677,4.5188,3.43976,2.45092,6.26141,4.48974,6.272,4.53808C128.12579,271.27313,126.67792,270.87067,124.89716,270.33832Zm1.61486-48.28711,2.61152-.59747,4.02569,17.59845.44769.43255,3.44434-.3811.55835,2.441-6.29877,1.44091Zm15.01337,33.99426a2.50914,2.50914,0,0,1-.74145,1.21869,3.85389,3.85389,0,0,1-1.89631.91187l-1.28717.29443,2.01673,8.8161-2.15058.49194L133.03528,248.407l-.71265-.20074-.27844-1.21723,4.4458-1.017a4.09817,4.09817,0,0,1,2.06293-.00024l.00012.00012A1.44574,1.44574,0,0,1,139.7,246.9754l1.85846,8.12433A2.27237,2.27237,0,0,1,141.52539,256.04547Zm-3.19293-33.55084-.83466-1.26428-.36786-1.6081,3.39222-.776,4.52343,20.99506-2.6084.59674ZM149.092,265.11914l-4.10468-17.94348-.83453-1.26367-.368-1.60865,3.39221-.776,4.52356,20.99506Zm7.89221-1.80536-.8949-1.01086.00336-18.81287-3.514,1.27973-.53863-2.35486,6.45947-1.47766,1.02667,19.61218,3.8772-.61652.41577,1.81732Zm11.45288-2.61993-.88342-.68518.57678-2.25055-.22156-16.34937-4.083-.02533-.36188-1.58178,5.95746-1.3628,1.29944.81635-.16822,17.94488,3.90424-.32873.81757,2.25842Zm16.744-3.8302-2.7475-7.31232-1.68029,1.32727.879,6.79675-2.25878.51679-3.462-21.23792,5.00287-1.14447,5.99768,20.6579Zm28.342,105.6391a11.82957,11.82957,0,0,1-.41192-23.65534,11.83425,11.83425,0,1,1,.41192,23.65534Zm76.16278-61.676c-.207,2.19434-.58362,4.3728-.99487,7.38654-9.53748-7.33435-15.93244-16.12006-17.41284-27.9148-1.188-9.465,1.10559-18.36072,5.40716-26.79a7.2188,7.2188,0,0,1,3.75147-3.726c8.18756-3.61023,9.21167-8.4613,3.29321-16.05792,5.64471-1.26557,11.01837-2.4704,16.46167-3.69086.5611,2.28748-.72235,3.82184-1.34668,5.42719-3.66089,9.41406-6.02063,18.98944-5.15863,29.2196C294.7215,276.96552,290.82483,288.754,289.68585,300.82672Zm19.26093,1.98078c-1.18256,4.08221-3.59076.08374-5.33539.77185a27.2395,27.2395,0,0,1-3.764.88305c-1.07092.25232-2.1347.53443-3.55536.89252-1.803-7.04834,6.69861-9.3266,6.96259-15.77881.256-6.257,3.02234-12.412,5.03418-19.90863,2.0307,9.75067-.43323,18.42224,2.27331,26.84686C311.1236,298.2619,309.55823,300.6969,308.94678,302.8075Zm35.95593-4.26667c-2.72955,1.15235-5.50775,2.18988-8.2475,3.31891-3.38568,1.39514-6.32043,2.762-9.91827-.54675-3.07166-2.82483-7.00952-.047-10.50849.80054-1.14764-4.30231-1.17108-5.25123-.26391-10.59144,1.78869.07428,1.54394,2.38782,3.32361,2.7981,1.7478-3.33112,1.15631-7.10632,1.5-10.642,1.84466-18.974,3.17517-38.01861,1.248-57.03369-1.27179-12.54846-3.60974-14.46741-15.79748-17.1366-.863-.189-1.7135-.43481-2.56873-.65857-.00488.02942-.01257.05787-.01739.08735-.03986-.00007-.07965-.00068-.11951-.00074-.071,4.091-1.96228,5.60492-6.32263,5.95-6.71625.53132-13.33423.80634-19.81629-1.01348-2.80358-.787-3.68335.18383-4.22808,2.54864-1.28071,5.55884-2.63831,11.1-3.92963,16.65637-.28119,1.2099-.04071,2.67536-2.0058,2.65814-2.26666-.01989-2.1593-1.60815-2.0816-3.07647a31.57014,31.57014,0,0,0-2.78546-15.56555c-1.92884-4.09168,2.41192-4.26191,4.48889-5.0058,6.46643-2.3161,13.31671-2.8935,20.14367-3.13117,5.5058-.19177,11.02411-.02972,16.53693-.02063.00073-.04309.00806-.07721.00836-.12091.043.01111.0857.023.12854.0343.61463-3.6651,2.247-6.95294,3.81043-10.2716a54.53369,54.53369,0,0,0,3.34716-7.59332c.7013-2.3808.69513-4.96845,1.07245-8.04871,2.60291,2.0473,2.70075,4.56506,2.99958,6.958,1.14691,9.1856,3.61053,11.24719,12.90411,10.19635,2.06323-.23334,2.57971,1.04351,3.41931,2.13635,4.06122,5.28644,8.10822,10.58484,12.06561,15.9483.722.97852,2.73737,2.08478.60767,3.5578-7.15326,4.9477-6.08032,11.97028-4.93506,19.03046,1.25659,7.74628,4.81116,14.72,7.49683,21.98053a92.87548,92.87548,0,0,1,5.77588,23.0423C353.01123,293.59454,351.93628,295.57159,344.90271,298.54083Zm66.64948,16.153c-8.29279-.11475-15.26166-7.16925-15.11628-15.30194a15.42778,15.42778,0,0,1,15.4007-15.02906c8.52722.00263,15.70825,7.26422,15.4115,15.58448A15.48518,15.48518,0,0,1,411.55219,314.69379Z"/><path d="M303.533,208.93591c.03986.00006.07965.00067.11951.00074.00482-.02948.01251-.05793.01739-.08735-.04284-.01129-.08557-.02319-.12854-.0343C303.54108,208.8587,303.53375,208.89282,303.533,208.93591Z"/><path d="M122.8338,204.43524c25.11536-5.8244,50.22138-11.68994,75.36017-17.412,2.86639-.65252,4.05029-1.20672,3.08472-4.61834-1.91657-6.77137-9.84882-11.87049-16.85035-10.13428Q132.04324,185.26081,79.67761,198.329c-4.81567,1.20782-12.53021.73737-7.11078,9.44708.05341,3.19324-2.72979,2.05127-4.02435,2.96643-1.59851,1.13013-5.25067-.43542-4.24817,4.01422,1.05853,4.69843,3.95087,2.24262,5.92725,1.80024C87.78357,212.62561,105.30206,208.501,122.8338,204.43524Z"/><path d="M2.44806,179.15961A1346.47339,1346.47339,0,0,0,189.769,132.25244C126.285,143.63385,63.9577,159.66492,2.44806,179.15961Z"/><path d="M51.86035,136.61719c58.79132-9.95014,116.3432-24.71082,172.96924-43.19818A1111.38139,1111.38139,0,0,0,51.86035,136.61719Z"/><path d="M210.18005,150.45587a300.26552,300.26552,0,0,0-92.3822,23.13629A336.71719,336.71719,0,0,0,210.18005,150.45587Z"/></svg>