<svg id="Capa_1" data-name="Capa 1" xmlns="http://www.w3.org/2000/svg" viewBox="0 0 896 711.09221"><defs><style>.cls-1{fill:#f2f2f2;}.cls-2{fill:#2f2e41;}.cls-3{fill:#040404;}</style></defs><rect class="cls-1" x="413.2485" width="140.00003" height="2"/><rect class="cls-1" x="513.24847" y="1.5" width="2" height="18.5"/><rect class="cls-1" x="452.2485" y="1.5" width="2" height="18.5"/><rect class="cls-1" x="484.2485" y="96" width="140.00003" height="2"/><rect class="cls-1" x="522.24847" y="78" width="2" height="18.5"/><rect class="cls-1" x="583.24847" y="78" width="2" height="18.5"/><rect class="cls-1" x="670.24847" y="141" width="140" height="2"/><rect class="cls-1" x="708.24847" y="123" width="2" height="18.5"/><rect class="cls-1" x="769.24847" y="123" width="2" height="18.5"/><rect class="cls-1" x="656.24847" y="604.99998" width="140" height="2"/><rect class="cls-1" x="694.24847" y="586.99998" width="2" height="18.5"/><rect class="cls-1" x="755.24847" y="586.99998" width="2" height="18.5"/><rect class="cls-1" x="417.2485" y="283.99998" width="140.00003" height="2"/><rect class="cls-1" x="455.2485" y="265.99998" width="2" height="18.5"/><rect class="cls-1" x="516.24847" y="265.99998" width="2" height="18.5"/><rect class="cls-1" x="461.2485" y="524.99998" width="140.00003" height="2"/><rect class="cls-1" x="499.2485" y="506.99998" width="2" height="18.5"/><rect class="cls-1" x="560.24847" y="506.99998" width="2" height="18.5"/><rect class="cls-1" x="685.24847" y="451.99998" width="140" height="2"/><rect class="cls-1" x="723.24847" y="433.99998" width="2" height="18.5"/><rect class="cls-1" x="784.24847" y="433.99998" width="2" height="18.5"/><rect class="cls-2" y="709.09221" width="896" height="2"/><rect class="cls-1" x="60.2485" y="316.99998" width="140" height="2"/><rect class="cls-1" x="98.2485" y="298.99998" width="2" height="18.5"/><rect class="cls-1" x="159.2485" y="298.99998" width="2" height="18.5"/><rect class="cls-1" x="109.2485" y="21" width="140.00001" height="2"/><rect class="cls-1" x="209.2485" y="22.5" width="2" height="18.5"/><rect class="cls-1" x="148.2485" y="22.5" width="2" height="18.5"/><rect class="cls-1" x="250.2485" y="218" width="140" height="2"/><rect class="cls-1" x="350.2485" y="219.5" width="2" height="18.49998"/><rect class="cls-1" x="289.2485" y="219.5" width="2" height="18.49998"/><rect class="cls-1" x="12.2485" y="217" width="140" height="2"/><rect class="cls-1" x="112.2485" y="218.5" width="2" height="18.49998"/><rect class="cls-1" x="51.2485" y="218.5" width="2" height="18.49998"/><rect class="cls-1" x="180.2485" y="117" width="140" height="2"/><rect class="cls-1" x="218.2485" y="99" width="2" height="18.5"/><rect class="cls-1" x="279.2485" y="99" width="2" height="18.5"/><path class="cls-3" d="M574.72485,566.52655h-6.01836q-80.15559-.00018-160.31087-.09247c-5.08151-.01415-6.3174.59852-4.526,6.05929a59.50455,59.50455,0,1,1-100.46455-21.8475c2.8183-3.0717,3.34878-5.52153,2.16786-9.43249q-58.47036-193.636-116.58869-387.378c-1.4276-4.763-3.30222-6.1681-8.198-6.032-14.98541.41655-29.98824.33259-44.98294.23484-7.03586-.04587-12.1342-4.31291-13.20154-10.44031a12.43793,12.43793,0,0,1,8.27148-14.01608,18.2249,18.2249,0,0,1,5.59021-.72775q28.82892-.16462,57.65857-.19868c8.92334-.007,11.94359,2.19683,14.60587,10.78789,6.17262,19.91877,12.33263,39.84245,18.28706,59.8269,1.05142,3.52875,2.22313,4.89087,6.3688,4.88635q229.06079-.25023,458.122-.136c13.2197.00084,18.71264,5.91835,15.5325,18.73474-6.95124,28.01388-14.66546,55.83993-22.19171,83.70937q-21.344,79.03595-42.82207,158.03574c-3.58256,13.22476-6.6811,15.63046-20.27885,15.643q-151.43749.13934-302.87485.15949c-6.03592-.00476-7.09636,1.1703-5.2054,6.97442,5.15512,15.82287,9.7266,31.83717,14.42348,47.8068.94865,3.22543,1.71219,4.77482,5.97126,3.6462,15.19919-4.0276,29.72332-1.47219,43.24727,6.41725a15.72906,15.72906,0,0,0,8.35367,2.16322q102.64974-.07257,205.29954,0a17.00428,17.00428,0,0,0,8.91893-2.36626,59.56886,59.56886,0,1,1-29.912,48.93093C570.24276,580.66084,572.39573,573.84448,574.72485,566.52655ZM457.66269,223.2204q-107.05658,0-214.11315.00059c-7.493.00011-7.50319.007-5.45917,6.78548Q270.10962,336.18873,301.967,442.4191c1.65773,5.569,3.91185,7.03259,9.46378,7.01635q150.44456-.44037,300.89005-.36779c5.06716.00251,6.74337-1.817,7.95628-6.32973Q648.82152,336.53481,677.64253,230.406c1.94063-7.17383,1.914-7.18484-5.86666-7.18494Q564.71929,223.21953,457.66269,223.2204ZM663.9439,590.30747a34.35472,34.35472,0,1,0-33.72908,34.61A34.20283,34.20283,0,0,0,663.9439,590.30747ZM347.03724,624.92466A34.36052,34.36052,0,1,0,312.79218,590.652,34.38223,34.38223,0,0,0,347.03724,624.92466Z" transform="translate(0 -35.90779)"/><path class="cls-3" d="M505.27675,365.53826c.19541,3.843-1.10414,6.726-5.294,7.2131-4.12284.47925-6.05159-1.895-6.94416-5.69858-2.769-11.79953-11.98389-18.32358-25.70627-18.36692-13.72067-.04333-22.8824,6.2783-25.99339,18.10236-.991,3.76641-3.01579,6.20889-7.07009,5.57209-4.01922-.63125-5.41694-3.55874-5.09091-7.435.677-8.04884,4.65828-14.27593,10.73315-19.30192,14.87116-12.30351,40.36663-12.11194,55.07425.377C501.28326,351.3483,505.205,358.79632,505.27675,365.53826Z" transform="translate(0 -35.90779)"/><path class="cls-3" d="M530.74874,304.02738a12.76509,12.76509,0,1,1-12.87155,12.67842A12.52737,12.52737,0,0,1,530.74874,304.02738Z" transform="translate(0 -35.90779)"/><path class="cls-3" d="M418.37688,316.98249a12.57988,12.57988,0,1,1-12.09525-12.8336A12.55885,12.55885,0,0,1,418.37688,316.98249Z" transform="translate(0 -35.90779)"/></svg>