<svg id="Capa_1" data-name="Capa 1" xmlns="http://www.w3.org/2000/svg" xmlns:xlink="http://www.w3.org/1999/xlink" viewBox="0 0 520 815"><defs><style>.cls-1{fill:url(#Degradado_sin_nombre_12);}.cls-2{fill:none;}.cls-3{fill:#fefdfd;}</style><linearGradient id="Degradado_sin_nombre_12" x1="260" y1="815" x2="260" gradientUnits="userSpaceOnUse"><stop offset="0" stop-opacity="0"/><stop offset="0.13838" stop-opacity="0.37314"/><stop offset="1"/></linearGradient></defs><rect class="cls-1" width="520" height="815" rx="38.5"/><path class="cls-2" d="M608.24426,269.4057v-2.44159" transform="translate(-607.74426 -22)"/><path class="cls-3" d="M686.09979,25.44647c6.29376,8.84186,8.85511,19.1427,10.02649,29.62244,2.579,23.07165,1.54694,46.1311-1.842,69.07629-.83435,5.64875-2.08325,11.23627-3.14154,16.85193l-.00006.00012.00043-.00018c-1.59937,12.25678-6.079,23.64764-10.79767,34.91785-9.62262,22.98309-23.43579,43.295-40.17212,61.65881a232.31682,232.31682,0,0,1-31.929,29.39038v2.44159c13.4411-9.32361,24.91089-20.90607,35.79285-32.99078A211.89613,211.89613,0,0,0,679.566,182.64124c3.17157-6.93555,5.797-14.12073,8.67181-21.192l-.0003-.00049c10.03436-30.82733,11.99982-62.628,11.02136-94.70813a97.25737,97.25737,0,0,0-5.36566-29.98553c-1.879-5.23645-4.11432-10.28138-8.11432-14.75513h-2.67377A22.73856,22.73856,0,0,1,686.09979,25.44647Z" transform="translate(-607.74426 -22)"/><path class="cls-3" d="M989.13446,73.00708c9.46484,9.11133,19.98084,17.11041,30.49,25.03949,1.74579,1.3172,3.40314,2.75153,5.10138,4.13177,8.03247,3.38562,14.69006,9.05024,22.15961,13.38471,25.24884,14.65161,51.876,25.70721,80.35876,32.08429v-1.9704a289.64879,289.64879,0,0,1-53.27435-18.34839c-38.368-17.731-71.42316-42.84924-100.57043-73.217A290.05907,290.05907,0,0,1,946.28259,22h-2.36114C957.186,40.58289,972.73151,57.21674,989.13446,73.00708Z" transform="translate(-607.74426 -22)"/><path class="cls-3" d="M821.2865,168.63373a448.6724,448.6724,0,0,0,45.00659,76.873c5.00549,6.84424,10.2511,13.5127,15.38666,20.26178l-.00049.00129c8.95959,9.5122,17.652,19.29339,26.93408,28.4787a286.77236,286.77236,0,0,0,55.90454,42.70593c8.30512,4.9209,16.948,9.27167,25.43726,13.88177l.00043.00031-.00061-.001c12.24047,4.559,24.128,10.08069,36.722,13.66962,19.26624,5.49029,38.73523,9.66839,58.84418,10.96039,13.97742.89819,27.85925,1.48394,41.72314-.5141v-1.66089c-11.66986,1.63641-23.44067,1.40454-35.12262.73468a270.6383,270.6383,0,0,1-43.282-5.83209,280.95536,280.95536,0,0,1-73.74194-27.64386,294.30986,294.30986,0,0,1-51.55829-35.47882,320.29909,320.29909,0,0,1-37.33991-37.65711c-8.38513-10.06744-16.41821-20.371-23.98767-31.05a17.67693,17.67693,0,0,1-1.168-2.26025h-.00006A455.66811,455.66811,0,0,1,822.93,167.24841a579.29173,579.29173,0,0,1-30.3023-78.42071l-.00049-.00031C785.459,67.968,780.25653,46.56525,775.17511,25.137c-.29254-1.2337-.52533-2.25647-.69415-3.137h-2.03052a815.06945,815.06945,0,0,0,30.251,103.695C808.87476,140.01788,814.74445,154.48126,821.2865,168.63373Z" transform="translate(-607.74426 -22)"/><path class="cls-3" d="M888.34418,85.048c1.272,2.19745,2.30151,4.53522,3.44348,6.80793,8.47375,12.32373,16.401,25.01666,25.7337,36.75561,10.28144,12.93231,20.94037,25.51441,32.38654,37.43073a839.70616,839.70616,0,0,0,62.76135,59.16729c2.67108,2.2627,5.16309,4.786,7.8988,7.0105l.00037.00067v-.00158c2.05756.87414,3.51935,2.506,5.08844,4.0011l.03857.03613c21.54944,17.09942,43.243,34.01,65.78675,49.79382,11.80743,8.26673,23.53137,16.665,35.76208,24.29608v-2.4259a1020.74164,1020.74164,0,0,1-87.27392-63.13068c-5.54413-4.45214-11.54114-8.36694-16.40772-13.63653-8.77783-6.17047-16.61053-13.49927-24.63189-20.55823-15.58564-13.71551-30.80225-27.85956-45.07465-42.955-17.88422-18.91552-34.96979-38.51116-49.39856-60.26983-.64874-.97833-1.14661-2.05676-1.71472-3.0885l.00116-.00092a202.85638,202.85638,0,0,1-28.40857-57.33032A130.90316,130.90316,0,0,1,869.23541,22H867.3631c.04059.29834.07593.613.10547.94775C869.43726,45.245,877.17712,65.75586,888.34418,85.048Z" transform="translate(-607.74426 -22)"/><path class="cls-3" d="M636.83179,648.7486c12.57391-20.85108,22.0473-43.14386,30.14715-66.052.10218-.28906.4455-.49285.67633-.73638a12.3626,12.3626,0,0,0,.62537,1.59484,2.54188,2.54188,0,0,0-.62518-1.5946c9.5332-28.44019,18.11657-57.15643,24.83239-86.403,2.79956-12.1919,5.32886-24.44581,8.01752-36.66352a7.08362,7.08362,0,0,1,.9372-1.72558v-.00019c.57251-8.64569,3.16607-16.9292,4.55987-25.42968,3.22662-19.67878,6.62274-39.33008,9.786-59.01886,1.87519-11.67145,3.47992-23.38739,5.10663-35.09705.32477-2.33783,1.63171-2.94165,3.69952-3.39154a298.58083,298.58083,0,0,1,32.63642-4.82117,327.88258,327.88258,0,0,1,43.85162-1.15124c33.07239.99926,64.89783,7.55652,95.27747,21.08557,20.37866,9.07525,38.14447,22.09332,56.11108,34.95721a366.40876,366.40876,0,0,0,53.23108,32.072c18.24976,8.85456,37.324,15.87311,57.48474,17.94953,21.96955,2.26275,43.43726-.63294,62.30829-13.75849.595-.41388,1.17456-.85,1.749-1.29345v-2.2865c-1.03613.704-2.0946,1.35272-3.06512,1.98132-18.27979,11.83954-38.4361,15.22614-59.93884,12.83264-29.73957-3.3103-56.06391-15.45953-81.51447-30.24194-17.81244-10.34595-34.21539-22.70966-50.99445-34.56146-7.8789-5.56525-16.44287-10.16065-24.69635-15.19556-11.57568-4.80121-22.88452-10.26917-34.93371-13.88458a285.12072,285.12072,0,0,0-56.75348-10.88532c-11.74713-1.05121-23.44183-.71856-35.156-.77722-17.83136-.08917-35.40387,2.76123-52.96362,5.47559-5.0387.7788-5.933.15106-5.15747-4.61023,3.20343-19.6684,4.89075-39.52228,7.21136-59.29865.98212-9.37494,2.01087-18.74518,2.93519-28.12573,1.33728-13.57214,2.65826-27.14648,3.87225-40.73.8258-9.24048,1.71692-18.48731,2.11267-27.75122.57684-13.50684,2.38184-26.94238,2.25452-40.48462h-.00061q.51268-.98812,1.024-1.97577l.00031-.00116-.00086.0011q.07637-5.10342.15168-10.20691c.65576-10.98444,1.35492-21.96649,1.95569-32.954.6596-12.064,1.2882-24.13043,1.81793-36.20074.40057-9.1261.74206-18.25751.89947-27.39008H744.419c-1.18109,25.50146-2.0459,51.018-3.26435,76.51758-.74389,15.56677-1.926,31.11285-2.945,46.666-.31018,4.73279-.73316,9.458-1.10444,14.18677-.70074,10.47864-1.29541,20.96576-2.13262,31.43353-.80939,10.119-1.826,20.22223-2.82929,30.32471q-1.90494,19.18267-3.94122,38.3523c-1.38709,13.11431-2.75824,26.23108-4.28723,39.3291-1.25293,10.733-2.79023,21.43274-4.06311,32.16363-.35114,2.95972-2.75568,2.85346-4.49506,3.17762-20.85144,3.88647-41.13886,9.87438-61.12561,16.80395a363.37618,363.37618,0,0,0-45.98682,19.07275v1.979c10.81928-4.72516,21.44983-9.867,32.53186-14.027a500.48628,500.48628,0,0,1,73.50794-21.82532c5.56238-1.16266,4.85815,1.72809,4.50335,4.72888-.8927,7.55018-1.91705,15.09125-3.14459,22.594-3.2998,20.16876-6.61218,40.33691-10.14416,60.46588-4.61823,26.32031-10.41077,52.4-16.57843,78.39624a10.47329,10.47329,0,0,1-.83808,1.85529l-.00073.00152.00128-.00128c-2.09057,12.90924-6.10125,25.34454-9.7536,37.83545-9.74048,33.31256-21.51,65.86884-37.95654,96.56262a198.84864,198.84864,0,0,1-28.59967,40.67084,37.51764,37.51764,0,0,1-3.44495,2.97424c-.02966.00031-.05438-.00281-.08368-.00274v3.60467C619.73737,675.0459,628.70978,662.21722,636.83179,648.7486Z" transform="translate(-607.74426 -22)"/></svg>