<svg xmlns:dc="http://purl.org/dc/elements/1.1/" xmlns:cc="http://creativecommons.org/ns#" xmlns:rdf="http://www.w3.org/1999/02/22-rdf-syntax-ns#" xmlns:svg="http://www.w3.org/2000/svg" xmlns="http://www.w3.org/2000/svg" xmlns:xlink="http://www.w3.org/1999/xlink" id="svg498985" viewBox="0 0 1024 768" height="768px" width="1024px" version="1.1">
  <metadata id="metadata498991">
    <rdf:rdf>
      <cc:work rdf:about="">
        <dc:format>image/svg+xml</dc:format>
        <dc:type rdf:resource="http://purl.org/dc/dcmitype/StillImage"></dc:type>
      </cc:work>
    </rdf:rdf>
  </metadata>
  <defs id="defs498989"></defs>
  <linearGradient spreadMethod="pad" y2="30%" x2="-10%" y1="120%" x1="30%" id="3d_gradient2-logo-74c63fc1-07d9-4759-80b8-018b1c99e7dc">
    <stop id="stop498966" stop-opacity="1" stop-color="#ffffff" offset="0%"></stop>
    <stop id="stop498968" stop-opacity="1" stop-color="#000000" offset="100%"></stop>
  </linearGradient>
  <linearGradient gradientTransform="rotate(-30)" spreadMethod="pad" y2="30%" x2="-10%" y1="120%" x1="30%" id="3d_gradient3-logo-74c63fc1-07d9-4759-80b8-018b1c99e7dc">
    <stop id="stop498971" stop-opacity="1" stop-color="#ffffff" offset="0%"></stop>
    <stop id="stop498973" stop-opacity="1" stop-color="#cccccc" offset="50%"></stop>
    <stop id="stop498975" stop-opacity="1" stop-color="#000000" offset="100%"></stop>
  </linearGradient>
  <g id="logo-group">
    <image xlink:href="" id="container" x="272" y="144" width="480" height="480" style="display: none;" transform="translate(0 0)"></image>
    <g id="logo-center" transform="translate(-1.1368683772161603e-13 0)">
      <image xlink:href="" id="icon_container" x="0" y="0" style="display: none;"></image>
      <g id="slogan" style="font-style:oblique;font-weight:300;font-size:32px;line-height:1;font-family:'Fira Sans Condensed';font-variant-ligatures:none;text-align:center;text-anchor:middle" transform="translate(0 0)"></g>
      <g id="title" style="font-style:normal;font-weight:normal;font-size:72px;line-height:1;font-family:'Brandmark Sans 16 Color Shadow';font-variant-ligatures:normal;text-align:center;text-anchor:middle" transform="translate(0 0)">
        <g id="path498994" aria-label="L" transform="translate(0 311.572) translate(292.54217750000004 44.455999999999996) scale(1.11) translate(-313.74237 50.4)"> <path class="c1" d="M96.9,114.4h21.7l-1,10.8H95.9L96.9,114.4l-1,10.8H81.5L86,74.8h14.4L96.9,114.4z" transform="translate(232.24237 -125.2)" stroke-width="0" stroke-linejoin="miter" stroke-miterlimit="2" fill="#243b38" stroke="#243b38"></path> <linearGradient id="953d9c71-4426-4308-90c0-e705bc04f3a8" gradientUnits="userSpaceOnUse" x1="96.24004" y1="-513.86749" x2="118.12885" y2="-517.72705" gradientTransform="matrix(1 0 0 -1 0 -396)"> <stop offset="0.00194" style="stop-color:#000000;stop-opacity:0.8"></stop> <stop offset="0.6213" style="stop-color:#000000;stop-opacity:0"></stop> </linearGradient> <path class="highlight" fill="url(#953d9c71-4426-4308-90c0-e705bc04f3a8)" d="M117.5,125.2H95.9l0.9-10.8h21.7L117.5,125.2z" transform="translate(232.24237 -125.2)" stroke-width="0" stroke-linejoin="miter" stroke-miterlimit="2" opacity="0.36"></path> </g>
        <g id="path498996" aria-label="A" transform="translate(0 311.572) translate(333.19649360000005 44.455999999999996) scale(1.11) translate(-350.36788 50.4)"> <path class="c1" d="M107.9,74.8H101h-6.5l-19.8,50.4H90l3.2-8.9h15.5l1.6,8.9h15l-10.8-50.4C114.5,74.8,107.9,74.8,107.9,74.8z M97,105.5l6.4-18l3.3,18H97z" transform="translate(275.66788 -125.2)" stroke-width="0" stroke-linejoin="miter" stroke-miterlimit="2" fill="#243b38" stroke="#243b38"></path> <linearGradient id="88dd3153-cb45-4d1a-b4fd-99278b79280b" gradientUnits="userSpaceOnUse" x1="85.41597" y1="713.57141" x2="112.23496" y2="706.38531" gradientTransform="matrix(1 0 0 1 0 -598)"> <stop offset="0.2304" style="stop-color:#000000;stop-opacity:0.8"></stop> <stop offset="0.6213" style="stop-color:#000000;stop-opacity:0"></stop> </linearGradient> <path class="highlight" fill="url(#88dd3153-cb45-4d1a-b4fd-99278b79280b)" d="M108.7,116.3H93.2l3.8-10.8h9.7L108.7,116.3z" transform="translate(275.66788 -125.2)" stroke-width="0" stroke-linejoin="miter" stroke-miterlimit="2" opacity="0.36"></path> </g>
        <g id="path498998" aria-label="Z" transform="translate(0 311.572) translate(390.916205 44.455999999999996) scale(1.11) translate(-402.36762 50.4)"> <path class="c1" d="M80.7,74.8h43.2l-1,10.8h-0.1l-27.1,28.8h24.7l-1,10.8H76.2l1-10.8l27.1-28.8H79.7L80.7,74.8z" transform="translate(326.16762 -125.2)" stroke-width="0" stroke-linejoin="miter" stroke-miterlimit="2" fill="#243b38" stroke="#243b38"></path> <linearGradient id="ee8054c5-7408-46ef-a72c-06a82edeb925" gradientUnits="userSpaceOnUse" x1="99.95" y1="-512.40002" x2="99.95" y2="-483.60001" gradientTransform="matrix(1 0 0 -1 0 -398)"> <stop offset="0.6165" style="stop-color:#000000;stop-opacity:0"></stop> <stop offset="0.8123" style="stop-color:#000000;stop-opacity:0.4049"></stop> <stop offset="0.9549" style="stop-color:#000000;stop-opacity:0.8"></stop> </linearGradient> <path class="highlight" fill="url(#ee8054c5-7408-46ef-a72c-06a82edeb925)" d="M95.6,114.4H77.2l27.1-28.8h18.4L95.6,114.4z" transform="translate(326.16762 -125.2)" stroke-width="0" stroke-linejoin="miter" stroke-miterlimit="2" opacity="0.36"></path> </g>
        <g id="path499000" aria-label="Y" transform="translate(0 311.572) translate(444.50881430000004 44.455999999999996) scale(1.11) translate(-450.64925 50.4)"> <path class="c1" d="M108.9,74.8h17.6l-21.3,26.7l-2.1,23.7H88.6l2.1-23.7h-0.2l0.1-0.1l-17-26.6h16.9l8.2,14.9L108.9,74.8z" transform="translate(377.04925 -125.2)" stroke-width="0" stroke-linejoin="miter" stroke-miterlimit="2" fill="#243b38" stroke="#243b38"></path> <linearGradient id="a61f6eb4-d733-41f0-8aaa-bf92a83e5cb0" gradientUnits="userSpaceOnUse" x1="99.78179" y1="-490.28854" x2="127.31824" y2="-474.39044" gradientTransform="matrix(1 0 0 -1 0 -398)"> <stop offset="0.00129" style="stop-color:#000000;stop-opacity:0.8"></stop> <stop offset="0.3725" style="stop-color:#000000;stop-opacity:0"></stop> </linearGradient> <path class="highlight" fill="url(#a61f6eb4-d733-41f0-8aaa-bf92a83e5cb0)" d="M126.4,74.8l-21.3,26.7l-6.5-11.8l10.2-14.9C108.9,74.8,126.4,74.8,126.4,74.8z" transform="translate(377.04925 -125.2)" stroke-width="0" stroke-linejoin="miter" stroke-miterlimit="2" opacity="0.36"></path> </g>
        <g id="path499002" aria-label="P" transform="translate(0 311.572) translate(500.9273393 44.455999999999996) scale(1.11) translate(-501.47675 50.4)"> <path class="c1" d="M108.9,74.8H95.8h-4.4h-10l-4.5,50.4h14.4l1.6-18.1h9.2c13.7,0,21-7.6,21-17.6 C123.1,82.3,117.2,74.8,108.9,74.8z M102.9,96.3h-9l1-10.7h9.3c2.5,0,4.6,2.6,4.6,4.8C108.7,92.5,106.9,96.3,102.9,96.3z" transform="translate(424.57675 -125.2)" stroke-width="0" stroke-linejoin="miter" stroke-miterlimit="2" fill="#243b38" stroke="#243b38"></path> <linearGradient id="5857079a-591a-4c06-aef8-94297f33f6f0" gradientUnits="userSpaceOnUse" x1="85.85" y1="-481.60001" x2="85.85" y2="-521.20001" gradientTransform="matrix(1 0 0 -1 0 -396)"> <stop offset="0.06138" style="stop-color:#000000;stop-opacity:0.8"></stop> <stop offset="0.1212" style="stop-color:#000000;stop-opacity:0.302"></stop> <stop offset="0.2125" style="stop-color:#000000;stop-opacity:0"></stop> </linearGradient> <path class="highlight" fill="url(#5857079a-591a-4c06-aef8-94297f33f6f0)" d="M80.4,85.6h14.4l-3.5,39.6H76.9L80.4,85.6z" transform="translate(424.57675 -125.2)" stroke-width="0" stroke-linejoin="miter" stroke-miterlimit="2" opacity="0.36"></path> </g>
        <g id="path499004" aria-label="I" transform="translate(0 311.572) translate(553.0626518000001 44.455999999999996) scale(1.11) translate(-548.4455 50.4)"> <path class="c1" d="M95.05531,74.79308h14.40307l-4.51369,50.41383H90.54162L95.05531,74.79308z" transform="translate(457.90388 -125.19308)" stroke-width="0" stroke-linejoin="miter" stroke-miterlimit="2" fill="#243b38" stroke="#243b38"></path> </g>
        <g id="path499006" aria-label="Z" transform="translate(0 311.572) translate(574.4824550000001 44.455999999999996) scale(1.11) translate(-567.74262 50.4)"> <path class="c1" d="M80.7,74.8h43.2l-1,10.8h-0.1l-27.1,28.8h24.7l-1,10.8H76.2l1-10.8l27.1-28.8H79.7L80.7,74.8z" transform="translate(491.54262 -125.2)" stroke-width="0" stroke-linejoin="miter" stroke-miterlimit="2" fill="#243b38" stroke="#243b38"></path> <linearGradient id="75d79734-d81b-49a4-9261-4a207396723a" gradientUnits="userSpaceOnUse" x1="99.95" y1="-512.40002" x2="99.95" y2="-483.60001" gradientTransform="matrix(1 0 0 -1 0 -398)"> <stop offset="0.6165" style="stop-color:#000000;stop-opacity:0"></stop> <stop offset="0.8123" style="stop-color:#000000;stop-opacity:0.4049"></stop> <stop offset="0.9549" style="stop-color:#000000;stop-opacity:0.8"></stop> </linearGradient> <path class="highlight" fill="url(#75d79734-d81b-49a4-9261-4a207396723a)" d="M95.6,114.4H77.2l27.1-28.8h18.4L95.6,114.4z" transform="translate(491.54262 -125.2)" stroke-width="0" stroke-linejoin="miter" stroke-miterlimit="2" opacity="0.36"></path> </g>
        <g id="path499008" aria-label="Z" transform="translate(0 311.572) translate(625.8373043000001 44.455999999999996) scale(1.11) translate(-614.00825 50.4)"> <path class="c1" d="M80.7,74.8h43.2l-1,10.8h-0.1l-27.1,28.8h24.7l-1,10.8H76.2l1-10.8l27.1-28.8H79.7L80.7,74.8z" transform="translate(537.80825 -125.2)" stroke-width="0" stroke-linejoin="miter" stroke-miterlimit="2" fill="#243b38" stroke="#243b38"></path> <linearGradient id="06489d07-c0eb-42fc-8de7-a9f8f45b49e2" gradientUnits="userSpaceOnUse" x1="99.95" y1="-512.40002" x2="99.95" y2="-483.60001" gradientTransform="matrix(1 0 0 -1 0 -398)"> <stop offset="0.6165" style="stop-color:#000000;stop-opacity:0"></stop> <stop offset="0.8123" style="stop-color:#000000;stop-opacity:0.4049"></stop> <stop offset="0.9549" style="stop-color:#000000;stop-opacity:0.8"></stop> </linearGradient> <path class="highlight" fill="url(#06489d07-c0eb-42fc-8de7-a9f8f45b49e2)" d="M95.6,114.4H77.2l27.1-28.8h18.4L95.6,114.4z" transform="translate(537.80825 -125.2)" stroke-width="0" stroke-linejoin="miter" stroke-miterlimit="2" opacity="0.36"></path> </g>
        <g id="path499010" aria-label="A" transform="translate(0 311.572) translate(675.3539936000002 44.455999999999996) scale(1.11) translate(-658.61788 50.4)"> <path class="c1" d="M107.9,74.8H101h-6.5l-19.8,50.4H90l3.2-8.9h15.5l1.6,8.9h15l-10.8-50.4C114.5,74.8,107.9,74.8,107.9,74.8z M97,105.5l6.4-18l3.3,18H97z" transform="translate(583.91788 -125.2)" stroke-width="0" stroke-linejoin="miter" stroke-miterlimit="2" fill="#243b38" stroke="#243b38"></path> <linearGradient id="af49d2e9-4575-4e7e-9baa-7ad73cf4b6b6" gradientUnits="userSpaceOnUse" x1="85.41597" y1="713.57141" x2="112.23496" y2="706.38531" gradientTransform="matrix(1 0 0 1 0 -598)"> <stop offset="0.2304" style="stop-color:#000000;stop-opacity:0.8"></stop> <stop offset="0.6213" style="stop-color:#000000;stop-opacity:0"></stop> </linearGradient> <path class="highlight" fill="url(#af49d2e9-4575-4e7e-9baa-7ad73cf4b6b6)" d="M108.7,116.3H93.2l3.8-10.8h9.7L108.7,116.3z" transform="translate(583.91788 -125.2)" stroke-width="0" stroke-linejoin="miter" stroke-miterlimit="2" opacity="0.36"></path> </g>
               </g>
      <image xlink:href="" id="icon" x="0" y="0" style="display: none;"></image>
    </g>
  </g>
</svg>