<svg xmlns:dc="http://purl.org/dc/elements/1.1/" xmlns:cc="http://creativecommons.org/ns#" xmlns:rdf="http://www.w3.org/1999/02/22-rdf-syntax-ns#" xmlns:svg="http://www.w3.org/2000/svg" xmlns="http://www.w3.org/2000/svg" xmlns:xlink="http://www.w3.org/1999/xlink" id="svg111475" viewBox="0 0 1024 768" height="768px" width="1024px" version="1.1">
  <metadata id="metadata111481">
    <rdf:rdf>
      <cc:work rdf:about="">
        <dc:format>image/svg+xml</dc:format>
        <dc:type rdf:resource="http://purl.org/dc/dcmitype/StillImage"></dc:type>
      </cc:work>
    </rdf:rdf>
  </metadata>
  <defs id="defs111479"></defs>
  <linearGradient spreadMethod="pad" y2="30%" x2="-10%" y1="120%" x1="30%" id="3d_gradient2-logo-40d6064f-fa5f-4d87-9f98-0fab6cf6139d">
    <stop id="stop111456" stop-opacity="1" stop-color="#ffffff" offset="0%"></stop>
    <stop id="stop111458" stop-opacity="1" stop-color="#000000" offset="100%"></stop>
  </linearGradient>
  <linearGradient gradientTransform="rotate(-30)" spreadMethod="pad" y2="30%" x2="-10%" y1="120%" x1="30%" id="3d_gradient3-logo-40d6064f-fa5f-4d87-9f98-0fab6cf6139d">
    <stop id="stop111461" stop-opacity="1" stop-color="#ffffff" offset="0%"></stop>
    <stop id="stop111463" stop-opacity="1" stop-color="#cccccc" offset="50%"></stop>
    <stop id="stop111465" stop-opacity="1" stop-color="#000000" offset="100%"></stop>
  </linearGradient>
  <g id="logo-group">
    <image xlink:href="" id="container" x="272" y="144" width="480" height="480" style="display: none;" transform="translate(0 0)"></image>
    <g id="logo-center" transform="translate(0 0)">
      <image xlink:href="" id="icon_container" x="0" y="0" style="display: none;"></image>
      <g id="slogan" style="font-style:normal;font-weight:400;font-size:32px;line-height:1;font-family:Lora;font-variant-ligatures:none;text-align:center;text-anchor:middle" transform="translate(0 0)"></g>
      <g id="title" style="font-style:normal;font-weight:400;font-size:72px;line-height:1;font-family:Edo;font-variant-ligatures:none;text-align:center;text-anchor:middle" transform="translate(0 0)">
        <path id="path111484" style="font-style:normal;font-weight:400;font-size:72px;line-height:1;font-family:Edo;font-variant-ligatures:none;text-align:center;text-anchor:middle" d="m 365.32812,-47.179687 q 1.19532,0 1.19532,3.585937 h 1.19531 l 1.79297,-1.195312 0.59765,0.597656 -2.98828,33.46875 q 3.79688,-1.792969 20.32032,-4.183594 h 0.59765 v 0.597656 q -20.91797,3.410156 -20.91797,5.3789065 l 6.57422,-1.7929685 V -10.125 l 11.35547,-2.390625 v 0.597656 l 0.59766,-0.597656 h 0.59765 l 0.59766,0.597656 2.98828,-0.597656 h 2.39063 l 4.18359,0.597656 v 0.597656 q 0,1.7929692 -8.96484,2.9882817 v 0.5976563 l 0.59765,-0.5976563 h 0.59766 l 4.18359,0.5976563 0.59766,-0.5976563 v 1.7929688 l -19.72266,4.78125 -12.55078,4.78125 h -1.79297 l -2.39062,-2.98828125 h -0.59766 V -0.5625 q 0,-1.5117188 2.39063,-1.7929688 v -1.7929687 l -1.79297,-2.390625 2.39062,-26.8945315 h 0.59766 v 2.390625 l -0.59766,4.183594 h 1.19531 l -1.19531,7.769531 0.59766,0.597657 -0.59766,2.390625 v 2.988281 h 0.59766 l 2.39062,-31.675781 q 1.19532,0 1.19532,-1.792969 l 0.59765,-0.597656 z" stroke-width="0" stroke-linejoin="miter" stroke-miterlimit="2" fill="#040301" stroke="#040301" transform="translate(0 306.282812445) translate(251.22370955000002 47.200859429999994) scale(1.11) translate(-356.36328 47.179687)"></path>
        <path id="path111486" style="font-style:normal;font-weight:400;font-size:72px;line-height:1;font-family:Edo;font-variant-ligatures:none;text-align:center;text-anchor:middle" d="m 417.32422,-49.570312 q 0.38672,1.792968 4.78125,1.792968 l 4.78125,20.917969 h 4.18359 v 0.597656 l -3.58594,0.597657 v 0.597656 q 1.79297,0 1.79297,1.195312 h 4.78125 v 0.597657 q 0,1.335937 -5.97656,2.390625 l 1.19531,3.585937 -0.59765,1.792969 0.59765,3.585937 -0.59765,0.597656 h 0.59765 l -0.59765,0.597657 0.59765,7.1718747 V 0.03515625 L 428.67969,-0.5625 h -0.59766 l 1.79297,8.9648438 h -1.19531 q 0,-1.7929688 -1.19532,-1.7929688 V 7.2070312 L 428.08203,9 h -0.59766 l -0.59765,-0.5976562 h -0.59766 q 0,1.7929692 -1.19531,1.7929692 L 422.10547,0.03515625 h -0.59766 V 2.4257813 h -0.59765 l -1.19532,-7.171875 1.79297,1.1953124 v -0.5976562 q -0.49219,-5.3789063 -1.79297,-5.3789063 L 420.3125,-10.125 v -1.792969 h -1.19531 V -10.125 h -0.59766 v -2.390625 l 0.59766,-0.597656 h -0.59766 l -0.59766,0.597656 v -2.390625 h 0.59766 l 0.59766,0.597656 h 0.59765 l -0.59765,-0.597656 v -3.585937 l -13.14844,2.988281 v 1.195312 l 4.18359,-1.195312 2.39063,0.597656 2.98828,-0.597656 v 1.195312 q -12.55078,2.25 -12.55078,5.9765627 -1.58203,6.5742188 -3.58594,8.36718755 V 1.2304687 h -1.79297 l -0.59765,-0.5976562 h -0.59766 v 0.5976562 l -1.79297,-1.19531245 1.19531,-3.58593755 h -0.59765 q -1.79297,0 -1.79297,4.78125 l -1.19531,-1.19531245 0.59765,-3.58593755 -1.79297,-1.7929687 10.16016,-24.503906 h 0.59766 q 0,1.792969 1.19531,1.792969 l 0.59765,-2.988282 -0.59765,0.597657 h -0.59766 v -2.390625 l 0.59766,-2.988282 0.59765,0.597657 h 0.59766 l -0.59766,-0.597657 v -0.597656 l 1.19532,-2.390625 h 0.59765 l 0.59766,0.597656 h 0.59766 V -38.8125 q 0,-1.195312 -1.79297,-1.195312 l 2.98828,-8.367188 h 2.39062 l -0.59765,0.597656 v 0.597657 q 4.14843,-2.390625 7.76953,-2.390625 z m -3.58594,13.746093 -4.78125,12.550782 h 1.19531 q 5.97657,0 6.57422,-3.585938 l -2.39062,-8.964844 z m -5.37891,3.585938 -1.19531,4.183594 -0.59765,-0.597657 h -0.59766 l 0.59766,2.390625 h 0.59765 l 1.79297,-5.378906 v -0.597656 z m -6.57421,5.378906 -0.59766,0.597656 v 1.195313 h 0.59766 l 0.59765,-1.792969 z m 3.58593,2.390625 -0.59765,2.390625 h 0.59765 l 0.59766,-0.597656 v -1.792969 z m -5.3789,0.597656 -0.59766,2.390625 h 0.59766 l 1.19531,-2.390625 z m 10.16015,1.792969 v 0.597656 h 1.19532 q 5.3789,-0.597656 5.3789,-1.792968 h -0.59765 z m 8.36719,13.1484375 h 1.19531 V -5.34375 h -0.59765 z m 8.36719,4.1835938 v 1.1953124 l 0.59765,2.3906251 h 0.59766 v -1.1953126 l -0.59766,-2.3906249 z m -5.97656,1.7929687 v 1.1953125 l 1.79296,-0.5976563 v -1.1953125 z" stroke-width="0" stroke-linejoin="miter" stroke-miterlimit="2" fill="#0f0a01" stroke="#0f0a01" transform="translate(0 306.282812445) translate(311.90081614999997 44.547265679999995) scale(1.11) translate(-391.02734 49.570312)"></path>
        <path id="path111488" style="font-style:normal;font-weight:400;font-size:72px;line-height:1;font-family:Edo;font-variant-ligatures:none;text-align:center;text-anchor:middle" d="m 439.15625,-46.089844 3.62109,0.597657 11.98828,-0.597657 14.97657,4.394532 v 1.265625 l 0.59765,0.632812 -0.59765,0.632813 h -0.59766 v 0.632812 h 1.19531 l 1.19532,-1.265625 h 0.59765 v 2.496094 l -23.3789,28.3710935 h 3.58593 l 3.6211,-0.6679688 q 7.41797,1.9335938 9.5625,5.6953125 h 0.63281 V -1.40625 l -1.23047,1.30078125 h -0.59766 l -2.98828,-1.30078125 0.59766,0.66796875 v 1.1953125 l -4.78125,-1.1953125 h -1.79297 q -5.80078,0 -15.60937,3.76171875 l -3.58594,-3.12890625 1.79297,-5.06249995 -1.19532,-1.265625 v -2.4960938 q 4.42969,-7.5585935 5.41407,-7.5585935 l 0.59765,0.632812 0.59766,-0.632812 v -0.632813 h -0.59766 q 0,-1.898437 2.39063,-1.898437 l 2.39062,-3.164063 -0.59765,-0.597656 1.79297,-1.265625 0.59765,0.632813 q 5.34375,-8.402344 7.20703,-8.824219 v 0.632812 l -6.60937,8.824219 h 0.59765 l 10.19532,-12.621094 h -0.59766 l -2.39062,1.898438 -0.59766,-0.632813 v -0.632812 l 0.59766,-0.632813 -6.01172,0.632813 h -7.17188 q -2.84765,-1.40625 -4.21875,-4.394531 v -0.632813 l 1.19531,-1.898437 q -0.98437,-3.164063 -2.98828,-3.164063 l 0.59766,-0.632812 z m 15.60937,23.90625 -3.62109,4.394532 h 0.59766 l 3.62109,-4.394532 z m -7.20703,1.898438 -2.98828,3.796875 h 0.59766 l 2.98828,-3.796875 z m 2.98828,3.164062 -2.98828,3.761719 h 0.59766 l 2.98828,-3.761719 z" stroke-width="0" stroke-linejoin="miter" stroke-miterlimit="2" fill="#1a1101" stroke="#1a1101" transform="translate(0 306.282812445) translate(384.20691545 48.41058516) scale(1.11) translate(-436.16797 46.089844)"></path>
        <path id="path111490" style="font-style:normal;font-weight:400;font-size:72px;line-height:1;font-family:Edo;font-variant-ligatures:none;text-align:center;text-anchor:middle" d="m 498.78125,-48.339844 h 0.59766 v 1.195313 l 0.59765,-0.597656 h 0.59766 q 4.18359,1.40625 4.18359,2.390625 l -2.98828,3.585937 h 1.19531 q 2.39063,-1.230469 2.39063,-2.988281 h 1.79297 v 0.597656 l -0.59766,0.597656 0.59766,0.597657 v 0.597656 q -21.23438,22.851562 -20.74219,36.4218748 L 485.21094,0 485.80859,0.59765625 V 1.1953125 l -2.98828,5.3789062 -4.78125,-0.5976562 v -4.78125 l -1.79297,-2.3554687 v -1.1953126 l 0.59766,-7.171875 0.59766,0.5976563 h 0.59765 l -0.59765,-0.5976563 V -10.125 l 0.59765,-0.597656 v -0.597657 l -0.59765,-0.597656 1.79296,-0.597656 -0.59765,2.9882812 v 2.3906251 h 0.59765 l 0.70313,-7.2070313 -0.59766,-1.792969 h -0.59765 v 1.792969 h -0.59766 l -0.59766,-4.78125 0.59766,-0.597656 v -0.597656 l -8.22656,-20.988282 v -1.195312 h 1.19531 l -1.19531,-2.988281 0.59765,-0.597657 h 1.19532 q 1.37109,0 1.79297,2.988282 l 1.79296,-1.195313 h 1.79297 q 0,3.691406 6.4336,15.609375 3.44531,-6.539062 5.97656,-7.769531 v 0.597656 q -5.97656,7.59375 -5.97656,8.964844 v 0.597656 h 0.59765 l 14.0625,-19.054687 v -0.597657 l -6.89062,7.101563 v -0.597656 z m -7.48828,9.492188 V -38.25 l -1.19531,1.195313 v -0.597657 z m 8.08594,-0.527344 q -12.86719,16.488281 -12.86719,19.054688 h 1.19531 Q 492.875,-30.269531 499.97656,-39.375 Z M 479.83203,2.390625 V 4.78125 h 0.59766 V 2.390625 Z" stroke-width="0" stroke-linejoin="miter" stroke-miterlimit="2" fill="#241801" stroke="#241801" transform="translate(0 306.282812445) translate(443.86941545 45.913085159999994) scale(1.11) translate(-469.91797 48.339844)"></path>
        <path id="path111492" style="font-style:normal;font-weight:400;font-size:72px;line-height:1;font-family:Edo;font-variant-ligatures:none;text-align:center;text-anchor:middle" d="m 511.96484,-49.253906 0.5625,0.597656 v 0.597656 l 0.59766,-0.597656 h 2.98828 q 1.19531,0 1.125,2.988281 h 0.59766 q 0.0703,-1.792968 1.26562,-1.792968 1.19531,0 1.125,1.792968 l 4.21875,-0.597656 6.39844,1.195313 2.39062,-0.597657 q 4.57032,0 7.03125,4.78125 l -0.63281,4.183594 0.5625,0.597656 v 0.597657 l -1.30078,3.585937 h -0.59766 l 0.0352,-1.195312 h -0.59766 q -4.64062,11.25 -13.07812,15.539062 l -9.70313,4.183594 -0.3164,10.160156 0.49219,2.98828125 q -1.19532,0 -3.19922,5.97656245 l -0.59766,0.5976563 h -0.59766 l -4.71093,-2.390625 0.77343,-4.78125 -1.72265,-2.390625 1.47656,-8.367188 -0.59766,-0.597656 2.17969,-11.355468 -0.59765,-0.597657 0.63281,-0.597656 h 1.19531 l -0.0703,2.390625 h 0.59765 l 0.10547,-2.988281 -0.52734,-1.792969 h 1.19531 l 0.0703,-2.988281 -1.16015,-1.195313 -0.0703,2.390625 h -0.59766 q 0.14062,-3.796875 -3.375,-5.976562 l -0.49219,-3.585938 0.10547,-2.390625 q 7.83984,-3.199218 7.875,-4.183593 l 0.0352,-0.597657 -1.16016,-1.195312 -0.59766,0.597656 -0.5625,-2.390625 0.63282,-0.597656 z m 5.20313,23.308594 h 1.19531 q 7.69922,-3.234375 13.5,-10.757813 h -1.79297 q -11.98828,0.808594 -12.05859,3.585938 z m 15.22265,-8.367188 q -1.89843,3.375 -15.29296,10.160156 L 516.5,-23.554687 v 0.597656 h 1.19531 q 8.82422,-2.707031 15.29297,-11.355469 z m -24.29296,12.550781 -0.0352,0.597657 0.5625,0.597656 -0.59766,0.597656 -0.0703,1.195313 h 1.19531 l 0.14063,-2.988282 z" stroke-width="0" stroke-linejoin="miter" stroke-miterlimit="2" fill="#2f1f01" stroke="#2f1f01" transform="translate(0 306.282812445) translate(505.05388085 44.898476339999995) scale(1.11) translate(-505.03911 49.253906)"></path>
        <path id="path111494" style="font-style:normal;font-weight:400;font-size:72px;line-height:1;font-family:Edo;font-variant-ligatures:none;text-align:center;text-anchor:middle" d="m 554.01172,-46.617187 q -0.14063,1.792968 2.25,1.792968 l 1.08984,2.390625 -0.63281,0.597657 h 0.59766 q -4.28907,12.65625 -5.23829,29.285156 l -0.21093,3.5859372 0.59765,0.5976563 -0.0351,0.5976563 -0.63282,0.5976562 h 0.59766 l -0.63281,0.5976563 0.35156,4.1835937 -0.0703,1.1953125 Q 548.84375,2.671875 548.70312,4.78125 h -2.39062 l -2.88281,-1.1953125 0.84375,-4.18359375 -2.28516,-2.39062505 1.08984,-8.9648437 0.59766,-10.757812 1.30078,-1.792969 0.14063,-2.390625 -0.5625,-0.597656 0.0351,-0.597657 h 1.19532 l 0.0351,-0.597656 -0.5625,-0.597656 2.42578,-11.355469 h -0.59765 l 0.63281,-0.597656 0.17578,-3.585938 -0.5625,-0.597656 0.0352,-0.597656 z m -6.60938,10.757812 -0.21093,4.183594 h 0.59765 L 548,-35.859375 Z m -0.91406,5.976563 -0.21094,3.585937 h 0.59766 l 0.21094,-3.585937 z m -0.91406,5.378906 -0.17578,3.585937 h 0.59765 l 0.17578,-3.585937 z m -0.10547,23.90624975 -0.17578,2.98828125 1.23047,-1.1953125 0.14062,-1.79296875 z" stroke-width="0" stroke-linejoin="miter" stroke-miterlimit="2" fill="#3a2601" stroke="#3a2601" transform="translate(0 306.282812445) translate(568.26745955 47.825234429999995) scale(1.11) translate(-541.98828 46.617187)"></path>
        <path id="path111496" style="font-style:normal;font-weight:400;font-size:72px;line-height:1;font-family:Edo;font-variant-ligatures:none;text-align:center;text-anchor:middle" d="m 560.79687,-46.089844 3.6211,0.597657 11.98828,-0.597657 14.97656,4.394532 v 1.265625 l 0.59766,0.632812 -0.59766,0.632813 h -0.59765 v 0.632812 h 1.19531 l 1.19531,-1.265625 h 0.59766 v 2.496094 l -23.37891,28.3710935 h 3.58594 l 3.62109,-0.6679688 q 7.41797,1.9335938 9.5625,5.6953125 h 0.63281 V -1.40625 l -1.23046,1.30078125 h -0.59766 l -2.98828,-1.30078125 0.59765,0.66796875 v 1.1953125 l -4.78125,-1.1953125 h -1.79296 q -5.80079,0 -15.60938,3.76171875 l -3.58594,-3.12890625 1.79297,-5.06249995 -1.19531,-1.265625 v -2.4960938 q 4.42969,-7.5585935 5.41406,-7.5585935 l 0.59766,0.632812 0.59765,-0.632812 v -0.632813 h -0.59765 q 0,-1.898437 2.39062,-1.898437 l 2.39063,-3.164063 -0.59766,-0.597656 1.79297,-1.265625 0.59766,0.632813 q 5.34375,-8.402344 7.20703,-8.824219 v 0.632812 l -6.60938,8.824219 h 0.59766 l 10.19531,-12.621094 h -0.59765 l -2.39063,1.898438 -0.59766,-0.632813 v -0.632812 l 0.59766,-0.632813 -6.01172,0.632813 h -7.17187 q -2.84766,-1.40625 -4.21875,-4.394531 v -0.632813 l 1.19531,-1.898437 q -0.98438,-3.164063 -2.98828,-3.164063 l 0.59765,-0.632812 z m 15.60938,23.90625 -3.62109,4.394532 h 0.59765 l 3.6211,-4.394532 z m -7.20703,1.898438 -2.98828,3.796875 h 0.59765 l 2.98828,-3.796875 z m 2.98828,3.164062 -2.98828,3.761719 h 0.59765 l 2.98829,-3.761719 z" stroke-width="0" stroke-linejoin="miter" stroke-miterlimit="2" fill="#452d01" stroke="#452d01" transform="translate(0 306.282812445) translate(608.02800365 48.41058516) scale(1.11) translate(-557.80859 46.089844)"></path>
        <path id="path111498" style="font-style:normal;font-weight:400;font-size:72px;line-height:1;font-family:Edo;font-variant-ligatures:none;text-align:center;text-anchor:middle" d="m 594.96875,-46.089844 3.62109,0.597657 11.98828,-0.597657 14.97657,4.394532 v 1.265625 l 0.59765,0.632812 -0.59765,0.632813 h -0.59766 v 0.632812 h 1.19531 l 1.19532,-1.265625 h 0.59765 v 2.496094 l -23.3789,28.3710935 h 3.58593 l 3.6211,-0.6679688 q 7.41797,1.9335938 9.5625,5.6953125 h 0.63281 V -1.40625 l -1.23047,1.30078125 h -0.59766 L 617.15234,-1.40625 617.75,-0.73828125 v 1.1953125 l -4.78125,-1.1953125 h -1.79297 q -5.80078,0 -15.60937,3.76171875 l -3.58594,-3.12890625 1.79297,-5.06249995 -1.19532,-1.265625 v -2.4960938 q 4.42969,-7.5585935 5.41407,-7.5585935 l 0.59765,0.632812 0.59766,-0.632812 v -0.632813 h -0.59766 q 0,-1.898437 2.39063,-1.898437 l 2.39062,-3.164063 -0.59765,-0.597656 1.79297,-1.265625 0.59765,0.632813 q 5.34375,-8.402344 7.20703,-8.824219 v 0.632812 l -6.60937,8.824219 h 0.59765 l 10.19532,-12.621094 h -0.59766 l -2.39062,1.898438 -0.59766,-0.632813 v -0.632812 l 0.59766,-0.632813 -6.01172,0.632813 h -7.17188 q -2.84765,-1.40625 -4.21875,-4.394531 v -0.632813 l 1.19531,-1.898437 q -0.98437,-3.164063 -2.98828,-3.164063 l 0.59766,-0.632812 z m 15.60937,23.90625 -3.62109,4.394532 h 0.59766 l 3.62109,-4.394532 z m -7.20703,1.898438 -2.98828,3.796875 h 0.59766 l 2.98828,-3.796875 z m 2.98828,3.164062 -2.98828,3.761719 h 0.59766 l 2.98828,-3.761719 z" stroke-width="0" stroke-linejoin="miter" stroke-miterlimit="2" fill="#4f3401" stroke="#4f3401" transform="translate(0 306.282812445) translate(668.1587904500001 48.41058516) scale(1.11) translate(-591.98047 46.089844)"></path>
        <path id="path111500" style="font-style:normal;font-weight:400;font-size:72px;line-height:1;font-family:Edo;font-variant-ligatures:none;text-align:center;text-anchor:middle" d="m 649.49609,-49.570312 q 0.38672,1.792968 4.78125,1.792968 l 4.78125,20.917969 h 4.1836 v 0.597656 l -3.58594,0.597657 v 0.597656 q 1.79297,0 1.79297,1.195312 h 4.78125 v 0.597657 q 0,1.335937 -5.97656,2.390625 l 1.19531,3.585937 -0.59766,1.792969 0.59766,3.585937 -0.59766,0.597656 h 0.59766 l -0.59766,0.597657 0.59766,7.1718747 V 0.03515625 L 660.85156,-0.5625 h -0.59765 l 1.79296,8.9648438 h -1.19531 q 0,-1.7929688 -1.19531,-1.7929688 V 7.2070312 L 660.25391,9 h -0.59766 l -0.59766,-0.5976562 h -0.59765 q 0,1.7929692 -1.19532,1.7929692 L 654.27734,0.03515625 h -0.59765 V 2.4257813 h -0.59766 l -1.19531,-7.171875 1.79297,1.1953124 v -0.5976562 q -0.49219,-5.3789063 -1.79297,-5.3789063 L 652.48437,-10.125 v -1.792969 h -1.19531 V -10.125 h -0.59765 v -2.390625 l 0.59765,-0.597656 h -0.59765 l -0.59766,0.597656 v -2.390625 h 0.59766 l 0.59765,0.597656 h 0.59766 l -0.59766,-0.597656 v -3.585937 l -13.14844,2.988281 v 1.195312 l 4.1836,-1.195312 2.39062,0.597656 2.98828,-0.597656 v 1.195312 q -12.55078,2.25 -12.55078,5.9765627 -1.58203,6.5742188 -3.58593,8.36718755 V 1.2304687 h -1.79297 l -0.59766,-0.5976562 h -0.59766 v 0.5976562 l -1.79296,-1.19531245 1.19531,-3.58593755 h -0.59766 q -1.79297,0 -1.79297,4.78125 l -1.19531,-1.19531245 0.59766,-3.58593755 -1.79297,-1.7929687 10.16015,-24.503906 h 0.59766 q 0,1.792969 1.19531,1.792969 l 0.59766,-2.988282 -0.59766,0.597657 h -0.59765 v -2.390625 l 0.59765,-2.988282 0.59766,0.597657 h 0.59766 L 635.75,-35.824219 v -0.597656 l 1.19531,-2.390625 h 0.59766 l 0.59765,0.597656 h 0.59766 V -38.8125 q 0,-1.195312 -1.79297,-1.195312 l 2.98828,-8.367188 h 2.39063 l -0.59766,0.597656 v 0.597657 q 4.14844,-2.390625 7.76953,-2.390625 z m -3.58593,13.746093 -4.78125,12.550782 h 1.19531 q 5.97656,0 6.57422,-3.585938 l -2.39063,-8.964844 z m -5.37891,3.585938 -1.19531,4.183594 -0.59766,-0.597657 h -0.59766 l 0.59766,2.390625 h 0.59766 l 1.79297,-5.378906 v -0.597656 z m -6.57422,5.378906 -0.59766,0.597656 v 1.195313 h 0.59766 l 0.59766,-1.792969 z m 3.58594,2.390625 -0.59766,2.390625 h 0.59766 l 0.59765,-0.597656 v -1.792969 z m -5.37891,0.597656 -0.59765,2.390625 h 0.59765 l 1.19531,-2.390625 z m 10.16016,1.792969 v 0.597656 h 1.19531 q 5.37891,-0.597656 5.37891,-1.792968 h -0.59766 z m 8.36719,13.1484375 h 1.19531 V -5.34375 h -0.59766 z m 8.36718,4.1835938 v 1.1953124 l 0.59766,2.3906251 h 0.59766 v -1.1953126 l -0.59766,-2.3906249 z m -5.97656,1.7929687 v 1.1953125 l 1.79297,-0.5976563 v -1.1953125 z" stroke-width="0" stroke-linejoin="miter" stroke-miterlimit="2" fill="#5a3b01" stroke="#5a3b01" transform="translate(0 306.282812445) translate(725.0116029500001 44.547265679999995) scale(1.11) translate(-623.19922 49.570312)"></path>
      </g>
      <image xlink:href="" id="icon" x="0" y="0" style="display: none;"></image>
    </g>
  </g>
</svg>