<svg id="Capa_1" data-name="Capa 1" xmlns="http://www.w3.org/2000/svg" viewBox="0 0 909.93319 511.25143"><defs><style>.cls-1{fill:#040404;}.cls-2{fill:#1d1d1b;}</style></defs><path class="cls-1" d="M330.36829,574.16206H327.131q-43.116-.00009-86.23189-.04974c-2.73336-.00761-3.39815.322-2.43453,3.25932a32.00775,32.00775,0,1,1-54.0403-11.75186,4.52284,4.52284,0,0,0,1.16611-5.07378q-31.45145-104.15759-62.71354-208.37223c-.76792-2.562-1.77628-3.31785-4.40973-3.24464-8.06071.22407-16.13079.1789-24.1965.12632-3.78462-.02467-6.527-2.31993-7.10117-5.61588a6.69041,6.69041,0,0,1,4.44927-7.53931,9.80327,9.80327,0,0,1,3.007-.39146q15.5072-.08856,31.01478-.10687c4.79991-.00376,6.42451,1.18168,7.85656,5.80285,3.32028,10.71439,6.63378,21.43142,9.83669,32.18113.56556,1.89814,1.19583,2.63083,3.4258,2.62839q123.21275-.13459,246.42575-.07313c7.11093.00045,10.06561,3.1835,8.355,10.07749-3.7391,15.06878-7.88861,30.03653-11.937,45.02761q-11.481,42.51378-23.03417,85.00809c-1.92707,7.11365-3.59379,8.40769-10.90807,8.41441q-81.45886.075-162.91764.08579c-3.24675-.00256-3.81716.62951-2.8,3.75157,2.773,8.51119,5.232,17.12534,7.75845,25.71548.51029,1.735.921,2.56839,3.212,1.9613,8.17572-2.16646,15.9883-.7919,23.26289,3.45187a8.4607,8.4607,0,0,0,4.49348,1.1636q55.2157-.039,110.43147,0a9.14656,9.14656,0,0,0,4.79753-1.27282,32.04234,32.04234,0,1,1-16.08981,26.32015C327.95735,581.765,329.11545,578.0984,330.36829,574.16206Zm-62.96822-184.6658q-57.58619,0-115.17235.00032c-4.03051,0-4.036.00375-2.93652,3.64993q17.2233,57.11588,34.35953,114.25764c.8917,2.99558,2.1042,3.78286,5.09061,3.77412q80.92475-.23687,161.85-.19783c2.72565.00135,3.62729-.97738,4.27972-3.40479q15.35413-57.12711,30.85708-114.21423c1.04387-3.85883,1.02955-3.86475-3.15571-3.86481Q324.98626,389.4958,267.40007,389.49626ZM378.35959,586.95392a18.47955,18.47955,0,1,0-18.143,18.61686A18.39785,18.39785,0,0,0,378.35959,586.95392ZM207.89418,605.57465a18.48267,18.48267,0,1,0-18.42056-18.43542A18.49435,18.49435,0,0,0,207.89418,605.57465Z" transform="translate(-87.06681 -107.97575)"/><path class="cls-1" d="M293.01187,466.04963c.10511,2.06715-.59392,3.618-2.84769,3.88-2.2177.25779-3.25518-1.01931-3.73529-3.06529-1.48945-6.347-6.44619-9.85633-13.82751-9.87964-7.38041-.02331-12.30854,3.37712-13.98195,9.73733-.53305,2.026-1.62221,3.33979-3.803,2.99726-2.162-.33956-2.91379-1.91427-2.73842-3.99932a14.76048,14.76048,0,0,1,5.77341-10.38258c7.99925-6.61811,21.71337-6.51506,29.62466.20279C290.86375,458.41679,292.97327,462.42311,293.01187,466.04963Z" transform="translate(-87.06681 -107.97575)"/><path class="cls-1" d="M306.71336,432.96267a6.86639,6.86639,0,1,1-6.92366,6.81977A6.73852,6.73852,0,0,1,306.71336,432.96267Z" transform="translate(-87.06681 -107.97575)"/><path class="cls-1" d="M246.26807,439.93127A6.76677,6.76677,0,1,1,239.762,433.028,6.75546,6.75546,0,0,1,246.26807,439.93127Z" transform="translate(-87.06681 -107.97575)"/><path class="cls-2" d="M337.58965,114.622a18.13228,18.13228,0,0,0-4.4725,11.44631v94.61718l36.029,9.39748,7.06837,78.928H333.11715v26.39094H380.297c5.22973,0,10.33537-2.2793,15.17424-6.77375,4.89459-4.54,7.3765-9.42787,7.3765-14.53012V209.81747l-39.72992-10.32776-4.38807-64.61989,44.118-5.90508V108.82416H348.18333C344.25281,108.82416,340.68781,110.77592,337.58965,114.622Z" transform="translate(-87.06681 -107.97575)"/><polygon class="cls-2" points="397.955 191.32 397.955 0.848 369.69 0.848 369.69 227.426 437.864 227.426 437.864 201.007 401.542 196.823 397.955 191.32"/><polygon class="cls-2" points="490.221 227.426 518.453 227.426 521.325 0.848 484.61 0.848 484.61 18.253 490.221 33.22 490.221 227.426"/><path class="cls-2" d="M672.72874,329.469c5.68981,3.993,13.92737,5.93294,25.18206,5.93294h47.1866v-57.2645h-23.936l-6.691,26.10054a7.16834,7.16834,0,0,1-1.27473.09286H695.488L689.28322,149.3552l-.054-1.32537-.71418-.47443a10.03741,10.03741,0,0,1-.16715-2.1493,19.56155,19.56155,0,0,1,2.33-9.51566c1.30174-2.37891,3.30415-3.48649,6.3027-3.48649h13.09332a3.54381,3.54381,0,0,1,1.1464.1393c.00169.02279.00169.049.00169.0785l3.34129,37.82966H739.7976l5.27954-41.2427.02026-20.38455H691.36329c-8.44354,0-15.16157,1.85721-19.965,5.51929-5.02628,3.82753-7.574,8.7179-7.574,14.536V313.47166C663.82427,319.96345,666.82113,325.346,672.72874,329.469Z" transform="translate(-87.06681 -107.97575)"/><polygon class="cls-2" points="788.768 218.979 763.898 110.797 776.299 101.122 783.169 0 750.835 8.641 754.301 88.968 737.406 103.25 737.406 0.848 721.231 0.848 710.981 4.788 715.114 227.426 741.142 227.426 741.142 126.011 743.53 124.167 759.719 227.426 781.53 227.426 788.768 218.979"/><path class="cls-2" d="M524.3203,383.17942l-.00169-.00169c-5.77761-3.218-12.91689-4.85069-21.21776-4.85069H454.9831V391.5014l6.85733,3.74143v209.662h23.27588V509.48648h13.9316c9.19149,0,16.476-1.6546,21.64914-4.91653,5.19006-3.267,8.71875-6.897,10.49323-10.79039a23.99227,23.99227,0,0,0,2.56464-9.649V396.19845C533.75492,391.0506,530.58078,386.671,524.3203,383.17942Zm-17.89083,21.80869-3.09478,77.89133-12.96332,3.01712a1.62733,1.62733,0,0,1-.88049-.28365l-.01266-.01013V397.63525a5.91836,5.91836,0,0,1,1.14894-.09117h5.2998c3.65532,0,6.30775.75808,7.883,2.254A7.97315,7.97315,0,0,1,506.42947,404.98811Z" transform="translate(-87.06681 -107.97575)"/><polygon class="cls-2" points="494.987 287.762 500.598 302.722 500.598 496.929 528.831 496.929 531.701 270.351 494.987 270.351 494.987 287.762"/><polygon class="cls-2" points="654.248 270.351 584.336 270.351 584.336 295.839 623.488 290.944 579.191 484.427 586.018 496.929 659.994 496.929 659.994 477.26 618.666 474.479 654.248 270.351"/><polygon class="cls-2" points="739.953 465.973 783.903 281.805 772.459 270.351 707.98 270.351 707.98 287.471 749.914 297.338 713.728 466.013 702.5 487.803 709.974 496.929 783.977 496.929 780.883 471.777 739.953 465.973"/><path class="cls-2" d="M983.91681,378.327H929.76905l-14.3596,226.57775h24.44762l6.94934-71.97358,20.40565-9.698,11.05377,81.67159H997Zm-21.27348,18.52818-1.842,110.33677-10.10659,1.63772V400.2556c0-.40014.076-.56222.22961-.67872Z" transform="translate(-87.06681 -107.97575)"/></svg>