<svg id="Capa_1" data-name="Capa 1" xmlns="http://www.w3.org/2000/svg" viewBox="0 0 450 200"><defs><style>.cls-1{fill:#fff;}</style></defs><path class="cls-1" d="M25.97611,56.35423c.146,1.46372-1.02054,2.427-1.39295,3.6875-.13073.44251-1.0575.97486.03052,1.41881.72745.29681,1.08977.24818,1.53425-.62679A18.55094,18.55094,0,0,1,30.946,55.05182c.46831.63226-.23181.87515-.46649,1.20146a33.6688,33.6688,0,0,0-3.31921,5.08532c-.20137.42421-1.0101,1.03944-.07852,1.50735a1.22482,1.22482,0,0,0,1.84894-.61989,18.3866,18.3866,0,0,1,3.77513-5.302c.48443-.42012.216-.72671-.00588-1.02673a2.39769,2.39769,0,0,0-1.78436-.82006c.67568-1.24705-.253-2.04676-.86194-2.89578-.24878-.34683-.47948-.05229-.64.25976a2.59,2.59,0,0,1-1.51561,1.62049A17.77674,17.77674,0,0,1,30.57881,47.99c.24381-.3353.52168-.63946,1.0093-.46151.04818.237.11489.52543.42623.35084.2121-.11895.08625-.32067-.09954-.43463a4.2127,4.2127,0,0,1-.00837-1.0541.64225.64225,0,0,1,.70506-.4646.70059.70059,0,0,1,.44061.51546c-.0077,1.10559.58452,2.3-.42725,3.27637-.37662.36344-.13367.76211-.00587,1.12117,1.23245,3.46247,3.36477,5.86656,7.28492,6.15062.33824.02451.79821-.0769.91241.35824.10414.39683-.291.6039-.55311.83779a21.02923,21.02923,0,0,0-5.4458,7.421c-.34685.80514-.44443,1.2781.61024,1.51415.71855.16083.89568.37272,1.32786-.6533A15.12374,15.12374,0,0,1,41.85,59.76682a2.09694,2.09694,0,0,1,2.50915-.02123c-.32278-1.06378-.59544-1.84507.37465-2.34653.96235-.49744,1.40339.28744,1.94154.71679a16.04508,16.04508,0,0,1,3.373,4.097c.19792.311.61.62242.24038,1.07226a1.24324,1.24324,0,0,1-1.25285.35655,1.40513,1.40513,0,0,1-.28-.10874c-2.42238-.93-2.53962-.89533-4.137,1.26362a19.57234,19.57234,0,0,0-2.3358,4.24819c-.15354.37439-.78684.85165-.10659,1.30992a1.31294,1.31294,0,0,0,1.69669-.08489c.82459-.74951,1.57328-1.58226,2.36137-2.37254a1.79282,1.79282,0,0,1,.85149-.52391c-.54779.99642-1.12609,1.97774-1.62976,2.996-.23247.47-.57473,1.1218.00151,1.49059.51779.33138.89894-.24766,1.2484-.60361.818-.83318,1.63008-1.67214,2.45185-2.50156.12213-.12328.30236-.36421.44576-.06934.06356.13071-.07528.35994-.12188.54383l.044.06477a6.26238,6.26238,0,0,0-1.55161,2.82437c-.17821.52611-.55112,1.07079.23814,1.54587.72335.43538,1.27047.51469,1.77476-.23687l.09314-.08681q1.71817-1.9858,3.43634-3.9716l.33745.15495c-.66392,1.71217-1.92667,3.267-1.67173,5.29675,1.49427-.4135,2.13244-1.846,3.35788-2.63672.12985,1.03808-.662,1.53617-1.015,2.22638-1.07978,2.11088-1.067,2.2423,1.02727,3.58371.65815-1.3959,1.89111-2.53331,1.67788-4.29064-.099-.8158-.08294-1.58083-.96844-2.07268-.70831-.39346-.34988-1.21015-.29443-1.79249a2.156,2.156,0,0,0-1.57447-2.55858c-.48615-.16964-1.106-.2845-.91527-1.11321.20147-.87539.1231-1.9289,1.022-2.40048.649-.34043,1.2682.21291,1.7401.66936A11.79048,11.79048,0,0,1,59.49572,69.861c1.03556,3.96735,3.66345,6.294,7.14956,7.90861,4.25893,1.97246,7.00177,5.5331,9.39913,9.29885,2.28074,3.58255,4.899,6.51325,8.88848,8.27933a18.848,18.848,0,0,1,6.55182,5.13484c.20463.23958.66339.44562.43318.85747-.1861.333-.593.34126-.958.34759-1.823.03168-3.6556.17456-5.23727-1.06094a6.76845,6.76845,0,0,0-1.60046-.86605A16.39029,16.39029,0,0,1,74.42978,89.009c-.17637.165-.31749.23386-.34812.33593-.19354.64489-.37109,1.27914-1.19252,1.39674-.291.04168-.58167-.01223-.60351-.2854-.05546-.69393-.21261-1.423.36191-2.023.31023-.324.5764-.6902.85925-1.03351-.91266-1.01779-1.822-1.9122-3.08738-.422-.44464-.99042.23755-1.65273.16718-2.40009-.04192-.44518.06822-.92076-.553-1.09757-.56867-.16183-.6486.221-.86211.58122a2.29224,2.29224,0,0,1-1.612,1.31523c-.09983-1.04516.50276-2.0065.17859-3.09806-.90968.29356-1.36748,1.12757-2.03892,1.69075-.24066.20185-.41231.76972-.8058.45487-.3896-.31174-.30538-.76627.04016-1.199A8.13664,8.13664,0,0,1,68.09575,80.524c-1.64979-.50939-2.99-1.30168-4.54526-.85341-.685.19747-.80724-.07935-.85984-.61548-.05555-.56634-.12-1.27537-.80588-1.2675-.628.00721-.49107.79874-.6741,1.23348a5.59458,5.59458,0,0,1-1.313,2.35545c-.22472.18882-.567.3767-.82584.16441a.82557.82557,0,0,1-.11553-.70264,21.44521,21.44521,0,0,1,.98413-3.18255c.58171-1.28877-.57406-1.4651-1.14236-1.9135-.71715-.56582-1.08517.1858-1.38257.684-.80749,1.35283-1.1768,2.59416-.17876,4.19853a101.21053,101.21053,0,0,0,7.33562,10.637c1.47741,1.81288,1.83241,4.25116,2.51837,6.4599a48.26126,48.26126,0,0,1,2.51464,13.7163c.00437.34475-.09395.90429.2347.9745,1.11409.23807.6301,1.03168.54347,1.5488-.54544,3.256-.89372,6.53441-1.2929,9.80917-.49122,4.02974-.01634,8.01789.22116,12.02072a10.68862,10.68862,0,0,1,.00939,3.70617l-.69949-.06863q-.18245-2.3247-.3649-4.64939l-.29089-.01243c-.03079.40119-.07942.80193-.08964,1.20364-.10749,4.22454.1423,8.43915.38706,12.65263a6.75278,6.75278,0,0,1-.451,2.831c-.15568.4098-.29964.96589-.83913.96638-.53375.00047-.70242-.5441-.84557-.95689a40.94027,40.94027,0,0,1-1.27192-6.71075c-1.101-6.50593.43876-12.84921,1.17026-19.2262a52.85871,52.85871,0,0,0-1.20627-19.31942,104.5196,104.5196,0,0,0-5.52027-16.04186A26.4882,26.4882,0,0,0,48.89491,77.97612,163.36853,163.36853,0,0,0,27.95177,66.89988,30.93356,30.93356,0,0,1,13.73166,54.056,36.96948,36.96948,0,0,1,8.76872,30.814c.34622-3.49731,2.472-6.1697,4.92821-8.52906a44.778,44.778,0,0,1,13.58825-8.54385C35.741,10.09405,44.28673,6.66887,53.026,3.73642c3.34213-1.12146,6.62327-1.82486,10.054-.48223,3.54222,1.38627,7.05465.53484,10.60435-.08262,8.84443-1.53848,17.72587-2.33408,26.65933-.70466a37.68053,37.68053,0,0,1,16.479,7.65028c7.38068,5.68933,12.96655,12.993,19.09389,19.81761a7.496,7.496,0,0,1,1.44821,7.02287c-.58465,2.40891-1.32395,4.7799-1.94908,7.1796-.12239.46987-.49628.95962.14342,1.48777,3.17589,2.62218,5.39874,6.04874,7.73624,9.37231a4.46844,4.46844,0,0,0,1.741,1.61125,9.81609,9.81609,0,0,1,3.72083,3.73059,30.88669,30.88669,0,0,1,4.03,8.65282A32.108,32.108,0,0,0,163.449,84.959c2.93008,2.46841,3.81121,5.5867,4.37873,9.02172a7.26413,7.26413,0,0,1,.2316,1.962c-.48689,4.11108,1.50611,7.456,3.29324,10.85673,1.32031,2.51242,2.6649,5.01619,4.10887,7.4586a23.24234,23.24234,0,0,1,2.79016,16.85258c-.77673,3.98045-1.52578,7.96633-2.28615,11.95a5.932,5.932,0,0,0,.02472,2.42591,8.55826,8.55826,0,0,1,.16395,3.031c-1.001,7.56254.79589,14.84409,2.22713,22.1556.18008.91992.25133,1.48781-.69831,1.95346a1.77866,1.77866,0,0,0-.95026,2.05577c.17365.99815.37492,1.99519.47008,3.0016.04305.455.70739,1.15171-.50342,1.338-.60362.09287.09016.71548.12357,1.10577.04046.4728.49866.98976-.29961,1.21857-.97086.27826-.61372-.55261-.70207-.92856a81.38769,81.38769,0,0,0-2.1099-8.2367,23.92878,23.92878,0,0,0-1.06228-2.51235c-.21577-.44742-.51463-1.0955-1.02666-1.0034-.64516.11605-.30807.84873-.37763,1.30162a59.69327,59.69327,0,0,0-.38736,14.59787,15.11369,15.11369,0,0,1-.14177,3.64707,18.69585,18.69585,0,0,0,.35945,6.50324c.15245.75848.74362,1.794-.43309,2.43359-1.707.92774-2.7695.30083-2.77621-1.74745-.01467-4.47651.01768-8.95315.03085-13.42975l.00507-1.70569a2.00656,2.00656,0,0,0-.32017,1.5939c-.0302,4.32385-.02863,8.648-.06172,12.97177-.00289.37826.28094,1.00249-.49566,1.02466-.67555.01931-.60485-.52321-.69731-.96231a12.43409,12.43409,0,0,1-.25124-2.87226c.161-6.91142.20721-13.82974,1.25208-20.68639a17.20982,17.20982,0,0,1,1.17806-4.387,2.13371,2.13371,0,0,1,2.46355-1.5465c.0366.12345.05471.30563.23629.20323.04835-.02728-.01054-.24482-.02018-.375-.63365-1.52272-1.5702-2.94343-1.66515-4.84782,1.5722.55566,2.33409,1.84666,3.43263,2.87064.52126-.78781.08685-1.50484-.10932-2.156-1.41749-4.70585-.82932-9.41121-.12366-14.13267.23194-1.55179.8346-3.34641.3129-4.64648-.903-2.25019.57686-3.60928,1.10877-5.33586.18182-.59014.61118-1.15114.31259-1.828l-.01619.03485c.60233-.08623.15685-.70068.4698-.9328l.15712-.572c-.00516-1.91482.51657-3.80849.23411-5.80853-.78993.01618-1.69741,1.95628-2.36621-.07865a1.68929,1.68929,0,0,1,1.02642-2.351c1.31439-.52351.99363.76143,1.38823,1.59363.25887-5.69487-1.76532-10.42385-4.23923-15.0689-.60588.31486.00654,1.19361-.70759,1.22788-.73533.03533-.86862-.68084-.97187-1.17666a10.51344,10.51344,0,0,0-2.00029-4.39022,11.97929,11.97929,0,0,1-2.47944-8.6385c.1386-1.20931-1.22457-1.6378-1.9942-2.34315l.01715.03261c.01683-.24376.07459-.52938-.33954-.33208l.02559.03536c.26673-.39779.12265-.59517-.31618-.64879l.02967.01868c-.14576-.90779.09268-1.97113-1.19178-2.35464a.64735.64735,0,0,1-.2086-1.12527,1.13438,1.13438,0,0,1,1.746-.01068,4.47362,4.47362,0,0,1,.95447,2.18749c.07926.30821.09679.84869.51674.81142.60168-.05335.36109-.62333.34743-.97765a9.94513,9.94513,0,0,0-4.16451-7.98688c-.46608.374.42807.889-.20278,1.18458l-.30059.04638c-.73876.26054-.94827-.30113-1.26219-.7707-.84614-1.26566-1.65227-2.56892-2.60991-3.74686a28.39763,28.39763,0,0,1-4.30347-7.29358,23.69777,23.69777,0,0,0-3.4048-6.092c-.438-.54083-.79175-1.20114.12587-1.71256.62779-.34991.28808-.90517.19371-1.33762a11.19358,11.19358,0,0,0-2.99132-5.21823,26.07051,26.07051,0,0,0-4.80239-3.9789,4.52394,4.52394,0,0,1-1.90856-2.27467l-.06119-.02213c-.15536-.11744-.17674-.43207-.48251-.32812l.01734.01222a19.44481,19.44481,0,0,0-6.308-8.02394c-.085-.18083.03061-.61588-.34419-.43823-.24261.115-.05173.44416.07221.66167a7.93061,7.93061,0,0,1,1.02551,3.5156l-.52019-.00836c-.67143-.43719-.56021-1.40246-1.23744-1.83573l.01254.01194a2.20814,2.20814,0,0,0-.6857-1.78693l.04782.044c-.56329-1.10938-1.47881-1.25648-2.64654-1.20318a88.32558,88.32558,0,0,0-10.42748,1.14067c-.45624.07562-.90678.31728-.93038-.47818-.01687-.5687.15252-.7745.75132-.844,4.1834-.4856,8.377-.84107,12.57741-1.13725.89242-.06292,1.32454.27687,1.33859,1.263,1.13348-.71012,1.30083-1.81716,1.69509-2.76762.26991-.65071.41362-1.35321.62417-2.02931.559-1.795.848-3.42772-.33952-5.26348-1.11279-1.7202-1.276-3.91786-1.65152-5.95958-.07327-.3985-.17415-.79414-.21471-1.19591-.05842-.57859-.43061-.61728-.86541-.541-.58752.103-.31185.50388-.25737.81914a40.05441,40.05441,0,0,1,1.0039,6.29539c.00474.37671.38107,1.04421-.35738,1.08648-.68245.039-.46847-.64456-.55-1.04587a60.57259,60.57259,0,0,0-2.37865-9.55937,5.24754,5.24754,0,0,0-1.4751-2.3881,2.29838,2.29838,0,0,0,.07286,1.69633c1.07764,4.00376,2.14876,8.00929,3.24223,12.00872.14774.54038.50773,1.18035-.30872,1.34348-.744.14863-.58758-.64313-.71859-1.06535C126.94887,31.67925,125.695,26.14005,123.4,20.93759l-.37245-.43261c-.30073.27647-.11007.52154.04908.76861,1.31144,4.30746,2.89059,8.54242,3.56313,13.02328.11068.73747.61553,1.97554-.17732,2.09647-.99106.15115-.6997-1.19029-.8657-1.89434-1.03361-4.38407-1.8862-8.81968-3.61007-13.007-.64948-1.5776-1.21528-3.27143-2.98744-4.03491a.534.534,0,0,1-.28257-.75647c.55105-.97625-.03443-1.40176-.71412-1.958-.78832-.64509-1.00857.02347-1.44128.3914a1.05033,1.05033,0,0,1-1.02145.062c-5.4252-1.71472-11.04306-2.55117-16.59888-3.67486-.55858-.113-1.71427.07738-1.3825-1.074.30078-1.04383,1.19416-.37407,1.7691-.25566,1.53375.31589,3.02967.81231,4.55991,1.14931,2.37387.5228,4.76167.98363,7.1493,1.44083.31237.05983.88076.396.91111-.26456.02561-.55751,1.00987-.91172.21564-1.6609A10.3123,10.3123,0,0,0,108.985,8.82732a47.59684,47.59684,0,0,0-12.38884-2.9065C91.317,5.24559,86.03587,4.38251,80.67388,4.83095a23.18739,23.18739,0,0,0-8.30564,2.04831,9.028,9.028,0,0,0,3.7638-.31059,27.4622,27.4622,0,0,1,6.98287.12935c.39913.02877.71283.129.68731.60664-.02656.49707-.36428.54029-.75652.48453-.45233-.06432-.90789-.11067-1.35682-.19323a15.94872,15.94872,0,0,0-6.43081.404,15.48187,15.48187,0,0,1-8.51342-.8522,4.3734,4.3734,0,0,0-2.67011-.522l.01084.01223a9.76185,9.76185,0,0,0-6.9168-1.19747c-1.22077.28945-2.42386.65355-3.63495.98387-.3136.20546-.86221-.03284-1.08158.65371l1.36656-.32419a31.19262,31.19262,0,0,1,5.86683-.80394c.44129.004,1.02836-.15368,1.01216.54695-.01482.6408-.61267.3678-.9551.42108C52.13229,8.102,44.576,9.52551,37.47869,12.65782c-3.69714,1.63171-7.30548,3.46535-10.94407,5.22816-.23947.116-.60911.14781-.65909.53081l.019-.01872c-.286-.03044-.55648-.03008-.649.32549l.03323-.02382c-.20247.02711-.5118-.04894-.33357.34577l.03988-.0299c-.41608-.288-.5939-.098-.65479.32667l.03842-.02594a1.35876,1.35876,0,0,0-1.56271.94054l.04986-.01357c-.291-.39134-.5484-.03544-.752.081a35.12368,35.12368,0,0,0-8.43517,7.3912,1.84039,1.84039,0,0,0-.64921,1.53838c.75645-.0407.95643-.70365,1.30943-1.10681a15.68544,15.68544,0,0,1,4.37506-3.73946c2.68848-1.42118,4.9727-.93948,6.88659,1.42114a20.865,20.865,0,0,1,2.92783,5.96129c.55936-.05415.1607-1.00653.87695-.79548.481.14174.37356.53943.43962.86551a6.00925,6.00925,0,0,1,.287,2.98973c-.212.68437.26434,2.0793-1.37385,1.6572-.26795-.069-.24148.27437-.25357.45288a32.21924,32.21924,0,0,1-1.414,7.38794c1.7393-1.02265,1.54662-2.66434,2.24037-3.71991.38292-.03919.46576.23057.61729.42364.29324.37364-.02095,1.23917.67927,1.185.70128-.05424.56532-.89061.61668-1.35366.13394-1.20768.07441-2.43571.13015-3.65387.01813-.39635-.24456-1.01527.50109-1.04233.74476-.027.55291.58075.56589.995.02388.7621-.00731,1.52576.005,2.28844a1.4756,1.4756,0,0,0,.70561,1.54952c.00352-1.18949.02465-2.15319.00225-3.11586-.01307-.56144.13887-.88518.77192-.782.69242.1129.432.58467.30556.92356a1.884,1.884,0,0,0,.0527,1.46715c.14044.34564.16939.64283.65983.63521.46992-.00731.78972-.09394.8375-.626.09379-1.04452.60424-1.21344,1.55686-.87608a3.29024,3.29024,0,0,0,2.1937-.42692A16.22365,16.22365,0,0,0,46.539,32.88023l-.00759,2.56262c1.08248-1.37846,1.87953-2.42185,2.70975-3.43811.38809-.47508.77151-1.393,1.49268-.813.56125.45142-.27974.94355-.54482,1.36532a15.3577,15.3577,0,0,0-1.6852,2.87828q-.00184.17877-.00457.35736l.2923-.1322c.40819-.29243.80715-.599,1.22738-.873.36714-.2393.67967-.85,1.124-.61938.5748.29838.09982.88809.05223,1.45839a21.05309,21.05309,0,0,0,4.6691-1.22951,28.92537,28.92537,0,0,0,8.04927-3.8616,13.23143,13.23143,0,0,0,4.48278-5.08189c.48037-1.001,1.14275-1.91369,1.70548-2.87644A2.112,2.112,0,0,1,72.885,21.41171c.83389.328.88247-.14655,1.06836-.70726a6.813,6.813,0,0,1,2.61139-3.45513c.515.55232.20765.99078-.05644,1.389-1.06584,1.60711-2.1154,3.22781-3.25711,4.78006-.3287.44689-.513,1.26269-1.45089,1.04813-.15338-.03508-.70932.64672-.64252.86077.45923,1.47161-.246,2.8869-.16505,4.68871l3.66592-4.50979.37668.193c-.49429,1.9604-2.18574,3.56637-1.99,5.74677.50329-.85111.58025-1.92036,1.43626-2.541.33828-.24528.62109-.83944,1.13077-.5008.59541.3956.00218.806-.15524,1.17163-.21939.50958-.53833.97527-.78974,1.47236-.219.43288-.59641.85627.09033,1.28261.6044.37519.9293.02529,1.301-.33012a5.8068,5.8068,0,0,0,1.58689-2.20352c.12038-.33749.31009-.54665.6703-.38339.42932.19459.20341.48919.05762.75093q-.62883,1.12895-1.26363,2.25455c-.20108.35732-.45746.71741.00875,1.06308a.85579.85579,0,0,0,1.23191-.00689c.53211-.51072,1.07-1.01537,1.72391-1.63489a3.52293,3.52293,0,0,1,.1227.62764c-.11875,1.75419-.11878,1.76911,1.67708,1.51119.32967-.04736.58739-.15767.68271.27666.26269,1.19694,1.236,1.1605,2.14968,1.25144,5.90643.58793,10.45326-1.79436,13.99416-6.3904a31.29191,31.29191,0,0,0,3.82048-6.20958,7.6673,7.6673,0,0,1,2.77668-2.89216c.19019,1.052-.42853,1.67071-.65689,2.39286-.50368,1.59269-1.03541,3.17648-1.547,4.76668-.07731.24031-.241.6085-.14047.72679,1.30056,1.53045-.25345,2.52906-.68911,3.70833-.29629.80206-.80756,1.52221-1.17044,2.30328-.14023.30184-.64056.6164-.12187,1.01746.5633.43557.91236.11119,1.26129-.328.75874-.955,1.52461-1.905,2.31251-2.83594.29789-.352.50214-.87074,1.2296-.9003-.20882,1.11895-.95294,1.86164-1.29592,2.77639-.20885.55707-1.14625,1.24349-.50131,1.6348.77913.47273.82887-.70763,1.178-1.16157a12.799,12.799,0,0,1,1.7871-2.38682c.38038.99837-.26823,1.67438-.52059,2.43966-.16827.51027-.9158,1.14422-.31675,1.5374.78582.51577.8143-.59425,1.21156-.94393.30161-.26549.51741-.626.79541-.92166.24341-.25886.57426-.59386.90758-.37015.43176.28979.02546.61-.14911.89678a2.09485,2.09485,0,0,0-.34058,1.8113l2.105-.99492c.45473.36059.08812.5871.01083.84809-.099.33424-.70291.56752-.22987,1.01813a.89173.89173,0,0,0,1.24063.06547,9.20765,9.20765,0,0,1,1.03605-.63818c.248-.12633.45944-.40729.819-.216.47878.25461.24991.57612.12485.8948-.09284.23661-.211.48581.14917.591.294.08584.47548-.06656.565-.3434.03128-.09669.05474-.19613.08988-.29131.22239-.60243.50054-1.13314,1.291-1.02071a.79844.79844,0,0,1,.755.63829c.201.92327-.63723.97071-1.15656,1.41782,5.36323-.1709,10.81941-1.13869,15.97291,2.3622-2.18278.24014-3.75014,1.76142-5.94717,1.13225-2.61987-.75026-5.23191.01754-7.83768.3621-.467.06174-1.2209.595-1.35345-.21663-.155-.94929.81781-.69909,1.32954-.767a61.31975,61.31975,0,0,1,9.42123-.63014c.37973.00835,1.04136.31607,1.11264-.3544.05986-.56311-.62087-.60653-1.0039-.76533a4.00226,4.00226,0,0,0-2.39007.21142,50.49275,50.49275,0,0,1-14.55479.54231c-1.01457-.08918-1.40268.17515-1.44635,1.26254a10.48779,10.48779,0,0,1-1.8025,5.8883c-2.732,3.74473-3.89225,4.04623-8.24533,2.13441a4.97939,4.97939,0,0,1-1.27648-8.185,9.86485,9.86485,0,0,1,3.18419-2.04317c.40889-.17481.81545-.3551,1.26795-.55246a11.66143,11.66143,0,0,0-7.3872-1.49079c-2.55776.39116-5.11676.824-7.69189,1.03756-2.55863.21215-5.00629-.6544-7.47866-1.17994a64.21366,64.21366,0,0,1-11.43737-3.55684c-.69562-.29071-1.3186-.54428-.33689-1.2584.32056-.0881.80369-.17361.51066-.6109-.28666-.42779-.54953.01946-.77462.23552a104.06639,104.06639,0,0,1-14.23285,6.75631,10.84858,10.84858,0,0,1-6.63829.66866,6.95481,6.95481,0,0,0-5.37036.838A111.514,111.514,0,0,1,28.27812,45.828a4.25673,4.25673,0,0,0-2.00624,1.5147c-1.74594,2.4895-3.51724,4.9612-5.27713,7.44093a1.56744,1.56744,0,0,0-.41089,1.26134c.11112.48942-.36957,1.22564.34356,1.43765.8061.23965.50257-.6819.7943-1.01557.23352-.26708.39643-.67584.81392-.49939.33554.14181.2519.58919.12869.79394-.39187.65123.3481,1.52317-.46652,2.08621-.25032.173-.07557.46432.13712.63625.3172.2564.55125.07006.777-.16276q1.42948-1.474,2.86379-2.94331Zm-6.997-5.08493a2.46988,2.46988,0,0,0-1.26862,2.08544c.47629-.83882,1.46816-1.08464,1.25245-2.104.34349.20677.364-.00593.347-.26741a53.72826,53.72826,0,0,0,7.51247-9.96147c.21815-.35238.03912-.49285-.21337-.73229-.68918-.6535-1.12719-.31547-1.59737.26849-1.70413,2.11651-3.4259,4.21881-5.2127,6.41457-.21786-.79814.28376-1.16856.5994-1.59029,1.795-2.39829,3.63446-4.76221,5.21192-7.318a3.90554,3.90554,0,0,0,.44016-3.205,39.7585,39.7585,0,0,0-6.25483,8.24489c-.56663.95243-1.75478,1.80084-.91433,3.23358.21762.371-.381.51117-.60382.75635a27.09622,27.09622,0,0,0-1.83363,2.02856.81761.81761,0,0,0,.31824,1.29469c.6071.25706.58953-.40887.74028-.71016.42246-.8443.65537-1.82222,1.87811-2.20147.14321,1.224-1.37927,2.41256-.03127,3.51989ZM70.39436,26.78356,68.044,29.93664c1.92879-.53319,2.14816-1.81556,2.51712-2.9872.02277-.12431.09548-.338.05992-.3579C70.43937,26.49,70.40849,26.64154,70.39436,26.78356Zm30.2068,4.98866a6.332,6.332,0,0,0-1.9956,3.63735,5.47491,5.47491,0,0,0,1.97111-3.66838c.1438.1053.24112.06509.28-.10154.00882-.03784-.03421-.08778-.05336-.13215Zm-84.53722-.84464c.62762-1.78719,2.38042-2.9844,2.79908-5.0934-4.19406,2.489-7.217,6.96554-6.52514,9.48391.61911-.48644.82621-1.3709,1.622-1.69448.10122.09028.326.19637.16946.32851-1.24831,1.0541-.70025,2.78944-1.53595,4.00522-.212.30841-.17665.73795.15295,1.29343a32.90507,32.90507,0,0,1,3.84122-6.052c1.678-2.26674,3.38572-4.51152,5.07981-6.76666.13268-.06.2777-.17111.13854-.29147-.14387-.12443-.22334.02984-.245.178-1.75117.84094-2.93426,2.33-4.24684,3.68006C16.96127,30.3616,16.84172,31.115,16.06394,30.92758Zm4.0894,6.45221.26407.33773c-1.69555,2.32662-2.37852,5.16841-3.85442,7.61017-.18154.30035-.938.658-.25431,1.08556.59751.37369.74257-.309.9424-.66758a70.42074,70.42074,0,0,1,8.1613-11.551c1.04379-1.21682.98333-1.75676-.31-3.01945-.72433.50366-.70709,1.7996-1.99423,1.91223.45176-1.4375,2.006-2.4292,1.14427-4.28067-4.12743,4.09072-7.75962,8.377-9.93237,13.751-.25754.637.16679,1.06525.22191,1.59755.03067.29628.0635.65585.43311.72357.51314.094.53513-.39277.65491-.68534A24.17912,24.17912,0,0,1,20.15334,37.37979Zm86.675,2.53184c-1.18645,1.34875-2.23648,1.22173-3.32048.11407-.37009-.37817-.62235-.32319-.97821.24776-.83367,1.33752-1.34486,1.34172-2.29638.31835a.48932.48932,0,0,0-.26606-.10713c-.7525-.1273-2.63322,2.094-2.29668,2.81875.8244,1.77538,1.87688,3.38246,3.84965,4.10453,1.73522.63513,2.764.3535,3.79842-1.133A9.31145,9.31145,0,0,0,106.82837,39.91163Zm-91.56148-1.382c2.48986-3.44371,4.91376-6.81137,7.56005-10.01148.25569-.3092,1.0363-.67569.40966-1.178-.51637-.41393-.89045.23118-1.2265.57327a49.98286,49.98286,0,0,0-6.871,8.86736A1.24663,1.24663,0,0,0,15.26689,38.52962Zm11.388,7.10494-.28819-.26661a29.62505,29.62505,0,0,0-6.28219,6.46014.8891.8891,0,0,0-.13894.71416c.41731.98078-.12272,1.383-.90594,1.72131-.19272.08325-.70956.07815-.40262.57122.203.32613.17527.85655.69182.9056.38138.03622.46847-.3383.58862-.60057a21.08445,21.08445,0,0,1,2.37467-3.70448C23.73265,49.49157,25.19925,47.56714,26.65486,45.63456ZM37.61724,59.465c-1.96543-.95587-1.96729-.95727-3.15.62554A13.42863,13.42863,0,0,0,32.637,63.20672a3.77626,3.77626,0,0,0-.22033,1.92448.65827.65827,0,0,0,.57578.61022c.35359.05258.54166-.13541.6689-.46051C34.52282,63.07987,36.1255,61.37729,37.61724,59.465ZM29.691,63.37792c-.03914.42709-.05542.80676.45889.99548a.44637.44637,0,0,0,.6171-.218q1.9658-2.98357,3.94205-5.96026a.61726.61726,0,0,0-.13929-.82087.573.573,0,0,0-.82518-.05248C31.86464,58.98524,30.16713,60.77772,29.691,63.37792Zm16.14544-1.65746c-1.22408-.89416-1.76969-.16838-2.47411.692a17.70751,17.70751,0,0,0-3.47262,6.05421c-.08606.2835-.34473.59035-.029.81283.36764.25909.521-.13266.66479-.37153A88.49833,88.49833,0,0,1,45.83646,61.72046ZM36.56126,67.283c.70437.26737,1.31886,1.13761,2.02494.18466q2.21568-2.99046,4.44957-5.96739c.276-.36786.39425-.73857.00985-1.0655-.36075-.30684-.66273.00819-.93339.21469a9.14127,9.14127,0,0,0-3.41711,4.71465C38.36622,66.50218,37.92954,67.26062,36.56126,67.283ZM132.922,28.70429a34.34907,34.34907,0,0,0,1.47147,7.89581C135.44278,33.78141,134.83231,30.331,132.922,28.70429Zm41.7789,143.08376a9.1248,9.1248,0,0,0-.11927-3.44414c-.04853-.42272-.30068-.61491-.74245-.45991-.39846.1398-.60059.36572-.33534.77933A14.03042,14.03042,0,0,1,174.70088,171.78805Zm-1.59469-8.6367a1.58539,1.58539,0,0,0,.21855,1.295A.97321.97321,0,0,0,173.10619,163.15135ZM13.14792,29.53771l-.194-.18529c-.07578.09951-.1924.19165-.21217.30127-.01207.067.12476.1608.19471.24257Zm19.1454,19.62135c-.00686-.03444-.00241-.08424-.0233-.09967a.30292.30292,0,0,0-.1187-.02631l.03261.16985Z"/><path class="cls-1" d="M89.44065,131.18794c.28883.97177.13224,2.02834.564,2.955,1.92393-1.69772.90354-3.98378,1.18511-6.0193.05875-.42479-.36091-1.21542.46293-1.18158.79262.03257.39609.81336.382,1.22615a122.82784,122.82784,0,0,1-.87326,12.6186c-.1552,1.12635-.98849,2.01254-.91608,3.16234.15736,2.4988-.46725,4.9683-.09025,7.49675.38119,2.55649.43351,5.16249.62059,7.74746.19085,2.637.36928,5.27479.55957,7.91177.00658.09126.08219.17752.2023.42248.14767-2.39577.30955-4.63975.4204-6.88624.47354-9.59651,1.08214-19.18442,2.30958-28.71677A21.74759,21.74759,0,0,1,96.279,124.3663c.97728-1.87007,1.073-4.19557,1.60506-6.30736a14.27574,14.27574,0,0,1,.77232-2.13641c.12281-.285.29458-.758.71319-.58947a.77816.77816,0,0,1,.38059,1.14206,4.35248,4.35248,0,0,0-.60135,2.30835,35.81811,35.81811,0,0,1,3.3048-2.6344,2.18319,2.18319,0,0,1,2.643.07906,52.02415,52.02415,0,0,1,11.99474,12.04539,6.31249,6.31249,0,0,0,2.12309,1.88108c3.80374,2.05824,5.37186,5.48351,5.7114,9.62585.31123,3.797.55382,7.60251.986,11.386.39231,3.43457-.2954,6.78686-.5299,10.16923-.37249,5.37241-.93688,10.73146-1.409,16.09712a4.00366,4.00366,0,0,0,.0467,1.20277c.092.41327,1.15455.498.53924,1.1198a3.43844,3.43844,0,0,1-1.87557,1.135,5.93623,5.93623,0,0,0-3.60646,2.30808,3.782,3.782,0,0,1-1.67161,1.48886c-.24275-.56317.15311-.96288.3434-1.38113a46.76711,46.76711,0,0,0,4.49658-21.22534c-.16321-4.87091.14287-9.76308.37087-14.63953a14.57241,14.57241,0,0,0-1.88706-8.02518,26.36056,26.36056,0,0,0-1.92328-3.09925c-4.61811-6.05-9.24176-12.0935-14.77426-17.37436-.98771-.94278-1.37688-.60042-1.85615.31611a43.14215,43.14215,0,0,0-3.04739,9.04474,60.05245,60.05245,0,0,0-1.9952,16.39924,131.283,131.283,0,0,1-1.51273,22.18626,10.53192,10.53192,0,0,1-.2305,1.03731c-.51122,1.938-.69727,2.01415-2.39039.99653-.25664,2.13751.62323,4.08566.99949,6.11868.08447.45636.35316,1.20022-.14911,1.36855-.70749.23714-.84391-.56817-.99054-1.06221-.40789-1.37428-.74871-2.76848-1.28277-4.11789-.0061,2.06171.00348,4.12366-.02873,6.185-.00867.55471.2532,1.18456-.5774,1.54291-.82246.35485-1.35718-.112-1.97825-.39833-.74046-.34137-.40811-.96372-.30136-1.46226a23.73979,23.73979,0,0,0,.164-5.6237,215.84965,215.84965,0,0,0-6.63655-47.55031,70.31088,70.31088,0,0,0-4.71871-12.80906,5.36645,5.36645,0,0,0-1.34387-1.98912,38.13213,38.13213,0,0,0-1.42537,7.64638,8.788,8.788,0,0,0-.06024,3.90477c.34426,1.09075-.73734,2.08595-.65035,3.33727.48357,6.95673.31492,13.9286.28469,20.89588a19.22225,19.22225,0,0,0,.53374,3.44344c.10523.59775.87979,1.34447-.27843,1.95673-.37561.19857.38763,1.0134.482,1.6012.062.38624.3763.86387-.0399,1.09157-.39945.21853-.72373-.2329-.98908-.53344a9.63856,9.63856,0,0,1-1.74677-3.35118,50.89817,50.89817,0,0,1-2.74182-15.35879,1.73335,1.73335,0,0,1,.32409-1.29127c1.153-1.2816,1.13432-2.84766,1.18336-4.43521.20244-6.5525.50928-13.10435,2.24286-19.47231.55666-2.04477,1.23107-4.1,3.84544-4.591,1.83445-.34453,2.67815-.19164,3.79593,1.39154,1.74865,2.47674,2.5828,5.36169,3.59729,8.17159,2.22878,6.17324,2.78165,12.65237,3.56741,19.08948.38762,3.1754.8316,6.347.92315,9.55211.00809.28366-.05959.67706.3777.68753.55444.01326.43159-.447.44717-.77774a50.36843,50.36843,0,0,1,.1508-5.63128.65839.65839,0,0,0-.05984-.42737c-2.30782-3.51822-1.57133-7.51709-1.79234-11.36237-.01795-.31233-.151-.75222.4466-.76041.54581-.00746.50155.35612.51477.71451q.10119,2.74263.21137,5.485C89.31069,130.4683,89.20818,130.8499,89.44065,131.18794ZM79.732,107.12446c1.994,5.453,4.17964,10.82874,5.89538,16.37647C84.59568,117.70615,83.85965,111.80681,79.732,107.12446Zm13.8832,56.82411.53278-14.212A61.28476,61.28476,0,0,0,93.61517,163.94857ZM70.95932,140.16631l.32687-.04054c.00383-1.2936.01178-2.58723.0066-3.88078a3.35977,3.35977,0,0,0-.118-.58808,1.79425,1.79425,0,0,0-.19927,1.23846C70.95369,137.98536,70.96255,139.076,70.95932,140.16631ZM91.56741,170.948a1.18672,1.18672,0,0,0-.11016-1.18138A1.15231,1.15231,0,0,0,91.56741,170.948Z"/><path class="cls-1" d="M131.85436,124.80453a17.89166,17.89166,0,0,0-9.32948-5.0611,1.92334,1.92334,0,0,1-1.32865-.91754c-.32856-.49078-.959-1.09032-.52064-1.606.57884-.68082,1.03873.14827,1.48928.47284a20.64442,20.64442,0,0,0,6.10281,2.61673,5.284,5.284,0,0,1,2.62056,1.58152,28.26846,28.26846,0,0,0,3.21475,2.783c.33445.28212.86155.46791.64053,1.05761-.20563.54859-.70392.48932-1.16418.46966a.49839.49839,0,0,0-.59238-.26287.23338.23338,0,0,0-.11048.19926c.1288.31031.41149.34964.70291.35984.7963.4308,1.60538.84007,2.3831,1.30217.349.20731,1.07355.27372.427,1.02149-.33571.38826.19986.687.49447.68326.96723-.01217,2.29212.60186,2.79278-.346.374-.70808-.97685-1.02525-1.54419-1.52812-.60583-.537-1.2804-.99617-1.88915-1.53018-.22825-.20021-.6883-.37945-.4102-.82855.27229-.4397.68285-.36693,1.07353-.17538a15.09886,15.09886,0,0,1,3.821,2.95c.51045-1.1981.40811-2.6277,1.58344-3.51929a1.1143,1.1143,0,0,1-.07563,1.51514c-.72844.72.52978,2.08928-.89565,2.49108.23987.51462.51564.97983,1.1533,1.08188,2.76071.44206,4.5343,2.32282,6.19827,4.32919.24134.291,1.036.5769.32349,1.183-.73858.62834-1.05455.01875-1.413-.4815a12.73174,12.73174,0,0,0-2.21317-2.49925,3.2048,3.2048,0,0,0-2.93652-.95956c1.93861,3.92628,5.40219,5.52067,9.16685,6.71285l-.03221-.03288c.08275.77178.72763,1.0813,1.26651,1.40512a37.09479,37.09479,0,0,0,6.79367,2.96159c.3752-1.03435-.57513-1.50811-.76661-2.25053-.11423-.44283-.65559-.92084.01877-1.33312.76606-.4683.81413.33069,1.05161.67784.62879.91917,1.21552,1.8684,1.78961,2.82338a1.41031,1.41031,0,0,0,1.588.6027c.72053-.09725.35736-.71974.46234-1.09792a7.26275,7.26275,0,0,0,.05336-3.61471,7.573,7.573,0,0,1,.28257-3.76548c.15013-.52435.388-1.19475,1.11319-.96171.6237.20042.20147.78619.16434,1.18673q-.34484,3.71765-.74853,7.42972c-.0956.87648-.00017,1.53582,1.12676,1.43909.07979-1.375.09561-2.74769.27465-4.09871.05774-.43561-.14842-1.3647.70956-1.24714.686.094.31324.84386.32947,1.28748.04647,1.26965.01223,2.54233.00543,3.81381-.01071,2.00353-.078,2.05452-2.02693,1.495-.3271,1.07991.17534,2.07959.32536,3.091.0878.592-.07656.92191-.56648,1.035-.72355.16709-.44815-.48755-.51554-.79188a14.70537,14.70537,0,0,1-.4661-2.69185c-.04062-1.35808-.73124-1.42163-1.75077-1.1178-.09182.55035.35573.37757.57732.48652a1.19972,1.19972,0,0,1,.43558,2.0007c-1.64785,1.03592-.31967,1.69594.1461,2.3899a5.56871,5.56871,0,0,0,2.57022,2.07737c.82233.332,1.59073.62175,2.23987-.3788.23076-.35566.69389-.86762,1.25868-.33432.618.58356.06754.93536-.26547,1.388a2.29465,2.29465,0,0,1-2.94137.786,9.68136,9.68136,0,0,1-5.299-4.80226,7.45329,7.45329,0,0,0-4.27082-3.50428,55.49949,55.49949,0,0,1-11.32288-6.154,19.78618,19.78618,0,0,1-3.71636-2.75594c-.02921-.15128-.10289-.27671-.26152-.17062-.03894.026.0397.2281.0643.34924.03931.43821.67356,1.00012-.03415,1.27953-.68488.27039-.50292-.56012-.73558-.86918-1.0453-1.38856-2.58243-1.61-4.13572-1.84518-.44286-.06707-1.09921.26284-1.26359-.469a1.12258,1.12258,0,0,1,.43937-1.21137c.49077-.32293.85606.07239,1.31953.252.90884.35225,2.0325.02322,2.87065.77229l.41112.33015a.37042.37042,0,0,0-.15851-.59042,4.95435,4.95435,0,0,0-5.43429-2.41743c-.35762.08153-.57426.28519-.8874-.05156-3.52357-3.78941-8.25369-5.38743-12.92679-7.07137-1.22256-.44055-2.33-1.29231-3.85628-.654-.627.26219-1.47734-.51646-2.12606-1.01062a25.73889,25.73889,0,0,1-4.83309-5.05843,5.198,5.198,0,0,0-2.51386-1.81921c-1.37006-.4968-2.88092-.84871-3.92621-2.31893,1.35654-.14386,2.33485.68861,3.6395.48636-1.33811-1.46976-3.09066-1.87182-4.67791-2.56557a.3614.3614,0,0,0-.50548.1604c-.486.78187-.94528.141-1.38238-.05355-.45518-.20265-.76882-.5963-.53469-1.10065.42477-.915-.11276-1.23465-.798-1.58821a16.24841,16.24841,0,0,1-4.60533-3.19371c-.36261-.389-.89578-.81188-.60741-1.43458.29543-.638.81752.022,1.19114-.09018.94646-.28405,2.00007-.06171,3.02272-.627-.70712-.19779-1.28645-.34228-1.85311-.52594a.54547.54547,0,0,1-.34226-.617c.03393-.34731.33033-.33539.57851-.32752a19.29331,19.29331,0,0,1,2.66679.13974c.48949.08472.71333.37973.14353.93244-1.6443,1.59492-1.60091,1.69158.34913,2.89929a112.76463,112.76463,0,0,1,9.72507,6.53922,1.97634,1.97634,0,0,0,2.56785.24019,15.531,15.531,0,0,1-1.72306-4.72475c-.44481-3.20469-.37313-3.3654,2.71836-3.86708.02725-.28324-.2074-.2748-.37679-.33312-.54306-.187-1.26923-.46423-1.01105-1.08308.32322-.77471.958-.04249,1.36157.11337,4.42869,1.71018,6.25935,4.29825,6.224,8.67742-.01536,1.903-1.087,2.80331-2.99154,2.51955a5.81419,5.81419,0,0,0-.75952-.06213c-.09012-.0015-.18141.069-.41806.1671,1.84232,3.86587,3.85009,7.458,8.76714,7.862.72964.06.86681.5856,1.06054,1.10634l-.43976.54667c-.06051.13544-.284.28028-.00656.3977.047.01991.17031-.14045.25837-.21751l.44472-.32776a1.489,1.489,0,0,1,1.96412-.06555c1.34606.84212,2.77632,1.54951,4.17145,2.31312.215.15271.3505.56936.66463.36954C132.16143,125.33947,132.09159,124.97607,131.85436,124.80453Zm-21.0969-9.70237c-.02785-.13436-.092-.23407-.2331-.13845-.02227.01506.06046.18529.09465.28376a14.3716,14.3716,0,0,0,5.8403,6.23711,17.00262,17.00262,0,0,0-3.16322-4.583C112.57824,116.1432,111.93088,115.23733,110.75746,115.10216Zm1.03886-9.06939q.88956.00264,1.77914.00561c.26326.00124.52615.03612.55919.36142a.54953.54953,0,0,1-.33961.62032,7.50134,7.50134,0,0,1-1.47364.31213c-.52468.04693-.66364.21236-.58549.76222a4.47445,4.47445,0,0,0,4.52244,4.08378c1.58809.05523,2.08209-.44013,2.16058-2.02154.13451-2.70967-1.668-4.33356-3.29816-6.07633-.54183-.57925-.92117-.66849-1.39658.06943A6.93693,6.93693,0,0,1,111.79632,106.03277Zm28.93054,28.126-.21848.15346a1.58664,1.58664,0,0,0,.31921.23567c.16442.06793.28448-.02545.20941-.19047C140.99319,134.26116,140.8287,134.21983,140.72686,134.15879Z"/><path class="cls-1" d="M161.20353,168.371c.39661,2.25528.23022,4.54524.61538,6.81867.00332-1.12182-.031-2.2457.02915-3.36447.023-.427-.37165-1.19407.407-1.22432.83426-.03237.41346.75368.45329,1.17148.15723,1.64908-.43328,3.41712.50374,4.9252.53367.85893.12957,1.54874.03547,2.30224-.062.49707-.47875.40894-.83425.26306-.10959-1.12045.28262-2.29825-.4081-3.36292-.16778,1.15333-.497,2.30065.06942,3.43635.25277.85735-.47989,2.276,1.36638,2.237.37488-.00789.19548,1.68758-.2776,1.71745-1.02737.06483-.78522.6614-.68633,1.25786.11349.68456.21793,1.37066.33429,2.10657.5405-.48923.24014-1.07755.313-1.59281.07462-.5277.27673-.724.76815-.38834a10.37451,10.37451,0,0,0,.2976,3.33356c.06808.85247.675,1.73206-.72466,2.3099-.6636.274.46376,1.02234.41078,1.65047l-.00487.47591-.15544,1.00336-.14247.26419c-.05661.88333-.5442,1.73081-.07141,2.66767.16126.31954.315.97657-.20089,1.18893-.4199.17282-.74025-.24483-.8901-.64322-.125-.33219-.23129-.53142-.6333-.31812-.91929.48782-1.11973-.11351-1.27942-.84454a46.75293,46.75293,0,0,1-.83339-7.25358c-.31451-5.32648-.42758-10.6676-.85943-15.98353a22.33845,22.33845,0,0,0-4.26494-12.14536c-3.72905-4.88488-7.24078-9.93777-11.62254-14.28484a30.15513,30.15513,0,0,0-2.86384-2.50261c-1.50174-1.15328-2.08974-1.053-3.22705.50215a24.82052,24.82052,0,0,0-3.01,6.61035c-2.35774,6.67044-3.53594,13.608-4.67492,20.5592a30.13564,30.13564,0,0,1-1.90281,7.64262c-.34352.762.28655,1.22048.337,1.83838.03714.45536.45872,1.05178-.28841,1.29213-.64181.20646-.73041-.41333-.90687-.78605a13.4641,13.4641,0,0,1-1.28066-8.84077c.76935-3.578.74034-7.278,1.32856-10.87235a63.26137,63.26137,0,0,1,5.9085-18.42385c.81849-1.619,1.92328-2.8492,4.00581-2.67642a2.62708,2.62708,0,0,0,1.74992-.38773c1.38614-1.16273,2.311-.3154,3.33871.51944,3.30879,2.68777,6.66377,5.27925,8.95213,9.03372.98272,1.61231,2.63811,2.802,3.90765,4.254,3.09923,3.54451,5.88081,7.26872,6.33512,12.19858a3.77293,3.77293,0,0,0,.28344.83932A1.9369,1.9369,0,0,0,161.20353,168.371Z"/><path class="cls-1" d="M145.54747,113.16546c-5.96563-.29844-10.41657-3.38766-14.02654-7.94829-.72214-.91233-1.297-1.94085-2.01209-2.8594-1.54884-1.98946-1.84426-4.3146-1.94278-6.71714a2.764,2.764,0,0,1,.51275-1.69635c1.88042-2.89562,4.651-4.21031,7.96859-4.6976a11.98746,11.98746,0,0,1,9.84406,2.49992c.25822.21216.54656.573.92633.36224,1.34774-.74805,2.05851.2232,2.82923,1.01219a25.25672,25.25672,0,0,1,5.839,10.192c.84564,2.64168-.72283,6.316-3.2591,7.95709A11.76919,11.76919,0,0,1,145.54747,113.16546Zm4.3136-18.32581c-.4335-1.16711-.47744-1.27841-.95161-1.091-2.51648.99448-5.097.43229-7.65321.37557-.786-.01743-2.09472.36609-1.98921-.92644.10029-1.22814,1.30824-.43695,1.972-.42758,1.44532.02039,2.90157.58183,4.35336-.21334-.4067-.28707-.819-.65506-1.24824-.50081-1.67943.60355-3.40552-.43381-5.08791.215a3.505,3.505,0,0,1-1.51271.01719c-.4759-.04609-.659-.40811-.6985-.85727-.05414-.61606.37061-.62958.79236-.63141,1.41517-.00612,2.79651-.64984,4.225-.23967a14.61142,14.61142,0,0,0-8.94421,1.03592,2.39609,2.39609,0,0,0,.89133.1896c.26622.02231.5061.09568.54723.40936.038.28956-.13387.4295-.36824.58517a4.33516,4.33516,0,0,0-1.5973,5.879.91394.91394,0,0,1-.0564,1.12949c-.34389.36345-.69266.17678-1.0908-.01912a1.82909,1.82909,0,0,1-1.10013-2.43836,33.22563,33.22563,0,0,1,1.59261-4.82142c-.53378-.27061-.75845.06834-1.01352.27156-2.71529,2.16318-3.32173,5.11044-1.15219,8.37312,3.65015,5.48929,8.34948,9.63088,15.30419,10.39764,4.2706.47086,8.45952-2.13432,9.46722-6.02884.39312-1.51938.14245-1.80856-1.36035-1.58671a5.95784,5.95784,0,0,1-1.21131.12115c-.48159-.02941-1.185.30862-1.21562-.66176-.03025-.95958.64821-.66566,1.149-.73539.77625-.10808,1.71635.35948,2.31671-.58441-.45879-.3369-.83541.04027-1.20935-.01014-.84952-.1145-2.21687.72267-2.42756-.12387-.26547-1.06659,1.25222-.95716,2.0245-1.30424.26211-.11782.65445-.04615.53042-.51346-.10307-.38843-.4131-.35191-.73044-.31788-1.10929.119-2.22039.22114-3.33068.3308-.56345.05564-.8336-.13394-.81406-.76366.01979-.6374.41375-.58325.82516-.58177,1.11143.004,2.22286.00685,3.32336.01011-.02442-.8891-.34088-1.09946-1.14306-.98354-1.65619.23932-3.33445.32728-5.00431.46953-.4226.036-.93957.2829-1.0085-.48927-.06431-.72046.32556-.82995.916-.85713,1.37014-.06317,2.73881-.16627,4.106-.27852.24769-.02034.71754.16316.664-.31071a.50533.50533,0,0,0-.73071-.47373c-2.12926.69579-4.334.18936-6.50281.305-.501.02671-1.21042.2249-1.1675-.72181.04346-.95907.77619-.61909,1.25046-.62575C145.77272,94.808,147.75464,94.83341,149.86107,94.83965Zm-17.8258-2.56317.10476-.09169a.89164.89164,0,0,0-.187-.09184c-.02409-.00595-.0639.05175-.09653.0804Z"/><path class="cls-1" d="M124.43578,80.86047a4.46732,4.46732,0,0,1,.82079.27675c.7197.40606,1.70292,1.06414,1.32238,1.77742-.41246.77309-1.21209-.14773-1.79188-.43811a16.77829,16.77829,0,0,0-3.09212-1.22972c-.35455-.09687-.93206-.09873-.93354-.56513-.0014-.44043.50877-.55049.9123-.64519a6.29606,6.29606,0,0,0,.75023-.31355c-2.04686-.97717-3.90088-1.82308-5.71967-2.739a34.17855,34.17855,0,0,1-9.1513-6.45915A7.25128,7.25128,0,0,1,109.21144,59.217a30.04421,30.04421,0,0,1,10.23342-3.15013,2.68354,2.68354,0,0,1,2.03373.42293c.32.2299,1.10377,1.27017,1.19049-.29849.01645-.29758.74191-.07985,1.09066.098,7.72895,3.94193,10.8869,12.52934,7.98361,19.61216A7.27562,7.27562,0,0,1,124.43578,80.86047Zm-12.4012-21.67688c-.23231.05126-.48039.07474-.59314.33678a10.73021,10.73021,0,0,0-3.42086,2.48054,4.47971,4.47971,0,0,0-.60017,6.07827,12.63314,12.63314,0,0,0,2.61766,2.95091,54.30856,54.30856,0,0,0,12.7716,7.57436,7.213,7.213,0,0,0,2.9664.54381,4.40913,4.40913,0,0,0,4.55452-3.83131c-.15994.04036-.2902.08049-.42329.10549-.46421.08723-1.03513.481-1.29022-.24184-.25109-.71153.50717-.60091.82344-.82321.5966-.41934,1.51943-.52581,1.49512-1.70427a12.80689,12.80689,0,0,1-1.639.70453c-.40961.1118-.98789.68389-1.26624-.099-.24106-.678.01257-1.09832.85219-1.20809a3.77117,3.77117,0,0,0,2.10253-.80108.95066.95066,0,0,0,.25269-1.23544c-.26232-.47906-.64715-.25193-1.04664-.08373a10.18927,10.18927,0,0,1-1.73578.52586c-.46061.10269-.95966.06968-1.11931-.4874-.15656-.54628.36024-.64948.6938-.83743a4.92264,4.92264,0,0,1,2.66111-.48388c.68706.02295.70872-.39277.68513-.89027-.03309-.698-.48128-.48787-.86294-.398-1.17954.27772-2.35117.593-3.53785.83478-.52157.10627-1.27576.28942-1.395-.45312-.11492-.71574.71651-.50512,1.12176-.71121.33529-.17052,1.07012.19771.90914-.61512-.14676-.7411-.67081-.79753-1.28231-.51706-.46526.21342-.88567.27425-1.10671-.331-.2292-.62751.11354-.97448.6288-1.18433a7.8401,7.8401,0,0,1,2.97874-.49446c.38912-.00114.94886.24583.98035-.54525.036-.90538-.61061-.65388-1.04142-.6341-1.67231.07684-3.342.21017-5.01324.31241-.2782.017-.65.16911-.754-.25348a.79444.79444,0,0,1,.34129-.78792,2.14032,2.14032,0,0,1,1.2303-.53779c.90857-.07786,1.81844-.14063,2.72774-.21.28667-.02188.64752.06579.67716-.3847.02265-.34433-.12646-.62515-.49731-.62174a5.46375,5.46375,0,0,0-1.1976.15465,17.39533,17.39533,0,0,1-4.2144.51637c-.47885-.00545-1.14914.1462-1.20609-.56668-.04824-.60388.59691-.60967,1.0058-.684.996-.18112,2.01065-.26,3.00632-.44267.34412-.06313.94428.09364.94566-.49672.00121-.516-.60987-.66022-.9061-.58668-1.48943.36977-2.96138-.26859-4.46711.05886-1.25789.27353-2.70507.61739-3.84143-.122a2.01165,2.01165,0,0,0-2.458-.036C113.45831,58.43311,112.73988,58.7974,112.03458,59.18359ZM129.35515,66.279a1.01763,1.01763,0,0,1,1.10892-.11855c.36.19476.53331.18466.55113-.28042.02055-.536-.20956-1.032-.72027-.89924-.49117.12773-1.32863-.0375-1.3826.86668C128.89611,66.11926,128.94528,66.35715,129.35515,66.279Z"/><path class="cls-1" d="M94.30735,79.74419l4.06924-.76538C96.6222,77.862,94.461,77.848,93.08972,76.26917a.85037.85037,0,0,1,1.02306-.1903,58.97163,58.97163,0,0,1,10.3165,4.392c1.178.70335,2.16385,1.52812,2.14333,3.07612a1.20763,1.20763,0,0,0,.22451.71393c1.891,2.39779.34683,4.56541-.55737,6.67566a7.01753,7.01753,0,0,1-5.207,4.03421c-5.589,1.31242-9.82022-.80885-13.1451-5.17552-1.48686-1.95275-3.36627-3.65153-3.85779-6.25872-.785-4.16384,1.9034-7.6116,5.94255-7.5409.82533.01445,1.30562.07648.82044,1.083-.56986,1.18217-1.048,2.40913-1.55,3.62324-.15467.374-.39341.65794-.79335.50393-.3583-.138-.20791-.5358-.15247-.80491.12234-.59372.34587-1.16771.45121-1.76337.07241-.40945.5447-.94519.05034-1.21553a1.76938,1.76938,0,0,0-1.30946.186,3.15933,3.15933,0,0,0-1.662,1.89827A7.852,7.852,0,0,0,86.9098,87.288a20.974,20.974,0,0,0,8.93628,6.40128c3.56617,1.45668,8.57657-1.019,9.49716-4.3992-.71705-.3589-1.23212.146-1.8007.41532-.26086.12354-.51217.32442-.74921-.08842-.21619-.37652-.22873-.62145.17588-.87352a18.27619,18.27619,0,0,0,2.79025-2.04472c-1.076.22574-2.14878.46958-3.23021.66552-.3023.05478-.74547.27675-.8745-.2654-.1125-.47271.146-.928.56277-.916,1.32129.03809.84815-.7611.69126-1.37152-.29517-1.14853-.92468-.04126-1.39485-.15729-.324-.08-.77434.53553-1.03966-.02264-.23354-.49131.1459-.85969.565-1.1077a22.56859,22.56859,0,0,1,4.08669-1.50019,2.05522,2.05522,0,0,0-2.27889-.38884c-1.49843.45883-2.99108.95-4.51481,1.30438-.45611.10606-1.26968.58548-1.48289-.384-.21381-.97218.48758-.96162,1.19127-1.08,1.31651-.22159,2.72757-.23521,4.10643-1.4528A27.84483,27.84483,0,0,0,95.834,80.764c-1.05289.18132-1.38395-.15254-1.49659-1.05506Zm9.10375,4.37822c.49635.18077,1.26065.11939,1.24644.82231-.01395.69056.217.60442.64219.436.37842-.14988.66921-.25926.50774-.83888C105.30588,82.74128,104.25944,84.06482,103.4111,84.12241Z"/><path class="cls-1" d="M80.99681,57.795c-.00121.40606.01277.81282-.00594,1.21808-.19843,4.29866-2.83351,6.31761-7.00661,5.39117-4.41805-.98081-8.7013-2.30472-12.44865-4.9563A11.38054,11.38054,0,0,1,56.437,51.51142a5.32073,5.32073,0,0,1,3.32463-6.14328c2.3048-1.05445,4.8284-1.03737,7.25452-1.49553a1.34839,1.34839,0,0,1,.73529.125,65.15376,65.15376,0,0,1,10.106,5.18907c2.60475,1.72754,2.69478,4.46241,3.12353,7.08761a9.3865,9.3865,0,0,1,.00725,1.52058ZM59.90655,46.84643c-2.50681,1.437-2.5492,4.87752-1.08853,8.03114a25.80425,25.80425,0,0,0,2.884-4.10992c.28409-.44009.62867-.78607,1.09048-.45279.4866.35113-.029.73147-.209,1.02855a23.48792,23.48792,0,0,0-2.43254,4.54628c-.13258.39186-.38222.86.20009.99311.53186.12162.40262-.45188.49258-.74686a10.13237,10.13237,0,0,1,2.6594-4.25739,1.55032,1.55032,0,0,1-.23325,1.87226A14.31145,14.31145,0,0,0,61.8828,57.2667.8363.8363,0,0,0,62.401,58.453a55.89373,55.89373,0,0,0,12.65034,4.64474,3.26638,3.26638,0,0,0,4.17745-2.3476c1.15664-3.82712.90628-8.16272-2.56145-11.00276a14.94738,14.94738,0,0,0-6.66681-3.4899c-1.63468-.28391-3.242-.53748-4.86376-.97291a2.6128,2.6128,0,0,0-3.43694,2.07531c-.062.222-.281.37537.04792.61813.7637.56359.322,1.13153-.08134,1.67015-.48678.65011-.95826,1.31352-1.47857,1.93584-.21439.25645-.35149.85527-.83744.54471A.88121.88121,0,0,1,59.12175,50.9c.16355-.30318.526-.82145.46655-.87529-1.4171-1.28262.33573-2.01217.492-3.00278.03888-.11109.13534-.29924.107-.32041C60.03538,46.58788,59.95765,46.70969,59.90655,46.84643Z"/><path class="cls-1" d="M158.055,115.37773c2.95741.65384,3.91254,1.75393,3.921,4.51653l.00991-.04456-3.65462-.01082a2.35442,2.35442,0,0,0,.97538.41346c.606.21761,1.54924-.07338,1.79447.49124.28383.65349-.79149.91065-1.00095,1.52859-.083.08217-.25184.20074-.235.24057.10988.25937.26871.08479.4123.01477a4.11732,4.11732,0,0,1,1.93771-.54715l.59057.03033c.40152.58274-.60435.92207-.26108,1.48952.22171.11252.3296-.00767.40068-.20312.76622-.08783.82752.51988.82069.98309a21.66357,21.66357,0,0,1-.30243,5.60862c-.75469,2.71494-2.35514,3.46785-4.8687,2.28634-4.51628-2.123-5.10567-4.53355-3.76479-10.1273a15.48,15.48,0,0,1,2.51644-4.83222c.26954-.40238.74911-.72517.66508-1.31557Zm2.18029,12.59819c.523.94647.81118,1.69211-.34272,2.11639-.61677.22679-.49908.778-.34818,1.14443.17553.42628.60945.11741.93092.04594a2.588,2.588,0,0,0,2.05327-2.01288,9.172,9.172,0,0,0,.17878-3.88489c-1.2699.31-2.37041,1.65811-3.66982.3668a5.02049,5.02049,0,0,1-1.23556-2.23822c-.26778-.95705.83583-1.48244.97792-2.46665a3.0875,3.0875,0,0,0-2.3762,1.75013,8.11294,8.11294,0,0,0,.02544,6.06479c.55051,1.382,1.68361,1.45866,2.71776.35252C159.48605,128.85153,159.80361,128.4686,160.23529,127.97592Zm.80838-9.3397a3.82574,3.82574,0,0,0-1.39809-1.83079C158.64106,118.56978,158.65954,118.59489,161.04367,118.63622Zm-1.78631,6.15845c1.04093.06936,1.67771.2051,2.07763-.78874A4.26076,4.26076,0,0,0,159.25736,124.79467Zm2.22195-.50009c.295-.15169.59873-.256.61593-.60408.00309-.06274-.21123-.20651-.30469-.1908-.30219.05078-.56173.21095-.56855.55831C161.22042,124.13834,161.39631,124.22215,161.47931,124.29458Z"/><path class="cls-1" d="M143.07946,120.35055c-1.81517,1.89005-6.23464,2.72956-8.53606,1.63783-2.07543-.9845-3.90845-2.48776-6.351-2.69324a2.9947,2.9947,0,0,1-2.09115-1.63665c-1.41627-2.33154-.8988-3.52945,1.72845-3.92021,3.90507-.58074,7.66208-.24761,11.09833,1.90334,1.07728.67435,2.16474,1.358,2.37754,2.78312.04777.31991.1264.5628.57685.46032,1.37677-.31321,1.15161.71136,1.20329,1.49761A.22818.22818,0,0,1,143.07946,120.35055Zm-8.83513-.45547a6.88181,6.88181,0,0,0,4.14306.94251c.85825-.03326,2.12686-.111,2.275-.85477.1846-.927-.66476-1.85006-1.53407-2.42647-.46989-.31157-.92115-.5977-1.53693.06452a1.40009,1.40009,0,0,1-2.1439-.07341c-.55283-.75172.50058-.72183.84019-1.03407.1564-.1438.35383-.27912.26405-.47983-.16277-.36377-.55572-.40136-.8945-.47538a21.40156,21.40156,0,0,0-7.5299-.3912c-1.23366.16791-1.02992.71711-.582,1.38368.9824,1.4621,2.56037,1.688,4.17367,1.82828l-3.26878-2.15813c.77136-.76491,1.36073-.48552,1.99567-.06038a12.52324,12.52324,0,0,0,5.79737,2.43886c.45565.04167.8327.11381.71879.68993-.0947.47907-.30074.828-.906.80384C135.50025,120.07085,135.02045,119.628,134.24433,119.89508Zm-1.77487-1.22892c-.03905-.01452-.08379-.04918-.11616-.04-.13608.03843-.14222.10561-.01524.16639a.14226.14226,0,0,0,.11883-.02565C132.47566,118.75284,132.46624,118.701,132.46946,118.66616Z"/><path class="cls-1" d="M161.737,105.03387c1.11555-.4769,1.18129-1.32651,1.052-2.41955-.29536-2.49644-1.509-4.46024-2.7852-6.58684-1.11451-1.85709-2.77486-3.37058-3.50435-5.50008a15.48978,15.48978,0,0,0-2.73247-4.19241,3.98833,3.98833,0,0,1-.72026-1.14542c-.10446-.33265-.29148-.866.18823-1.08229.42279-.19065.58912.292.80386.54049a34.88965,34.88965,0,0,1,4.44245,6.52006,34.62954,34.62954,0,0,0,3.2929,4.5118c.10231.13436.35422.42077.59743.07594l-.02974-.01881c-.27687.4028-.02447.54734.31624.64877l-.02559-.03544c.00571.22064-.06531.51979.33954.33216l-.01715-.03261c-.04365,1.653.80456,3.10859,1.04279,4.70668a5.05452,5.05452,0,0,1-.00022,2.82721c-.3061.717.18578,1.15734.46646,1.652.32235.5681.7686,1.06438,1.138,1.60757.33946.49919,1.23291,1.00444.50829,1.62794-.65591.56436-.76371-.53529-1.20875-.7606a9.92011,9.92011,0,0,1-1.06164-.75669c-.00289.977.01767,1.75466-.01718,2.52985-.0174.38766.24667.96818-.551.96418-.5609-.00282-.89576-.0578-1.00475-.7705a22.10321,22.10321,0,0,1-.5408-5.11216Z"/><path class="cls-1" d="M90.48619,54.541c1.07214-.52723,2.23829,1.099,3.72165.73954.22822-.0553.23618.27816.2846.46147a10.2727,10.2727,0,0,0,3.16436,4.74421,1.89715,1.89715,0,0,1,.13919,2.92123,4.17133,4.17133,0,0,1-4.99835,1.48137,7.62519,7.62519,0,0,1-4.53722-3.36948c-.44741-.73844-1.398-1.02116-1.54877-1.95695-.2859-1.77487,1.11481-3.079,1.35508-4.73853C88.13236,54.37052,89.36047,54.73836,90.48619,54.541Zm3.64069,8.831c.30126-.03721.60456-.06246.90344-.11359,1.78988-.30612,2.03055-.86052,1.04394-2.31661a9.07224,9.07224,0,0,1-1.50475-2.4395c-.51644-1.92585-1.84308-2.28361-3.52448-2.33367a1.67848,1.67848,0,0,0-1.56414.60887c-1.56613,1.87223-1.60119,1.85237.04759,3.69318A18.87156,18.87156,0,0,0,90.918,61.87328,4.38752,4.38752,0,0,0,94.12688,63.372Z"/><path class="cls-1" d="M112.89871,90.08393a5.48214,5.48214,0,0,1,5.47169-5.762,4.47265,4.47265,0,0,1,2.98707,1.87395.68607.68607,0,0,1-.46485,1.158c-.8519.17186-.67473.54907-.33027,1.03921.11644.16567.23663.32943.342.50206,1.79151,2.93411,1.37066,4.8783-1.47328,6.81708-2.20585,1.5038-4.32986.98047-5.57877-1.40131A8.65862,8.65862,0,0,1,112.89871,90.08393Zm1.79155.04717a6.22826,6.22826,0,0,0,.44,3.07428c1.04745,1.90328,2.07086,2.19214,3.88075,1.05732,2.13948-1.34147,2.27908-1.87619,1.25058-4.15567a11.30608,11.30608,0,0,1-1.32974-3.02672c-.17518-1.263-.80488-1.6172-1.93577-1.05642A3.84818,3.84818,0,0,0,114.69026,90.1311Z"/><path class="cls-1" d="M170.49055,120.4987a44.196,44.196,0,0,1-.07774,8.3092c-.16106,1.546.55867,3.1711.78858,4.77388a14.80609,14.80609,0,0,1-.03528,5.75207,6.25941,6.25941,0,0,0,.19227,2.55825c.11112.7259-.10724,1.1866-.85014.85612-.72863-.32414-1.47188.4296-2.15518-.19036a4.02558,4.02558,0,0,1-.571-3.29809.78339.78339,0,0,1,.74853-.43252,1.14855,1.14855,0,0,1,.9022.72969c.28266.50724.03681,1.19342.639,1.83725a49.60672,49.60672,0,0,0-.55643-9.7938c-.22548-1.96824-1.00362-3.97921-.064-6.04628a4.72235,4.72235,0,0,0-.26027-3.41364c-.41341-1.24577-.7292-2.52524-1.05234-3.79895-.09793-.38616-.12952-.788.40079-.99729.64532-.25459.61187.30675.81215.596.36005.52.33878,1.24255.88265,1.66529l-.03663-.045c-.00148.35443-.17839.76743.31861.9555Z"/><path class="cls-1" d="M75.31372,70.76334c4.37022.16029,5.20864,1.58428,3.14978,5.39188a4.967,4.967,0,0,1-.98884,1.32484c-.64645.58315-1.82812.85591-.8662,2.11963.166.21807-.14272.56861-.44552.69423-.37654.15621-.53275-.14824-.71-.3884-.75047-1.017-1.44812-2.07895-2.26568-3.0387a6.36416,6.36416,0,0,0-3.3464-2.48738c-.28088-.06226-.466-.17778-.49754-.46884a.54775.54775,0,0,1,.49306-.6393A9.16636,9.16636,0,0,0,73.44634,71.12,2.43037,2.43037,0,0,1,75.31372,70.76334ZM77.90211,73.204c.09759-.52806-.17812-.68423-.68587-.64005a8.395,8.395,0,0,0-1.50965.09365c-1.04287.29275-2.69135.0234-2.9558.977-.18649.67242,1.13193,1.755,1.76221,2.66574a.675.675,0,0,0,.88627.28311A4.21884,4.21884,0,0,0,77.90211,73.204Z"/><path class="cls-1" d="M88.42354,45.10908c-.371.98748-.654,1.78787-.97063,2.57472-1.024,2.545-1.19674,2.66663-3.81117,1.97505a10.95033,10.95033,0,0,1-6.19847-4.84724c-.32139-.46961-.16451-.67658.2674-.90315a17.16809,17.16809,0,0,1,4.01645-1.74319c1.81491-.41909,3.04411.79681,4.282,1.83548C86.696,44.57709,87.24593,45.35523,88.42354,45.10908Zm-3.29659,3.51474c.7197.23935.9325-.61423,1.23109-1.39472.30273-.79128.35026-1.41269-.59577-1.8524a15.96578,15.96578,0,0,1-2.4684-1.47975c-1.30076-.922-2.39006-.0658-3.53025.34427-.35483.1276-.383.47246-.16489.75232A8.33467,8.33467,0,0,0,85.12695,48.62382Z"/><path class="cls-1" d="M25.87553,18.41679c.35611.42212.64764-.01128.8943-.12575a153.17589,153.17589,0,0,1,19.62809-7.16,25.98288,25.98288,0,0,1,5.24277-.93855,2.30286,2.30286,0,0,1-1.57134.94814c-2.89789.88288-5.79264,1.78653-8.72328,2.5492C35.17813,15.295,29.5814,18.23992,23.89612,20.98491a10.22405,10.22405,0,0,1-.9523.47111c-.30167.10835-.64742.57636-.92715.17643-.29953-.42823.12963-.707.46068-.95557a2.68528,2.68528,0,0,0,.37843-.43386l-.04989.01387a2.34672,2.34672,0,0,0,1.56273-.94055l-.0384.02595c.30141.05791.555.01981.65477-.32668l-.03991.0299c.19208-.03712.516.0531.3336-.34577l-.03325.02388c.39863.25525.60724.13125.64905-.32555Z"/><path class="cls-1" d="M89.017,72.93516a1.03856,1.03856,0,0,1-.4165-.16451c-1.80445-1.56949-3.5986-3.1502-4.43981-5.50085-.1402-.39178-.29555-.85885-.07172-1.168.27365-.37792.72969-.13764,1.10959.013a3.69167,3.69167,0,0,0,2.099-.01672,5.31584,5.31584,0,0,1,5.57061,3.89518,1.04684,1.04684,0,0,1,.06155.29646C92.86365,70.71671,89.64935,72.97241,89.017,72.93516Zm-3.07166-4.42228c.83971,1.80984,1.87014,2.61947,3.43018,2.68153a1.37681,1.37681,0,0,0,1.46557-1.24113c.15658-.78805-1.44732-2.50128-2.27831-2.54066-.30051-.01424-.63535-.01767-.81881.27-.22613.35462.10334.51925.30078.73715.29928.33029.41516.78166.08082,1.07616-.25566.22519-.66037.05369-.963-.17425C86.89173,69.11769,86.59816,68.94382,85.94536,68.51288Z"/><path class="cls-1" d="M26.58815,22.79651a4.68093,4.68093,0,0,1,2.48092-2.29918c4.21582-2.26927,8.788-3.61015,13.32174-5.04275,1.73578-.54848,3.48642-1.05759,5.25145-1.50012.42535-.10665,1.10438-.7543,1.395.1599.309.97211-.66078.76192-1.05341.87181a141.6808,141.6808,0,0,0-18.4493,6.50662C28.63815,21.88338,27.746,22.28384,26.58815,22.79651Z"/><path class="cls-1" d="M74.74028,10.59058c-1.76594.16535-3.5349.30487-5.296.51178-.5296.06222-.96278.00369-1.08542-.52065-.11627-.49712.38527-.50136.70323-.55829,6.67924-1.1959,13.37357-1.64674,20.09241-.32989.43148.08457,1.25877-.04058,1.05131.72123-.17648.648-.86517.19847-1.312.16141a47.28187,47.28187,0,0,0-10.79042.05475C76.97955,10.85135,75.86566,10.24123,74.74028,10.59058Z"/><path class="cls-1" d="M71.5015,38.13831a3.952,3.952,0,0,0-1.94231.135c-1.66077.55011-3.26241-.411-4.912-.19394-.1014.01334-.32538-.20274-.32346-.20579.48994-.77894.21579-1.57285.14959-2.39032-.02967-.3663.581-.47854,1.01252-.44131.5068.04374.45632.33843.44542.74826-.013.49,1.93611,1.70008,2.42487,1.59629,1.58239-.336,3.16-.70025,4.75226-.98073.485-.08543,1.19114-.44245,1.4757.22712.38535.90673-.68679.70422-1.04161,1.04887,1.60725.00476,3.17949-.00658,4.75084.02533.39315.008,1.04233-.25508,1.03153.4951-.00822.57172-.55381.456-.93861.50666-2.41062.31715-4.8195.648-7.23226.94776-.44036.05471-1.07192.62381-1.29913-.05666-.21369-.64.531-.8688,1.00767-1.13691C70.982,38.39591,71.10678,38.33832,71.5015,38.13831Zm1.30016-.211a1.06161,1.06161,0,0,0-1.13868.03837C72.00249,38.21128,72.32959,38.12628,72.80166,37.92728Z"/><path class="cls-1" d="M108.54165,100.68035c-.00393,1.78816-.6006,2.21992-2.08238,1.4802-1.8399-.91848-3.64808-1.9047-4.53811-3.93912-.09548-.21826-.41767-.41761-.19639-.6561.81828-.88183,1.50744-2.07651,2.71951-2.31091a3.03825,3.03825,0,0,1,3.07918,1.57489A8.4229,8.4229,0,0,1,108.54165,100.68035Zm-1.70393-1.38418c.00979-1.25407-.82113-1.85259-1.86829-2.22012a.88712.88712,0,0,0-.96616.27571c-.34159.388-.04546.66505.14612.93414a5.88111,5.88111,0,0,0,1.77919,1.62354C106.72077,100.38979,106.90152,100.08606,106.83772,99.29617Z"/><path class="cls-1" d="M74.74028,10.59058c1.12538-.34935,2.23927.26077,3.3631.04034,4.22168.10126,8.45866-.07368,12.646.65476.71049.1236,1.56427.13013,1.70561,1.14516l.036-.04112c-1.67081.4235-3.29131-.24457-4.952-.224-4.00019.04954-8.0017.0033-12.00253-.02612-.42617-.00314-.989.24048-1.26052-.21622C73.95688,11.38678,74.5767,11.03834,74.74028,10.59058Z"/><path class="cls-1" d="M93.4236,6.78906a41.1509,41.1509,0,0,1,15.35973,3.60629c.18384.08352.36527.17373.55365.24553.32716.12467.53774.35587.41138.69505-.18629.5-.49718.11474-.72666.02644C103.9667,9.41719,98.61279,8.85355,93.33382,7.94c-.51994-.09-1.47568.26479-1.35175-.71127C92.09685,6.32457,92.99521,6.95469,93.4236,6.78906Z"/><path class="cls-1" d="M137.828,81.01a12.92845,12.92845,0,0,1-1.34731-.01133,1.50818,1.50818,0,0,1-1.26672-2.15785,4.57056,4.57056,0,0,1,1.291-1.837c1.32215-1.09119,2.151-1.07618,3.41671.08229.4839.4429.96628.89223,1.40528,1.37846.91129,1.00931.68821,1.84578-.63848,2.19707A8.4644,8.4644,0,0,1,137.828,81.01Zm-1.00007-1.48909c.58369-.306,1.38061.59571,1.74665-.3786.12541-.33377.05533-1.09365-.41127-1.15913C137.196,77.84746,137.04348,78.70774,136.82795,79.52092Z"/><path class="cls-1" d="M165.0927,171.59789c.10578,2.481.22385,4.96166.3059,7.44347.0145.43871.29852,1.14416-.548,1.12962-.66935-.01149-.53991-.618-.55795-1.04663-.21308-5.06326-.42616-10.1266-.6094-15.191-.01766-.48853-.31429-1.32774.52-1.327.77045.0007.6919.81718.6932,1.38969.00576,2.53271-.00925,5.06547-.01676,7.59822Z"/><path class="cls-1" d="M89.44065,131.18794c-.23247-.338-.13-.71964-.14117-1.08646.90441.044.54413-.666.54033-1.034-.04825-4.67925-.26681-9.35157-.61759-14.01862-.05663-.75327-.53832-1.59333.24266-2.26624a.33337.33337,0,0,1,.52565.01561,2.36288,2.36288,0,0,1,.13633,2.33213c-.34436.85834.05681,1.60873.15714,2.38969a103.91445,103.91445,0,0,1,.60868,12.33268C90.90388,131.083,90.49445,131.36045,89.44065,131.18794Z"/><path class="cls-1" d="M161.737,105.03387l-.01093.13121c-.80585.83317-.21254,1.863-.38205,2.78764-.0793.43252.08692.97781-.64782.91909-.6439-.05144-.46491-.55578-.47034-.92124-.02272-1.52132-.00585-3.04333-.041-4.56423-.00857-.37012.17257-.82586-.27829-1.10008-.08224.05653-.23176.117-.22737.16271.05265.5466.6609,1.39321-.08415,1.55638-.99916.21877-.52562-.83113-.62821-1.32319-.38159-1.8305-.70946-3.67243-1.039-5.51339-.0688-.38429-.479-.95492.28466-1.05731.63618-.08532.65744.50918.74.94082.25559,1.33677.48979,2.67764.73681,4.04181.08668-.05206.18932-.078.20123-.12634.14043-.56959-.31274-1.57353.70045-1.52393.76728.03758.76943.922.764,1.59534-.00854,1.06517-.0258,2.13091.00234,3.19532C161.365,104.52361,161.1309,105.00087,161.737,105.03387Z"/><path class="cls-1" d="M71.06273,107.45487c-.00226.76272-.00581,1.52541-.00625,2.28813-.00022.39267-.06873.711-.58.671-.40274-.03147-.49782-.30124-.49365-.624.05411-4.1952-.95243-8.25423-1.56141-12.36478-.05027-.33927-.2744-.8849.33315-.99389.46293-.08309.72132.2851.91216.66613a13.8336,13.8336,0,0,1,1.04,4.7292c.21788,1.8651.26784,3.74982.39068,5.626Z"/><path class="cls-1" d="M103.55064,55.54907c.00049,1.46029-.70879,2.31008-1.96124,2.3498-1.36726.04337-2.4606-1.30921-2.49226-3.08318a2.53375,2.53375,0,0,1,2.51422-2.30855C102.93347,52.53941,103.55,53.50643,103.55064,55.54907Zm-1.774-.27352c-.26065-.22632.28874-.85558-.4096-.87375-.328-.00854-.86671.12912-.61553.70165.19937.45447-.17817,1.31637.61918,1.317C102.04022,56.421,101.57561,55.69837,101.77666,55.27555Z"/><path class="cls-1" d="M123.4262,103.786c.082-.64148.71574-1.1913-.03693-2.00054-.51594-.55469.4986-.8801,1.04393-1.30683-.01754,1.42593-.34871,2.7545.01955,4.06937a.93361.93361,0,0,1-.41766,1.06672c-.377.2234-.71869-.15523-.85829-.433-1.287-2.56114-3.58653-3.62649-6.17482-4.32388a1.165,1.165,0,0,1-1.021-1.36147c1.36227,1.03953,3.04895-.69349,4.32417.78019C121.31278,101.44105,122.91916,102.08045,123.4262,103.786Z"/><path class="cls-1" d="M140.29171,61.30031A5.199,5.199,0,0,1,142.7664,63.686c.78661,1.23152,1.46185,2.53679,2.14048,3.83365.30281.57867.44975,1.22668,1.24943,1.373a.95681.95681,0,0,1,.68018.76251c.08262.37413.43794.80635.111,1.14333-.39156.40355-.83643.117-1.22866-.13286a6.51783,6.51783,0,0,1-2.58028-3.28911,11.18738,11.18738,0,0,0-2.22893-3.86294A1.84258,1.84258,0,0,1,140.29171,61.30031Z"/><path class="cls-1" d="M92.70627,125.15859c.95-1.32768.95916-2.97421,1.48606-4.448a52.81839,52.81839,0,0,1,1.80143-4.97806,2.0899,2.0899,0,0,1,1.22219-1.34395c-1.23864,4.401-1.97171,8.96717-4.42908,12.9349-.4343-.80023.3089-1.45589-.05427-2.19053Z"/><path class="cls-1" d="M48.78131,29.44706c1.025-2.99671,2.03972-5.9805,4.08178-8.47312a.77923.77923,0,0,1,.80049-.3226c.431.10488.269.47748.27637.74524a4.03947,4.03947,0,0,1-.25843,1.78368A19.1291,19.1291,0,0,1,48.78131,29.44706Z"/><path class="cls-1" d="M69.68506,140.96677c.23581,2.97961.44987,5.96119.71973,8.93771a8.05952,8.05952,0,0,1-.33388,2.84173c-.09065.34082-.0602.735-.58272.70893-.51751-.0259-.49985-.47039-.54068-.77885a10.75113,10.75113,0,0,1-.17684-2.40958,38.626,38.626,0,0,0,.07627-7.88348c-.05133-.47885-.228-1.01948.26838-1.41042Z"/><path class="cls-1" d="M47.68041,42.0394c-1.79422-.195-3.6452.26416-5.52.294-.32743.00522-.763.19534-.76838-.39948-.0036-.39769.29688-.49054.61149-.53024q4.74569-.59872,9.49241-1.18925a.70561.70561,0,0,1,.86311.43561c.20869.55267-.21956.69409-.56465.89485C50.52211,42.28508,49.12191,41.93686,47.68041,42.0394Z"/><path class="cls-1" d="M89.09633,108.32954c.05124.22778-.15477.34569-.5329.34012-.41351-.00611-.84541.03954-.89351-.54142a6.75507,6.75507,0,0,0-2.91008-4.76262,1.142,1.142,0,0,1-.31029-1.49924c.2957-.54146.8-.06659,1.2118.01913,1.27928.26624,2.57246.28144,2.44229,2.315C88.02113,105.48951,88.707,106.82772,89.09633,108.32954Z"/><path class="cls-1" d="M161.54088,156.85109c.03513.55175-.16379.66492-.55235.603a3.61944,3.61944,0,0,1-1.50671-.68811,23.06762,23.06762,0,0,1-5.00474-5.29273c-.22952-.3063-.4282-.64126-.074-.93282a.63283.63283,0,0,1,.82756.14161q3.05329,2.87507,6.08353,5.77462A1.262,1.262,0,0,1,161.54088,156.85109Z"/><path class="cls-1" d="M90.91083,96.54831c-2.32087-.71375-4.57551-1.44382-6.27329-3.24477a3.79487,3.79487,0,0,1-1.0734-2.12952c-.04061-.313-.34013-.757.2556-.81361.34705-.033.88536-.28663,1.03526.26493.8237,3.03081,3.5044,3.63676,5.92,4.59457.1394.05527.298.06136.43861.1143.40871.15387.74132.38747.5726.89188C91.623,96.71381,91.18888,96.435,90.91083,96.54831Z"/><path class="cls-1" d="M88.71952,121.45193c-.04953.62112.15011,1.13156-.50032,1.14849-.544.01413-.61491-.40049-.67885-.82372-.49-3.24321-.9937-6.48433-1.47463-9.72885-.04568-.30814-.2223-.74652.261-.88343.542-.15354.7201.25288.79108.67317C87.67215,115.1206,88.21365,118.40581,88.71952,121.45193Z"/><path class="cls-1" d="M175.88931,174.21748c.02843,1.23822-.726,1.9639-2.10764,2.02744a2.4587,2.4587,0,0,1-2.38441-2.39285c-.03086-.85458,1.50547-2.83668,2.18334-2.81688C174.04972,171.04893,175.8743,173.56387,175.88931,174.21748Zm-2.26674-1.03737c-.31047.15324-1.01484-.34442-1.04782.35676a1.61952,1.61952,0,0,0,1.30535,1.50179c.56443.15174.95936-.60721.99383-1.09718C174.92577,173.20416,174.26949,173.14417,173.62257,173.18011Z"/><path class="cls-1" d="M118.265,44.38629c-.56589-.32112-1.65237.4707-1.73084-.48667-.07166-.87416,1.06864-.65523,1.67785-.72669,2.21163-.25941,4.43529-.41761,6.65551-.60074a4.39706,4.39706,0,0,1,1.06132.02715c.55771.09128.932.391.87622,1.02684-.05992.68344-.59913.41554-.93254.41518A51.6804,51.6804,0,0,0,118.265,44.38629Z"/><path class="cls-1" d="M31.12464,23.69385c-.22178-1.29358.55653-1.75184,1.33481-2.10215a13.23658,13.23658,0,0,1,4.7164-1.0068c.61385-.036,1.10241.08519,1.211.82129.14281.968-.49523,1.32617-1.2088,1.67944-.80208.3971-.76453-.202-.91023-.67812-.24869-.81268-.87795-.33261-1.23526-.21523C33.74316,22.61583,32.49234,23.157,31.12464,23.69385Z"/><path class="cls-1" d="M127.3794,137.44818c.45082.23221,1.02153.27764.87963.92394-.64484,2.93711.00895,5.86656.02056,8.79931.0016.40328.285,1.05853-.38712,1.12451-.73495.07217-.47563-.63208-.52494-1.0189a73.87208,73.87208,0,0,1-.32612-8.8255C127.03876,138.09253,126.906,137.64512,127.3794,137.44818Z"/><path class="cls-1" d="M55.928,60.31258c.79654.00236,1.16681-.11294,1.37727.02174,2.65039,1.6961,4.89328,3.73382,5.56044,7.00844.04691.2303.14534.51754-.1439.66838-.24384.12717-.375-.08481-.46785-.25479A27.603,27.603,0,0,0,55.928,60.31258Z"/><path class="cls-1" d="M123.90359,128.15053a6.2821,6.2821,0,0,0-.09376-.9591c-.15175-.52029-.52515-1.15552.28682-1.357.74274-.18432.75895.60347.94021,1.04695.59665,1.45978.20267,2.9981.28229,4.50042a.40671.40671,0,0,1-.45473.46544.42863.42863,0,0,1-.483-.44825c-.01947-.45417-.02308-.90991-.01052-1.36434.0111-.4013-.02349-.54916-.55716-.55225-1.15633-.0067-2.43049-2.25616-1.93141-3.26122a.79.79,0,0,1,.74788-.43356c.37456.00145.22329.36867.32108.56417C123.215,126.879,123.145,127.55811,123.90359,128.15053Z"/><path class="cls-1" d="M128.6482,142.35815c.00388-1.314-.01157-2.62855.02513-3.94165.00929-.33218-.26493-.87271.41848-.92576.66393-.05152.46595.46005.55863.82014.69661,2.707-.28,5.4021-.03942,8.104.03472.38985-.052.72478-.5554.6875-.55827-.04134-.40985-.48511-.41262-.80227C128.6315,144.98625,128.64432,143.67217,128.6482,142.35815Z"/><path class="cls-1" d="M92.7326,125.13294c-.52222-.0722-1.18672.23948-1.18248-.80507a70.024,70.024,0,0,1,.38539-7.7405c.04431-.38471-.09083-1.0906.61061-.99612.6843.09216.3662.72121.34623,1.12438a59.74362,59.74362,0,0,0-.18659,8.44335Z"/><path class="cls-1" d="M77.01974,83.29133a26.73368,26.73368,0,0,1,6.21751,3.31737.71387.71387,0,0,1,.28987.92513c-.13248.36981-.4812.28227-.77388.31257a1.84023,1.84023,0,0,1-1.61914-.61307,7.76614,7.76614,0,0,0-3.6237-2.39241C76.48387,84.58835,77.11459,83.92115,77.01974,83.29133Z"/><path class="cls-1" d="M132.30387,50.47377l.52019.00836c1.0301,1.86064,1.35964,4.06154,2.78292,5.73216.156.1831.09038.36556-.05626.53251a.45118.45118,0,0,1-.67.04416,5.34883,5.34883,0,0,1-1.12657-1.00186,1.72885,1.72885,0,0,0-2.22045-.651c-.2753.094-.685.47031-.82108-.15486a.6923.6923,0,0,1,.49881-.82472c.49364-.20382,1.50515-.13752,1.43627-.49993C132.4461,52.59768,132.86278,51.47508,132.30387,50.47377Z"/><path class="cls-1" d="M145.40418,63.52024c-.21643.7175-.81283.56923-1.12086.24885-1.37247-1.42748-2.67506-2.92262-3.98737-4.40707a.7272.7272,0,0,1-.067-.85169c.13179-.23788.3923-.13739.53475-.04537,1.79726,1.161,3.5807,2.34365,4.47981,4.41576A4.24431,4.24431,0,0,1,145.40418,63.52024Z"/><path class="cls-1" d="M40.8473,44.91337c.0121-.79931.62165-.88868,1.047-1.01963A53.60933,53.60933,0,0,1,48.55,42.46558c.43391-.07522.672-.00183.82638.39844.17165.445-.191.5219-.44537.58178A57.85159,57.85159,0,0,1,41.37653,44.999,2.07709,2.07709,0,0,1,40.8473,44.91337Z"/><path class="cls-1" d="M109.17218,49.12647c.70575-.08125,1.21226.18231,1.22181,1.04658a2.61506,2.61506,0,0,1-2.24628,2.383c-1.27288.0105-1.424-.9536-1.55843-1.82921C106.476,49.98907,107.963,49.09058,109.17218,49.12647Z"/><path class="cls-1" d="M89.50476,105.35268c.01068-.11931-.18473-.56145.32744-.66032.59916-.11566.60965.38594.695.76567.47584,2.11692.93009,4.23883,1.42644,6.35087.09916.422.25139.80175-.25295,1.025-.64534.2856-.63738-.327-.75265-.63676A23.17261,23.17261,0,0,1,89.50476,105.35268Z"/><path class="cls-1" d="M161.20353,168.371a1.9369,1.9369,0,0,1-.29323-1.47607c.7624-.58457.24158-1.32532.18974-1.9746-.08789-1.10045-.31248-2.19014-.48378-3.28371-.07289-.46546.04718-.81753.56636-.87263.48735-.05174.55214.3715.63189.69064a25.82066,25.82066,0,0,1,.56508,6.30812C162.37977,168.802,161.6143,168.20932,161.20353,168.371Z"/><path class="cls-1" d="M48.6292,45.07243c-1.22649,1.25545-2.59746,1.30553-3.78056,1.7503a21.08422,21.08422,0,0,1-2.34439.62551c-.41607.1035-.81928.11826-.996-.39266-.16471-.47634.2444-.60177.51471-.80124C43.91682,44.85679,46.07294,44.88715,48.6292,45.07243Z"/><path class="cls-1" d="M97.2151,91.65743c-.23511.32961-.5457.67917-.93414.35829-1.75612-1.45073-3.47829-2.94293-5.19568-4.43972a.4888.4888,0,0,1-.02094-.69158.50326.50326,0,0,1,.69148-.04121A28.06329,28.06329,0,0,1,96.974,91.23137,2.47427,2.47427,0,0,1,97.2151,91.65743Z"/><path class="cls-1" d="M130.44109,46.907l-.04782-.044c.00287.86229-.21962,1.51039-1.27905,1.45078a16.81837,16.81837,0,0,0-4.5335.34311c-.49885.10841-.94246.11385-1.06427-.48114-.14944-.72988.55159-.62758.8927-.72507C126.37937,46.88766,128.42775,47.07385,130.44109,46.907Z"/><path class="cls-1" d="M110.98086,15.43843c-.00438.292-.39145.24568-.72821.10282-2.34294-.99388-4.83225-1.02764-7.30918-1.15576-.32846-.017-.74324.095-.74811-.47757-.00351-.41268.22837-.51856.567-.52425a21.77987,21.77987,0,0,1,7.75082,1.2625C110.76881,14.7374,110.97552,14.8454,110.98086,15.43843Z"/><path class="cls-1" d="M91.68776,107.32947c-.07679-.51464-.04617-.883.55928-.87607.45374.00524.77982.066.76225.65481a9.44564,9.44564,0,0,0,1.42611,5.94206c.197.28148.07334.43313-.17024.60209-.4765.33048-.63073-.07-.80876-.34854a11.38083,11.38083,0,0,1-1.61371-4.37541C91.75417,108.37908,91.73335,107.81879,91.68776,107.32947Z"/><path class="cls-1" d="M47.3453,47.5111c.20189.0006.4039-.00288.60565.00271.34349.00952.73378-.06936.76224.47256.02942.56028-.292.67054-.76016.67007A10.30868,10.30868,0,0,0,43.051,49.97437c-.46188.24611-.86076.35476-1.13726-.19258-.29306-.5801.25018-.65519.57023-.83537A9.79259,9.79259,0,0,1,47.3453,47.5111Z"/><path class="cls-1" d="M148.29716,128.94915c.59911.05167.94222-.80011,1.51032-.48024.45113.254.20143.83238.19845,1.26041-.00365.52085-.22478,1.16645-.70417,1.21738a2.08475,2.08475,0,0,1-1.71438-.78869,5.24656,5.24656,0,0,1,.09009-3.78269c.25138-.27572.53461-.71918.99815-.40654.361.24346.20982.6136.06324.95864A3.26229,3.26229,0,0,0,148.29716,128.94915Z"/><path class="cls-1" d="M168.9976,114.74869a1.45665,1.45665,0,0,1-.15484.52418c-.32307.41884.10562,1.35047-.65766,1.34457-.86923-.00669-.39876-.85072-.48667-1.31341a5.1695,5.1695,0,0,0-1.37029-2.62775c-.24154-.2584-.84542-.48638-.52938-.914a1.07159,1.07159,0,0,1,1.37162-.18524C168.52687,112.19834,168.65119,113.49673,168.9976,114.74869Z"/><path class="cls-1" d="M138.02223,67.89621c.3471-.00491.55869.10386.58935.51046a7.61019,7.61019,0,0,0,1.59617,3.71742c.31437.45637.55542,1.0737.199,1.389-.49465.43754-.87412-.25375-1.21373-.54538a5.67117,5.67117,0,0,1-1.72621-4.3849C137.45033,68.18836,137.51342,67.86322,138.02223,67.89621Z"/><path class="cls-1" d="M145.637,123.73426a33.37047,33.37047,0,0,1-2.16114,5.114c-.12245.21827-.24981.36857-.56839.17754-.34593-.20745-.33767-.42421-.23859-.74755a26.29085,26.29085,0,0,1,1.88549-4.89944c.135-.24906.25783-.62279.62786-.5312C145.60893,122.95317,145.49906,123.41606,145.637,123.73426Z"/><path class="cls-1" d="M101.20781,71.76886a3.12561,3.12561,0,0,1-2.86916-3.08448c.0212-.18166.07869-.45936.19693-.5095a.64862.64862,0,0,1,.80576.22762,5.02224,5.02224,0,0,0,2.84184,2.13514c.301.06893.56126.45139.38532.71608A1.4002,1.4002,0,0,1,101.20781,71.76886Z"/><path class="cls-1" d="M128.32116,132.48806c-.07613.45335.27806,1.014-.49947,1.08809-.67432.06424-.88325-.27269-.92667-.87361-.10154-1.40477-.26385-2.806-.32719-4.21208-.016-.35409-.3343-1.00738.392-1.0582.57109-.04.65131.5252.79622.94565C128.223,129.73246,128.04262,131.17232,128.32116,132.48806Z"/><path class="cls-1" d="M50.0804,73.34053l-.09324.08679c-1.31685-.04769-1.43944-.7196-1.06335-1.82147.25483-.74663.90642-1.41442.60215-2.31188l-.044-.06477c.678.19409.61778-.50428.90508-.77321.465-.43529.81177-1.067,1.69818-.65724C51.17514,69.56818,49.99716,71.23676,50.0804,73.34053Z"/><path class="cls-1" d="M151.619,137.89976c-.16667-1.74967-.17171-1.72594,1.56574-1.35576a14.53164,14.53164,0,0,1,3.03537.92047c.50629.23075,1.02576.45947,1.04954,1.239-1.98966.2554-3.73736-1.05555-5.68468-.83794Z"/><path class="cls-1" d="M116.22638,81.12329l-5.03478-3.6834C114.541,77.2468,116.40093,78.6101,116.22638,81.12329Z"/><path class="cls-1" d="M128.32567,130.03075c.271-.48656-.55017-1.55894.47818-1.62548.874-.05657.6193,1.0649.73277,1.66691.24146,1.28088.33849,2.589.49412,3.88606.03979.33166.22933.7389-.31309.82911-.44215.07354-.6288-.21067-.70572-.60208a6.57914,6.57914,0,0,0-.45462-2.03953C128.13978,131.439,128.44541,130.78106,128.32567,130.03075Z"/><path class="cls-1" d="M164.19013,188.00755a10.37451,10.37451,0,0,1-.2976-3.33356c.34882.03637.418-.20683.42638-.46374.016-.48929.31652-.56341.71142-.5352.43822.03137.38863.36237.41721.65542.08781.90013.21691,1.79774.26558,2.69983C165.787,188.39977,165.50947,188.56352,164.19013,188.00755Z"/><path class="cls-1" d="M79.44183,39.60615c.5135.22155,1.42806-.516,1.55037.23453.141.865-.87354.88689-1.54886,1.05752a13.603,13.603,0,0,1-3.17132.26115c-.44766.00673-.77689-.01565-.77-.62462.00639-.56584.26682-.636.7427-.65967C77.305,39.82234,78.36184,39.70128,79.44183,39.60615Z"/><path class="cls-1" d="M45.15488,51.94531a5.64094,5.64094,0,0,1,4.83417-2.61484c.25618.04377.49709.04614.50694.3936.00765.2701-.04646.49478-.32908.6018A22.63562,22.63562,0,0,1,45.15488,51.94531Z"/><path class="cls-1" d="M131.06643,48.638a1.34039,1.34039,0,0,1-1.25838,1.46038c-.87935.17863-1.73512.47377-2.60063.71993-.38356.10911-.821.33022-.879-.34529-.03917-.45613-.06605-.90087.58191-1.01508,1.3937-.24563,2.77954-.53591,4.16863-.808Z"/><path class="cls-1" d="M163.87138,192.44383l.00487-.47591c2.05385.42527,1.456,2.04389,1.51353,3.36731a1.33644,1.33644,0,0,1,.00305.3039c-.08962.46637.7419,1.13206-.1831,1.38585-.92993.25511-.70852-.74852-1.04666-1.15441-.53233-.639.24153-1.61646-.5896-2.15919l.14247-.26416c.339.257.46917.01321.4485-.25C164.14411,192.93786,164.56638,192.45054,163.87138,192.44383Z"/><path class="cls-1" d="M106.43249,106.55946c-2.25019-.18661-3.66581-1.44485-5.05922-2.82185C102.93692,103.29711,104.83893,104.32635,106.43249,106.55946Z"/><path class="cls-1" d="M175.06491,133.68374l-.15712.572-.23954-.28064a1.08764,1.08764,0,0,0-.23026,1.21344l.01619-.03485c-.45248-.05431-.34079.4023-.523.595-.20656.21854-.36129.5472-.71025.40827a.72351.72351,0,0,1-.374-.7719c.09347-1.155.23326-2.30627.33825-3.46052.03931-.43209.30784-.48739.62707-.40156.39565.10642.76391.23669.601.81965C174.24554,132.943,174.28251,133.5128,175.06491,133.68374Z"/><path class="cls-1" d="M130.50157,132.0586c-.13759-.65364.1976-.97252.77943-1.07443.68633-.12023.67621.3948.76421.85414.15235.79527.34322,1.58342.53,2.37171a.72325.72325,0,0,1-.4854.96345c-.54147.2002-.53966-.29144-.68215-.55963A8.16156,8.16156,0,0,1,130.50157,132.0586Z"/><path class="cls-1" d="M136.29588,58.055A9.09388,9.09388,0,0,1,139.251,59.3192c.26452.19136.51653.47017.40436.74735a.74105.74105,0,0,1-.86987.44714,9.46051,9.46051,0,0,1-2.96775-1.463c-.22258-.18784-.48657-.39392-.26042-.7542A.6013.6013,0,0,1,136.29588,58.055Z"/><path class="cls-1" d="M96.54186,99.96458A7.95493,7.95493,0,0,1,92.702,98.92287c-.50133-.26686-.76245-.71035-.40739-1.24555.3204-.483.76836-.37752,1.18057-.07792C94.44691,98.30564,95.78565,98.53082,96.54186,99.96458Z"/><path class="cls-1" d="M170.23422,119.60556a22.359,22.359,0,0,1,.07928-2.268.80649.80649,0,0,1,.84308-.73023c.52514.04451.34905.52613.36064.84182a6.05875,6.05875,0,0,0,.5,2.35157c.13441.2937.653.6498.04884,1.00653-.42974.25375-.73947.09755-1.00879-.27667-.1565-.21746-.35839-.375-.56669-.03207l.02573.01753c.64087-.5679-.08008-.68122-.31869-.95555Z"/><path class="cls-1" d="M111.19556,77.475a20.48253,20.48253,0,0,1-4.43-2.3122.77881.77881,0,0,1-.37491-1.03628c.26877-.4281.69661-.16057,1.06645.02607A8.4563,8.4563,0,0,1,111.19556,77.475Z"/><path class="cls-1" d="M149.9905,145.57446c-.0562-.5555-.20485-.83842.09015-.98537a.64569.64569,0,0,1,.80224.2266,9.9764,9.9764,0,0,1,1.4873,3.08344.33462.33462,0,0,1-.204.48392,1.25627,1.25627,0,0,1-1.34878-.44583A5.2402,5.2402,0,0,1,149.9905,145.57446Z"/><path class="cls-1" d="M72.62016,94.98629a4.80644,4.80644,0,0,1,.13205-.82176c.22783-.641.30113-1.69631,1.10791-1.55867.6942.11843.77775,1.00312.39671,1.75265-.09782.19242.132.54426.194.82663.19561.89014-.6095,1.15191-1.06876,1.13359C72.64722,96.28943,72.66248,95.51456,72.62016,94.98629Z"/><path class="cls-1" d="M25.29836,51.63483a8.04976,8.04976,0,0,1,3.76722-4.44056A11.2855,11.2855,0,0,1,25.29836,51.63483Z"/><path class="cls-1" d="M53.03786,58.42561c.00912.95053-.32513,1.00244-.79751.88048A5.10887,5.10887,0,0,1,49.37,57.21551c-.14232-.19515-.30647-.41751-.00569-.64163.2146-.15993.483-.3238.66463-.08364A3.85686,3.85686,0,0,0,52.67985,58.054.39248.39248,0,0,1,53.03786,58.42561Z"/><path class="cls-1" d="M150.2711,77.79551a4.60781,4.60781,0,0,1,2.0261,3.67522c-.03589.2039-.07438.41346-.32952.41977a.98462.98462,0,0,1-.84839-.53212A8.2258,8.2258,0,0,1,150.2711,77.79551Z"/><path class="cls-1" d="M94.33743,79.70893c-.76844-.35521-1.58557-.02143-2.36707-.16769-.38722-.07246-.89732-.06936-.93851-.592-.04947-.6278.54585-.66372.94836-.74707a6.6798,6.6798,0,0,1,1.36608-.02793c1.699.00826,1.76612.11882.96177,1.56878Z"/><path class="cls-1" d="M129.351,82.62356a8.2381,8.2381,0,0,1,2.44508,2.81247c.203.29628.43943.78939-.05662,1.04859a.86815.86815,0,0,1-1.07723-.32113A7.9745,7.9745,0,0,1,129.351,82.62356Z"/><path class="cls-1" d="M73.20893,99.68451c-.18444,1.22725-.36222,2.38256-.52916,3.53945-.04443.30793-.05338.62272-.48819.60552-.3939-.01557-.4231-.29292-.51793-.605C71.20235,101.67337,71.37695,101.221,73.20893,99.68451Z"/><path class="cls-1" d="M168.83057,158.59332c-.12253-.9432-.12187-1.67863.95627-1.77385.81163-.07169.78332.65959.76771,1.02425-.03517.82142-.41823,1.72681-1.2719,1.83212C168.42556,159.78157,168.98866,158.86328,168.83057,158.59332Z"/><path class="cls-1" d="M52.40831,51.98567a.8263.8263,0,0,1,.94828.55558c.184.67332-.474.6088-.82909.769a2.71151,2.71151,0,0,1-.99744.28718c-.36336.00971-.92542.53632-1.07387-.26933-.11069-.60075-.00622-1.10685.74754-1.18728C51.55249,52.10362,51.89969,52.05177,52.40831,51.98567Z"/><path class="cls-1" d="M66.372,71.64476c-.35289-.001-.70817.02366-1.05812-.009a.828.828,0,0,1-.7463-.96755c.03-.61534.51675-.44869.9164-.38911.54754.08164,1.10054.12666,1.64809.20825.44483.06629.96847.0889.92626.74086-.04289.66237-.58621.37446-.93086.43a4.72,4.72,0,0,1-.75552.00557Z"/><path class="cls-1" d="M60.01039,38.07061c-.68338-.017-1.13332.089-1.24389-.4853-.107-.55569.39452-.52358.67064-.62322.70738-.25524,1.441-.43781,2.16478-.64741.44457-.12872.66189.14037.799.49243.17943.46079-.09782.61583-.492.71934C61.18312,37.717,60.46559,37.93879,60.01039,38.07061Z"/><path class="cls-1" d="M138.84365,55.08293l.06119.02213c-.14262.12662-.35135.22692-.41611.38591-.44448,1.09143-1.03656,1.233-1.81751.3849a1.30948,1.30948,0,0,1-.18759-1.77807c.44265-.48561.85216.16883,1.22793.4558.1936.14786.30429.58546.667.21357l-.01752-.01236c-.00391.13287-.06292.30613-.001.3908C138.526,55.37224,138.69353,55.20893,138.84365,55.08293Z"/><path class="cls-1" d="M128.078,52.52806a2.93889,2.93889,0,0,1,2.65606-1.63113c.2956.00791.67678-.05486.77781.29a.78493.78493,0,0,1-.4491.85829A4.22747,4.22747,0,0,1,128.078,52.52806Z"/><path class="cls-1" d="M137.17249,67.68657a2.21734,2.21734,0,0,1-.40351.44.67218.67218,0,0,1-.84438-.0002,3.15732,3.15732,0,0,1-1.26277-2.279c.01119-.346.36155-.633.60594-.49A7.325,7.325,0,0,1,137.17249,67.68657Z"/><path class="cls-1" d="M146.56286,127.45149c-.3479.6332.33206,1.72817-.49822,1.73223-.98249.00481-.4718-1.11309-.47724-1.70608-.00556-.604-.44548-1.76709.45994-1.73335C147.00593,125.78,146.08182,126.95566,146.56286,127.45149Z"/><path class="cls-1" d="M157.24911,148.85933c.77078.01514,1.932,1.88778,1.56909,2.58489a1.03418,1.03418,0,0,1-.594.38761c-.2399.07335-.30646-.16457-.37934-.35245a2.67267,2.67267,0,0,0-1.29579-1.75378c-.254-.1125-.21885-.46533-.1116-.6725C156.60841,148.72283,156.97061,148.906,157.24911,148.85933Z"/><path class="cls-1" d="M159.8679,87.53017l.30059-.04638c.19955.82789,1.1391.89964,1.56137,1.56972.552.876.059,1.03163-.57224,1.164-.56755.119-.92556-.248-1.228-.67968-.30237-.43163-.55965-.88016-.10218-1.33527C160.07886,87.9524,160.23626,87.78,159.8679,87.53017Z"/><path class="cls-1" d="M113.75765,97.791c-.43984-.31485-1.47463.04767-1.38582-1.063.04349-.54381.22638-1.21441.95553-1.08641a1.974,1.974,0,0,1,1.47889,1.55417C114.94191,97.74156,114.27125,97.72005,113.75765,97.791Z"/><path class="cls-1" d="M127.715,107.76712a.53676.53676,0,0,1-.48353-.55287c.07416-1.04189.8153-1.519,1.67591-1.89459.537-.23433.59512.21482.707.49342C129.74862,106.14734,128.2451,107.70325,127.715,107.76712Z"/><path class="cls-1" d="M148.22222,74.015c1.02166.12792,1.49919.96015,1.92175,1.80442.14359.2869-.162.41006-.4386.42119-.62966.02535-2.23041-1.30626-2.20861-1.82688C147.51678,73.9353,147.8805,74.0719,148.22222,74.015Z"/><path class="cls-1" d="M143.07946,120.35055a.22818.22818,0,0,0,.00622.03212c1.468.62117,1.2455,2.268-.49219,3.58678C142.15129,122.67809,143.56218,121.63955,143.07946,120.35055Z"/><path class="cls-1" d="M147.84133,66.82524a.61417.61417,0,0,1-.80738.635c-.51-.11855-1.2873-.03066-1.3052-.91094-.00814-.40106-.06477-.81852.54584-.83936A1.58117,1.58117,0,0,1,147.84133,66.82524Z"/><path class="cls-1" d="M143.3536,75.59725c.96188-.04558,1.47375.30283,1.54105,1.17851.03126.40677-.07826.76443-.56493.62124-.71338-.20991-1.52494-.4225-1.68986-1.28581C142.518,75.47326,143.1242,75.652,143.3536,75.59725Z"/><path class="cls-1" d="M39.16648,46.09274c1.569.609,1.65861,1.82061,2.12213,2.7638.0948.19292.07293.41147-.18482.46007a.7195.7195,0,0,1-.77544-.33218A9.76021,9.76021,0,0,1,39.16648,46.09274Z"/><path class="cls-1" d="M42.63382,51.54051c.345.03813.468.18973.48728.406a1.3935,1.3935,0,0,0,1.2621,1.298.43067.43067,0,0,1,.39662.5222.39214.39214,0,0,1-.35156.40962,1.45688,1.45688,0,0,1-1.4342-.66464c-.34937-.46341-.92368-.85658-.67775-1.56887A1.39974,1.39974,0,0,1,42.63382,51.54051Z"/><path class="cls-1" d="M89.78805,82.60931c.53246.18693.52087.99845,1.01134,1.40921a.88079.88079,0,0,1,.13413.98916c-.10539.28869-.42077.20912-.65505.14456a2.1735,2.1735,0,0,1-1.105-2.25527C89.26165,82.67825,89.38412,82.57633,89.78805,82.60931Z"/><path class="cls-1" d="M114.30461,44.90035c-.42838-.2086-1.30051.38306-1.27525-.535.02106-.76562.80824-.38127,1.21808-.36361.44326.01909,1.29-.4457,1.2788.455C115.51669,45.22709,114.72632,44.72548,114.30461,44.90035Z"/><path class="cls-1" d="M121.56617,183.44374c.06266-.65922.28117-1.20064,1.0221-1.28361.46848-.05246.5037.36886.36776.594-.328.54334.19554,1.57117-.84133,1.66867C121.39553,184.49043,121.61789,183.84375,121.56617,183.44374Z"/><path class="cls-1" d="M175.3278,179.662a3.13651,3.13651,0,0,1-1.7805.80809c-.43054.05862-.73188-.409-.61954-.66095.316-.70876,1.07868-.81807,1.75878-.92469C175.11681,178.817,175.26608,179.17563,175.3278,179.662Z"/><path class="cls-1" d="M158.055,115.37773l-.04327.52232c-.95125.09766-1.901.21866-2.85467.279-.29352.01856-.78023.2098-.81918-.35491-.04446-.645.46724-.53061.84723-.52522C156.14192,115.31248,157.0984,115.34989,158.055,115.37773Z"/><path class="cls-1" d="M64.07454,6.62568c-.12709,1.03006-.72482,1.33867-1.7,1.17069-.35706-.06151-.56644-.18238-.58235-.54186-.02045-.46219.24464-.6042.672-.59484.53982.01183,1.08045-.01313,1.621-.022Z"/><path class="cls-1" d="M108.84059,107.81651a2.18686,2.18686,0,0,1,.98885,1.61021c.00038.26763.09114.72459-.354.65327-.80891-.1296-1.07662-.85078-1.30284-1.51252C107.9874,108.02574,108.61273,108.15662,108.84059,107.81651Z"/><path class="cls-1" d="M148.76152,85.32356c-.00583.4785.06548.94291-.64115.92683-.51407-.01169-.73821-.20395-.67034-.70665.07515-.5568.18955-1.146.91431-1.11315C149.00445,84.45958,148.66667,85.0278,148.76152,85.32356Z"/><path class="cls-1" d="M86.71422,7.85776c-.41551.00945-.86377.021-.85455-.56029.01121-.7071.5717-.54307.99716-.55912.41-.01547.86416-.03365.85322.55412C87.697,7.995,87.14133,7.83515,86.71422,7.85776Z"/><path class="cls-1" d="M126.59489,106.9337c.04.47414-.22505.55718-.559.52629-.51682-.04784-1.02025-.15026-1.02855-.82053-.00527-.42632.16431-.91094.61951-.85623C126.2296,105.85569,126.30556,106.54984,126.59489,106.9337Z"/><path class="cls-1" d="M146.67086,79.61491c.55824.15749.90026.46968.83424,1.07877-.04216.389-.232.71966-.65425.66449-.65592-.08568-.85617-.67282-.92567-1.19354C145.86638,79.72416,146.40067,79.7604,146.67086,79.61491Z"/><path class="cls-1" d="M116.1928,17.14289c.1096.81744-.43572.66391-.87116.65713-.42976-.00669-.90806-.12187-.85878-.61354.05959-.59459.63789-.69916,1.14493-.764C116.22177,16.34394,116.24282,16.74871,116.1928,17.14289Z"/><path class="cls-1" d="M146.89705,142.83831c.51292.29639,1.40615.20455,1.55576,1.09851.04377.26139-.42956.50006-.51961.39652-.44576-.5126-1.28149-.5042-1.5604-1.1602C146.27194,142.93591,146.47671,142.689,146.89705,142.83831Z"/><path class="cls-1" d="M124.782,183.15638a.77063.77063,0,0,1,.78042.83c-.00757.35241-.09268.76826-.54751.75965-.65911-.01242-.74275-.55889-.79206-1.06046C124.192,183.37186,124.24056,183.05687,124.782,183.15638Z"/><path class="cls-1" d="M162.07465,179.33624c-.5664-1.1357-.2372-2.283-.06942-3.43635.69072,1.06467.29851,2.24247.4081,3.36292Z"/><path class="cls-1" d="M92.455,12.43084c.19325.03059.3855.07615.57992.08892.53529.03519,1.11449.22645,1.032.78879-.05208.35506-.692.48537-1.16193.48454-.77867-.00138-.4556-.59463-.51125-.971a1.24752,1.24752,0,0,1,.09571-.42985Z"/><path class="cls-1" d="M171.55525,146.2058c-.61787.09383-.51017-.326-.54219-.65967-.05683-.5922.3032-.63731.74813-.60532.30065.02163.62248-.01.60134.443A.74752.74752,0,0,1,171.55525,146.2058Z"/><path class="cls-1" d="M69.68506,140.96677l-.56974.006c-.87664-.28682-.423-.99933-.49364-1.54408l.69948.06863A1.52,1.52,0,0,1,69.68506,140.96677Z"/><path class="cls-1" d="M100.82676,91.892c.02115.40714-.06671.69707-.55289.668a.76448.76448,0,0,1-.80416-.85084c-.0112-.51.33315-.49929.69829-.51544C100.69143,91.17053,100.88509,91.41428,100.82676,91.892Z"/><path class="cls-1" d="M162.80584,122.01069l-.59057-.03033c.22722-.74293-.16736-1.41888-.22933-2.13066l-.00991.04456C163.04757,120.28785,162.76635,121.21217,162.80584,122.01069Z"/><path class="cls-1" d="M133.57939,126.49752c-.29142-.0102-.57411-.04953-.70291-.35984a.23338.23338,0,0,1,.11048-.19926.49839.49839,0,0,1,.59238.26287Z"/><path class="cls-1" d="M31.9148,47.44472c.18579.114.31164.31567.09954.43462-.31134.17459-.378-.1138-.42623-.35083Z"/><path class="cls-1" d="M25.97576,56.378l.246.11963c-.20259.18568-.21925.02046-.24485-.1364C25.97611,56.35423,25.97576,56.378,25.97576,56.378Z"/><path class="cls-1" d="M32.29332,49.15906l-.10939.04387-.03261-.16985a.30292.30292,0,0,1,.1187.02631C32.29091,49.07482,32.28646,49.12462,32.29332,49.15906Z"/><path class="cls-1" d="M140.72686,134.15879c.10184.061.26633.10237.31014.19866.07507.165-.045.2584-.20941.19047a1.58664,1.58664,0,0,1-.31921-.23567Z"/><path class="cls-1" d="M132.46946,118.66616c-.00322.03485.0062.08668-.01257.10071a.14226.14226,0,0,1-.11883.02565c-.127-.06078-.12084-.128.01524-.16639C132.38567,118.617,132.43041,118.65164,132.46946,118.66616Z"/><path class="cls-1" d="M20.15334,37.37979c.103-.14668.24261-.39643.40363-.24812.18437.16981.10884.43553-.13956.58585Z"/><path class="cls-1" d="M13.91986,33.65575c.11484-.51617.23158-1.03039.94991-.92857C14.75553,33.244,14.65742,33.77728,13.91986,33.65575Z"/><path class="cls-1" d="M15.145,32.13507c.0367-.39074.01623-.84011.64207-.62661C15.76562,31.91488,15.768,32.34568,15.145,32.13507Z"/><path class="cls-1" d="M14.84836,32.75428c-.2993-.41623-.06866-.57085.31939-.64771C15.45639,32.51748,15.2267,32.67256,14.84836,32.75428Z"/><path class="cls-1" d="M15.76709,31.53357c-.28766-.41-.09034-.579.319-.64269C16.391,31.30938,16.20109,31.48209,15.76709,31.53357Z"/><path class="cls-1" d="M115.91815,108.44879c-.2088.58661-.68538.6078-1.10622.682-.48284.08519-.72517-.10494-.71587-.64735.00921-.53825.24953-.68117.73654-.64688A1.36554,1.36554,0,0,1,115.91815,108.44879Z"/><path class="cls-1" d="M144.33574,105.74126c-.03188.63452-1.6108,1.0267-2.33864.67436-1.79426-.86864-3.5504-1.84472-5.663-1.64142-.36992.03559-2.34459-2.49222-2.33922-2.88122.00582-.42293.256-.55.59285-.41462a1.95535,1.95535,0,0,1,.8908.55721c.96784,1.424,2.6064,1.5846,4.00081,2.19612.47872.21.97532-.01175,1.47079-.06186a4.41354,4.41354,0,0,1,3.16139,1.13277C144.25077,105.41175,144.29057,105.64789,144.33574,105.74126Z"/><path class="cls-1" d="M148.74137,107.00641a2.585,2.585,0,0,1-2.30626,1.32657c-.63759.1127-.68755-.54339-.74626-.92388-.08816-.57143.45219-.387.74822-.39953C147.12954,106.98032,147.82423,107.00369,148.74137,107.00641Z"/><path class="cls-1" d="M111.74909,59.8315l.51318-.371c.91967-.57275,1.0184-.00216.98753.72014-.00356.08315-.10288.17507-.17746.24048-2.85041,2.49928-1.76606,5.12254-.28577,7.78951.18112.32633.916.713.127,1.2156-.67511.43006-1.05423-.01484-1.39465-.45451a5.3726,5.3726,0,0,1-1.092-2.95909C110.30206,63.85936,109.91814,61.58928,111.74909,59.8315Z"/><path class="cls-1" d="M119.84233,75.68025c-.9535-.25385-2.28547.07134-2.60071-1.44928-.10489-.5059.12193-.72929.66694-.7054.89545.03926,2.925,1.24349,2.83989,1.754C120.66653,75.77117,120.23306,75.63545,119.84233,75.68025Z"/><path class="cls-1" d="M115.0072,70.42a3.31025,3.31025,0,0,1,1.24852,1.63254c.13142.43192-.5608.60123-.87036.50992a1.447,1.447,0,0,1-1.09353-1.44925A.79126.79126,0,0,1,115.0072,70.42Z"/><path class="cls-1" d="M122.33324,77.35779a.709.709,0,0,1-.7948-.8379c.02166-.44031.28914-.8983.6869-.85562.527.05654.80744.654.92172,1.09892C123.27133,77.24709,122.72178,77.2774,122.33324,77.35779Z"/><path class="cls-1" d="M77.94738,54.64813c-.83483-.24764-1.14005-.943-1.61179-1.4271a11.39974,11.39974,0,0,0-3.526-2.84268.705.705,0,0,1-.40245-.98942c.1658-.53933.55644-.1985.86668-.11154,2.75679.77271,4.54633,2.55486,4.74151,4.73559A3.63574,3.63574,0,0,1,77.94738,54.64813Z"/><path class="cls-1" d="M65.90064,54.27443a16.15421,16.15421,0,0,0-.78747,2.47747c-.02414.71641-.62044.511-1.02752.48251-.50825-.03553-.48869-.444-.38783-.78916C64.017,55.35272,64.33956,54.23966,65.90064,54.27443Z"/><path class="cls-1" d="M78.77953,57.65154c.11712.77695.02085,1.19548-.503,1.21016-.51438.01443-.639-.41337-.59775-.84764.02819-.29664.41335-.631-.24977-.74033-.59193-.09755-.398-.62949-.34628-.99039.05643-.39408.437-.33672.73284-.35207.48894-.02537.73513.17326.76955.69761A6.048,6.048,0,0,0,78.77953,57.65154Z"/><path class="cls-1" d="M69.36517,49.43384c-.66786-.024-1.33866.00582-1.291-.89014.02607-.49014.33566-.97951.81532-.89306.71054.128,1.64877.35551,1.71964,1.17907C70.66378,49.465,69.832,49.38612,69.36517,49.43384Z"/><path class="cls-1" d="M69.71951,58.63521c-.0228.40228.12653.92672-.46875.73852-.84252-.26637-1.01948-1.05545-1.13211-1.81385a.7067.7067,0,0,1,.8741-.76759C69.89872,57.10638,69.49433,58.05283,69.71951,58.63521Z"/><path class="cls-1" d="M66.92142,57.62588a1.645,1.645,0,0,1-.95948-1.18374c-.19744-.56274.25823-.83465.723-.914.78324-.13378.685.586.83695,1.006C67.69937,57.02482,67.54556,57.43176,66.92142,57.62588Z"/><path class="cls-1" d="M180.61669,4.50176a7.17221,7.17221,0,0,0-1.7691,4.52759V46.45511l14.25125,3.71716,2.79589,31.21991H178.84759V91.8311h18.662a8.821,8.821,0,0,0,6.00216-2.67935,7.87946,7.87946,0,0,0,2.91777-5.74738V42.15626l-15.71514-4.08514-1.7357-25.56036L206.42948,10.175V2.20842H184.807A5.35379,5.35379,0,0,0,180.61669,4.50176Z"/><polygon class="cls-1" points="238.933 77.549 238.933 2.208 227.753 2.208 227.753 91.831 254.719 91.831 254.719 81.381 240.352 79.726 238.933 77.549"/><polygon class="cls-1" points="275.429 91.831 286.596 91.831 287.732 2.208 273.21 2.208 273.21 9.093 275.429 15.013 275.429 91.831"/><path class="cls-1" d="M313.18072,89.48433c2.25061,1.57943,5.509,2.34677,9.96075,2.34677H341.8061V69.18017h-9.46788l-2.64663,10.324a2.83494,2.83494,0,0,1-.50422.03674h-7.00424l-2.45429-61.3005-.02137-.52425-.2825-.18766a3.97068,3.97068,0,0,1-.06611-.85016,7.73747,7.73747,0,0,1,.92161-3.76391,2.56923,2.56923,0,0,1,2.493-1.37908h5.17906a1.40168,1.40168,0,0,1,.45346.0551l.00067.031,1.32164,14.9635h9.98145l2.08832-16.31352.008-8.0631H320.55161c-3.33984,0-5.99715.73462-7.89714,2.18315a6.98253,6.98253,0,0,0-2.9959,5.74972V83.1566A7.46151,7.46151,0,0,0,313.18072,89.48433Z"/><polygon class="cls-1" points="393.519 88.49 383.682 45.698 388.587 41.872 391.305 1.873 378.515 5.291 379.886 37.064 373.203 42.713 373.203 2.208 366.805 2.208 362.751 3.767 364.386 91.831 374.681 91.831 374.681 51.716 375.625 50.987 382.029 91.831 390.656 91.831 393.519 88.49"/><path class="cls-1" d="M254.47787,110.72946l-.00067-.00067a17.09914,17.09914,0,0,0-8.39267-1.91869H227.05159v5.21111l2.71241,1.47992v82.93165h9.20676V160.69013h5.51063c3.63569,0,6.51706-.65448,8.56331-1.94473a10.47409,10.47409,0,0,0,4.15059-4.26813,9.49031,9.49031,0,0,0,1.01444-3.81667V115.87912C258.20973,113.8429,256.9542,112.11054,254.47787,110.72946Zm-7.07671,8.62641L246.177,150.16573l-5.12763,1.19342a.64359.64359,0,0,1-.34827-.1122l-.005-.004v-34.7955a2.34081,2.34081,0,0,1,.45446-.03606h2.09633a4.47154,4.47154,0,0,1,3.11812.89156A3.1537,3.1537,0,0,1,247.40116,119.35587Z"/><polygon class="cls-1" points="277.314 115.697 279.534 121.614 279.534 198.433 290.701 198.433 291.836 108.81 277.314 108.81 277.314 115.697"/><polygon class="cls-1" points="340.31 108.81 312.656 108.81 312.656 118.892 328.143 116.956 310.621 193.487 313.321 198.433 342.583 198.433 342.583 190.653 326.235 189.553 340.31 108.81"/><polygon class="cls-1" points="374.21 186.188 391.595 113.341 387.068 108.81 361.564 108.81 361.564 115.582 378.151 119.485 363.837 186.204 359.396 194.823 362.352 198.433 391.624 198.433 390.4 188.484 374.21 186.188"/><path class="cls-1" d="M436.271,108.8101H414.85284l-5.67993,89.62268h9.67024l2.74881-28.46911,8.07144-3.836,4.37231,32.30515H441.446Zm-8.41471,7.32881-.7286,43.64363-3.99766.6478V117.48393c0-.15828.03005-.22239.09083-.26847Z"/></svg>